<svg width="32" height="32" viewBox="0 0 32 32" fill="none" xmlns="http://www.w3.org/2000/svg">
<rect width="32" height="32" rx="16" fill="#655B70"/>
<path d="M23.8115 12.5371C24.163 13.7676 24.163 16.4043 24.163 16.4043C24.163 16.4043 24.163 19.0117 23.8115 20.2715C23.6357 20.9746 23.0791 21.502 22.4052 21.6777C21.1455 22 16.165 22 16.165 22C16.165 22 11.1552 22 9.89547 21.6777C9.22164 21.502 8.665 20.9746 8.48922 20.2715C8.13766 19.0117 8.13766 16.4043 8.13766 16.4043C8.13766 16.4043 8.13766 13.7676 8.48922 12.5371C8.665 11.834 9.22164 11.2773 9.89547 11.1016C11.1552 10.75 16.165 10.75 16.165 10.75C16.165 10.75 21.1455 10.75 22.4052 11.1016C23.0791 11.2773 23.6357 11.834 23.8115 12.5371ZM14.5244 18.7773L18.6845 16.4043L14.5244 14.0312V18.7773Z" fill="white"/>
</svg>
