<svg width="29" height="28" viewBox="0 0 29 28" fill="none" xmlns="http://www.w3.org/2000/svg">
<g id="Modo_de_isolamento" clip-path="url(#clip0_23_1879)">
<path id="Vector" d="M28.2027 28H19.7282C19.5232 28 19.3181 27.9095 19.1587 27.7736L16.3566 24.9895H0.797329C0.364493 24.9895 0 24.6273 0 24.1973V1.10914C0 0.679062 0.341713 0.316896 0.774548 0.316896L9.24902 0C9.47683 0 9.68185 0.0679062 9.84132 0.226354L13.2584 3.62167H28.2027C28.6355 3.62167 29 3.98383 29 4.4139V27.1851C29 27.6152 28.6355 27.9774 28.2027 27.9774V28ZM20.0471 26.4155H27.4053V5.22878H12.9167C12.7117 5.22878 12.5067 5.13824 12.3472 5.00243L8.93009 1.60711L1.57188 1.87874V23.405H16.6756C16.8806 23.405 17.0856 23.4956 17.2451 23.6314L20.0471 26.4155Z" fill="#45FBD4"/>
<path id="Vector_2" d="M24.0337 11.8836H20.0471C19.6143 11.8836 19.2498 11.5214 19.2498 11.0913C19.2498 10.6613 19.6143 10.2991 20.0471 10.2991H24.0337C24.4666 10.2991 24.8311 10.6613 24.8311 11.0913C24.8311 11.5214 24.4666 11.8836 24.0337 11.8836Z" fill="#45FBD4"/>
<path id="Vector_3" d="M24.0337 17.2935H20.0471C19.6143 17.2935 19.2498 16.9313 19.2498 16.5012C19.2498 16.0712 19.6143 15.709 20.0471 15.709H24.0337C24.4666 15.709 24.8311 16.0712 24.8311 16.5012C24.8311 16.9313 24.4666 17.2935 24.0337 17.2935Z" fill="#45FBD4"/>
<path id="Vector_4" d="M15.5821 19.2627C15.1492 19.2627 14.7847 18.9006 14.7847 18.4705C14.7847 16.4333 13.1217 14.8036 11.0942 14.8036C9.06674 14.8036 7.40374 16.4559 7.40374 18.4705C7.40374 18.9006 7.03925 19.2627 6.60641 19.2627C6.17358 19.2627 5.80908 18.9006 5.80908 18.4705C5.80908 15.5732 8.17829 13.1964 11.117 13.1964C14.0557 13.1964 16.4249 15.5505 16.4249 18.4705C16.4249 18.9006 16.0605 19.2627 15.6276 19.2627H15.5821Z" fill="#45FBD4"/>
<path id="Vector_5" d="M11.0943 14.7809C9.31735 14.7809 7.85938 13.3323 7.85938 11.5667C7.85938 9.80114 9.31735 8.35248 11.0943 8.35248C12.8712 8.35248 14.3291 9.80114 14.3291 11.5667C14.3291 13.3323 12.8712 14.7809 11.0943 14.7809ZM11.0943 9.93696C10.183 9.93696 9.45403 10.6613 9.45403 11.5667C9.45403 12.4721 10.183 13.1965 11.0943 13.1965C12.0055 13.1965 12.7345 12.4721 12.7345 11.5667C12.7345 10.6613 12.0055 9.93696 11.0943 9.93696Z" fill="#45FBD4"/>
</g>
<defs>
<clipPath id="clip0_23_1879">
<rect width="29" height="28" fill="white"/>
</clipPath>
</defs>
</svg>
