<svg width="753" height="704" viewBox="0 0 753 704" fill="none" xmlns="http://www.w3.org/2000/svg">
<g clip-path="url(#clip0_29_2761)">
<path d="M9.82562 202.676H72.7182C78.1448 202.676 82.5439 207.074 82.5439 212.498V358.19C82.5439 363.614 78.1448 368.011 72.7182 368.011H9.82562C4.39903 368.011 -3.8147e-05 363.614 -3.8147e-05 358.19V212.498C-3.8147e-05 207.074 4.39903 202.676 9.82562 202.676Z" fill="#45FDD6"/>
<path d="M168.31 453.979L194.605 354.293C201.527 328.009 225.315 309.718 252.485 309.718H290.833V453.979H168.31Z" fill="white"/>
<g opacity="0.5">
<path d="M168.31 453.979L194.605 354.293C201.527 328.009 225.315 309.718 252.485 309.718H290.833V453.979H168.31Z" fill="#EBF5FF"/>
</g>
<path d="M0.318176 361.927C26.0162 376.361 44.8721 400.418 52.7486 428.809L117.312 662.258L167.833 453.979H220.064V748.146H57.7608L0.318176 361.927Z" fill="#D4E3FA"/>
<path d="M418.448 172.099H492.241V309.679H418.448V172.099Z" fill="#D4E3FA"/>
<g style="mix-blend-mode:multiply">
<path d="M418.448 234.845H492.241V308.605H418.448V234.845Z" fill="url(#paint0_linear_29_2761)"/>
</g>
<path d="M278.183 309.679H650.447C707.094 309.679 753 355.565 753 412.188V748.106H220.064V367.773C220.064 335.684 246.081 309.679 278.183 309.679Z" fill="white"/>
<path d="M455.325 188.799C403.168 188.799 360.886 146.536 360.886 94.4017C360.886 42.2674 403.168 0.00421143 455.325 0.00421143C507.481 0.00421143 549.763 42.2674 549.763 94.4017C549.763 146.536 507.481 188.799 455.325 188.799Z" fill="#3C3246"/>
<path d="M426.325 114.959C463.917 91.8568 502.941 118.299 502.941 153.887V215.639C502.941 241.923 481.619 263.275 455.285 263.275C428.99 263.275 407.628 241.962 407.628 215.639V149.076C407.628 135.278 414.51 122.196 426.285 114.959H426.325Z" fill="#3C3246"/>
<path d="M455.325 74.5599C475.692 74.5599 492.201 91.0616 492.201 111.42V182.278C492.201 192.974 486.87 203.114 477.761 208.681C448.641 226.574 418.408 206.096 418.408 178.54V111.38C418.408 91.0218 434.917 74.5201 455.285 74.5201L455.325 74.5599Z" fill="#D4E3FA"/>
<path d="M412.601 162.516H497.372V181.522H412.601V162.516Z" fill="#3C3246"/>
<path d="M492.241 309.679L464.355 349.163C459.979 355.366 450.75 355.366 446.334 349.163L418.448 309.679H492.241Z" fill="#D4E3FA"/>
<path d="M492.241 309.679L455.325 288.883L418.448 309.679L455.325 348.209L492.241 309.679Z" fill="#D4E3FA"/>
<path d="M454.728 444.197C451.74 444.197 449.318 441.776 449.318 438.789C449.318 435.803 451.74 433.382 454.728 433.382C457.716 433.382 460.138 435.803 460.138 438.789C460.138 441.776 457.716 444.197 454.728 444.197Z" fill="white" stroke="#5A78FF" stroke-width="1.17" stroke-miterlimit="10"/>
<path d="M454.728 519.707C451.74 519.707 449.318 517.286 449.318 514.299C449.318 511.313 451.74 508.892 454.728 508.892C457.716 508.892 460.138 511.313 460.138 514.299C460.138 517.286 457.716 519.707 454.728 519.707Z" fill="white" stroke="#5A78FF" stroke-width="1.17" stroke-miterlimit="10"/>
<path d="M454.728 595.257C451.74 595.257 449.318 592.836 449.318 589.849C449.318 586.862 451.74 584.441 454.728 584.441C457.716 584.441 460.138 586.862 460.138 589.849C460.138 592.836 457.716 595.257 454.728 595.257Z" fill="white" stroke="#5A78FF" stroke-width="1.17" stroke-miterlimit="10"/>
<path d="M454.728 670.767C451.74 670.767 449.318 668.346 449.318 665.359C449.318 662.372 451.74 659.951 454.728 659.951C457.716 659.951 460.138 662.372 460.138 665.359C460.138 668.346 457.716 670.767 454.728 670.767Z" fill="white" stroke="#5A78FF" stroke-width="1.17" stroke-miterlimit="10"/>
<path d="M34.6883 290.911H47.8556C48.9695 290.911 49.8844 289.996 49.8844 288.883C49.8844 287.769 48.9695 286.855 47.8556 286.855H34.6883C33.5745 286.855 32.6596 287.769 32.6596 288.883C32.6596 289.996 33.5745 290.911 34.6883 290.911Z" fill="#5A78FF"/>
<path d="M55.8117 298.863C61.3014 298.863 65.7965 294.37 65.7965 288.883C65.7965 283.395 61.3014 278.902 55.8117 278.902C50.322 278.902 45.8268 283.395 45.8268 288.883C45.8268 294.37 50.322 298.863 55.8117 298.863ZM55.8117 282.998C59.0737 282.998 61.7389 285.662 61.7389 288.922C61.7389 292.183 59.0737 294.847 55.8117 294.847C52.5497 294.847 49.8844 292.183 49.8844 288.922C49.8844 285.662 52.5497 282.998 55.8117 282.998Z" fill="#5A78FF"/>
<path d="M26.7721 298.863C32.2618 298.863 36.7569 294.37 36.7569 288.883C36.7569 283.395 32.2618 278.902 26.7721 278.902C21.2824 278.902 16.7872 283.395 16.7872 288.883C16.7872 294.37 21.2824 298.863 26.7721 298.863ZM26.7721 282.998C30.0341 282.998 32.6993 285.662 32.6993 288.922C32.6993 292.183 30.0341 294.847 26.7721 294.847C23.5101 294.847 20.8448 292.183 20.8448 288.922C20.8448 285.662 23.5101 282.998 26.7721 282.998Z" fill="#5A78FF"/>
</g>
<defs>
<linearGradient id="paint0_linear_29_2761" x1="455.325" y1="294.449" x2="455.325" y2="246.495" gradientUnits="userSpaceOnUse">
<stop offset="0.25" stop-color="white"/>
<stop offset="1" stop-color="#A0C1F4"/>
</linearGradient>
<clipPath id="clip0_29_2761">
<rect width="753" height="704" fill="white" transform="matrix(-1 0 0 1 753 0.00421143)"/>
</clipPath>
</defs>
</svg>
