<svg width="816" height="159" viewBox="0 0 816 159" fill="none" xmlns="http://www.w3.org/2000/svg">
<g clip-path="url(#clip0_1_1329)">
<path d="M478.771 6.98956C443.54 6.98956 414.133 32.4994 407.886 66.0972H142.998C136.75 32.4994 107.341 6.98956 72.111 6.98956C32.3492 6.98956 0 39.4848 0 79.4298C0 119.375 32.3492 151.872 72.1126 151.872C107.343 151.872 136.752 126.36 142.999 92.7625H407.887C414.135 126.36 443.544 151.872 478.774 151.872C518.536 151.872 550.885 119.375 550.885 79.4298C550.885 39.4848 518.536 6.98956 478.772 6.98956H478.771ZM72.1126 125.206C46.9853 125.206 26.5424 104.672 26.5424 79.4298C26.5424 54.1877 46.9853 33.6532 72.1126 33.6532C97.24 33.6532 117.675 54.1811 117.681 79.415C117.681 79.4199 117.681 79.4249 117.681 79.4298C117.681 79.4348 117.681 79.4398 117.681 79.4447C117.673 104.68 97.2334 125.206 72.1126 125.206ZM478.772 125.206C453.647 125.206 433.204 104.672 433.204 79.4298C433.204 54.1877 453.645 33.6532 478.772 33.6532C503.9 33.6532 524.341 54.1877 524.341 79.4298C524.341 104.672 503.9 125.206 478.772 125.206Z" fill="white"/>
<path d="M606.01 2.22412H578.025V155.892H606.01V2.22412Z" fill="white"/>
<path d="M723.42 0.00421143H693.225L678.075 34.6698H697.539L723.42 0.00421143Z" fill="white"/>
<path d="M711.532 59.3995C702.763 52.2835 692.558 48.7248 680.917 48.7248C666.677 48.7248 654.58 53.9927 644.62 64.5252C634.66 75.0595 629.681 88.04 629.681 103.47C629.681 117.704 634.134 129.998 643.042 140.354C647.74 145.781 653.563 150.077 660.507 153.249C667.451 156.419 674.743 158.004 682.389 158.004C693.611 158.004 703.326 154.482 711.532 147.435V155.89H738.464V50.9447H711.532V59.3995ZM710.48 119.112C707.745 123.059 704.149 126.211 699.696 128.57C695.242 130.932 690.419 132.111 685.229 132.111C677.303 132.111 670.728 129.4 665.504 123.973C660.278 118.548 657.667 111.714 657.667 103.47C657.667 95.6502 660.173 88.9029 665.19 83.2316C670.203 77.5604 676.673 74.7239 684.599 74.7239C689.86 74.7239 694.752 75.8859 699.275 78.2116C703.798 80.5373 707.535 83.7077 710.48 87.7227V119.112Z" fill="white"/>
<path d="M810.424 125.717C806.705 122.018 802.218 120.168 796.957 120.168C791.697 120.168 787.261 122.018 783.649 125.717C780.036 129.417 778.231 133.908 778.231 139.192C778.231 144.477 780.036 148.935 783.649 152.563C787.261 156.191 791.697 158.006 796.957 158.006C802.218 158.006 806.705 156.191 810.424 152.563C814.141 148.935 816 144.478 816 139.192C816 133.906 814.141 129.417 810.424 125.717Z" fill="white"/>
</g>
<defs>
<clipPath id="clip0_1_1329">
<rect width="816" height="158" fill="white" transform="translate(0 0.00421143)"/>
</clipPath>
</defs>
</svg>
