<svg width="131" height="46" viewBox="0 0 131 46" fill="none" xmlns="http://www.w3.org/2000/svg">
<path d="M131 41.3889C131 43.9363 129.314 46 127.228 46H3.77725C1.69234 46 0 43.9363 0 41.3889V4.61709C0 2.07076 1.69234 0 3.77725 0H127.227C129.314 0 131 2.07076 131 4.61709V41.3889Z" fill="#3C3246"/>
<path d="M44.5227 16H42.6392V10.1818H44.5824C45.1525 10.1818 45.642 10.2983 46.0511 10.5312C46.4602 10.7623 46.7737 11.0947 46.9915 11.5284C47.2112 11.9602 47.321 12.4782 47.321 13.0824C47.321 13.6884 47.2102 14.2093 46.9886 14.6449C46.7689 15.0805 46.4508 15.4157 46.0341 15.6506C45.6174 15.8835 45.1136 16 44.5227 16ZM43.517 15.233H44.4744C44.9176 15.233 45.286 15.1496 45.5795 14.983C45.8731 14.8144 46.0928 14.571 46.2386 14.2528C46.3845 13.9328 46.4574 13.5426 46.4574 13.0824C46.4574 12.6259 46.3845 12.2386 46.2386 11.9205C46.0947 11.6023 45.8797 11.3608 45.5938 11.196C45.3078 11.0312 44.9527 10.9489 44.5284 10.9489H43.517V15.233ZM50.1825 16.0881C49.7734 16.0881 49.4164 15.9943 49.1115 15.8068C48.8066 15.6193 48.5698 15.357 48.4013 15.0199C48.2327 14.6828 48.1484 14.2888 48.1484 13.8381C48.1484 13.3854 48.2327 12.9896 48.4013 12.6506C48.5698 12.3116 48.8066 12.0483 49.1115 11.8608C49.4164 11.6733 49.7734 11.5795 50.1825 11.5795C50.5916 11.5795 50.9486 11.6733 51.2536 11.8608C51.5585 12.0483 51.7952 12.3116 51.9638 12.6506C52.1323 12.9896 52.2166 13.3854 52.2166 13.8381C52.2166 14.2888 52.1323 14.6828 51.9638 15.0199C51.7952 15.357 51.5585 15.6193 51.2536 15.8068C50.9486 15.9943 50.5916 16.0881 50.1825 16.0881ZM50.1854 15.375C50.4505 15.375 50.6702 15.3049 50.8445 15.1648C51.0187 15.0246 51.1475 14.8381 51.2308 14.6051C51.3161 14.3722 51.3587 14.1155 51.3587 13.8352C51.3587 13.5568 51.3161 13.3011 51.2308 13.0682C51.1475 12.8333 51.0187 12.6449 50.8445 12.5028C50.6702 12.3608 50.4505 12.2898 50.1854 12.2898C49.9183 12.2898 49.6967 12.3608 49.5206 12.5028C49.3464 12.6449 49.2166 12.8333 49.1314 13.0682C49.0481 13.3011 49.0064 13.5568 49.0064 13.8352C49.0064 14.1155 49.0481 14.3722 49.1314 14.6051C49.2166 14.8381 49.3464 15.0246 49.5206 15.1648C49.6967 15.3049 49.9183 15.375 50.1854 15.375ZM53.978 16L52.6939 11.6364H53.5717L54.4268 14.8409H54.4695L55.3274 11.6364H56.2053L57.0575 14.8267H57.1001L57.9496 11.6364H58.8274L57.5462 16H56.6797L55.7933 12.8494H55.728L54.8416 16H53.978ZM60.483 13.4091V16H59.6335V11.6364H60.4489V12.3466H60.5028C60.6032 12.1155 60.7604 11.9299 60.9744 11.7898C61.1903 11.6496 61.4621 11.5795 61.7898 11.5795C62.0871 11.5795 62.3475 11.642 62.571 11.767C62.7945 11.8902 62.9678 12.0739 63.0909 12.3182C63.214 12.5625 63.2756 12.8646 63.2756 13.2244V16H62.4261V13.3267C62.4261 13.0104 62.3438 12.7633 62.179 12.5852C62.0142 12.4053 61.7879 12.3153 61.5 12.3153C61.303 12.3153 61.1278 12.358 60.9744 12.4432C60.8229 12.5284 60.7027 12.6534 60.6136 12.8182C60.5265 12.9811 60.483 13.178 60.483 13.4091ZM65.2642 10.1818V16H64.4148V10.1818H65.2642ZM68.245 16.0881C67.8359 16.0881 67.4789 15.9943 67.174 15.8068C66.8691 15.6193 66.6323 15.357 66.4638 15.0199C66.2952 14.6828 66.2109 14.2888 66.2109 13.8381C66.2109 13.3854 66.2952 12.9896 66.4638 12.6506C66.6323 12.3116 66.8691 12.0483 67.174 11.8608C67.4789 11.6733 67.8359 11.5795 68.245 11.5795C68.6541 11.5795 69.0111 11.6733 69.3161 11.8608C69.621 12.0483 69.8577 12.3116 70.0263 12.6506C70.1948 12.9896 70.2791 13.3854 70.2791 13.8381C70.2791 14.2888 70.1948 14.6828 70.0263 15.0199C69.8577 15.357 69.621 15.6193 69.3161 15.8068C69.0111 15.9943 68.6541 16.0881 68.245 16.0881ZM68.2479 15.375C68.513 15.375 68.7327 15.3049 68.907 15.1648C69.0812 15.0246 69.21 14.8381 69.2933 14.6051C69.3786 14.3722 69.4212 14.1155 69.4212 13.8352C69.4212 13.5568 69.3786 13.3011 69.2933 13.0682C69.21 12.8333 69.0812 12.6449 68.907 12.5028C68.7327 12.3608 68.513 12.2898 68.2479 12.2898C67.9808 12.2898 67.7592 12.3608 67.5831 12.5028C67.4089 12.6449 67.2791 12.8333 67.1939 13.0682C67.1106 13.3011 67.0689 13.5568 67.0689 13.8352C67.0689 14.1155 67.1106 14.3722 67.1939 14.6051C67.2791 14.8381 67.4089 15.0246 67.5831 15.1648C67.7592 15.3049 67.9808 15.375 68.2479 15.375ZM72.4972 16.0966C72.2206 16.0966 71.9706 16.0455 71.7472 15.9432C71.5237 15.839 71.3466 15.6884 71.2159 15.4915C71.0871 15.2945 71.0227 15.053 71.0227 14.767C71.0227 14.5208 71.0701 14.3182 71.1648 14.1591C71.2595 14 71.3873 13.8741 71.5483 13.7812C71.7093 13.6884 71.8892 13.6184 72.0881 13.571C72.2869 13.5237 72.4896 13.4877 72.696 13.4631C72.9574 13.4328 73.1695 13.4081 73.3324 13.3892C73.4953 13.3684 73.6136 13.3352 73.6875 13.2898C73.7614 13.2443 73.7983 13.1705 73.7983 13.0682V13.0483C73.7983 12.8002 73.7282 12.608 73.5881 12.4716C73.4498 12.3352 73.2434 12.267 72.9688 12.267C72.6828 12.267 72.4574 12.3305 72.2926 12.4574C72.1297 12.5824 72.017 12.7216 71.9545 12.875L71.1562 12.6932C71.2509 12.428 71.3892 12.214 71.571 12.0511C71.7547 11.8864 71.9659 11.767 72.2045 11.6932C72.4432 11.6174 72.6941 11.5795 72.9574 11.5795C73.1316 11.5795 73.3163 11.6004 73.5114 11.642C73.7083 11.6818 73.892 11.7557 74.0625 11.8636C74.2348 11.9716 74.3759 12.1259 74.4858 12.3267C74.5956 12.5256 74.6506 12.7841 74.6506 13.1023V16H73.821V15.4034H73.7869C73.732 15.5133 73.6496 15.6212 73.5398 15.7273C73.4299 15.8333 73.2888 15.9214 73.1165 15.9915C72.9441 16.0616 72.7377 16.0966 72.4972 16.0966ZM72.6818 15.4148C72.9167 15.4148 73.1174 15.3684 73.2841 15.2756C73.4527 15.1828 73.5805 15.0616 73.6676 14.9119C73.7566 14.7604 73.8011 14.5985 73.8011 14.4261V13.8636C73.7708 13.8939 73.7121 13.9223 73.625 13.9489C73.5398 13.9735 73.4422 13.9953 73.3324 14.0142C73.2225 14.0312 73.1155 14.0473 73.0114 14.0625C72.9072 14.0758 72.8201 14.0871 72.75 14.0966C72.5852 14.1174 72.4347 14.1525 72.2983 14.2017C72.1638 14.2509 72.0559 14.322 71.9744 14.4148C71.8949 14.5057 71.8551 14.6269 71.8551 14.7784C71.8551 14.9886 71.9328 15.1477 72.0881 15.2557C72.2434 15.3617 72.4413 15.4148 72.6818 15.4148ZM77.4155 16.0852C77.0632 16.0852 76.7488 15.9953 76.4723 15.8153C76.1977 15.6335 75.9818 15.375 75.8246 15.0398C75.6693 14.7027 75.5916 14.2983 75.5916 13.8267C75.5916 13.3551 75.6702 12.9517 75.8274 12.6165C75.9865 12.2812 76.2043 12.0246 76.4808 11.8466C76.7573 11.6686 77.0708 11.5795 77.4212 11.5795C77.692 11.5795 77.9098 11.625 78.0746 11.7159C78.2412 11.8049 78.37 11.9091 78.4609 12.0284C78.5537 12.1477 78.6257 12.2528 78.6768 12.3438H78.728V10.1818H79.5774V16H78.7479V15.321H78.6768C78.6257 15.4138 78.5518 15.5199 78.4553 15.6392C78.3606 15.7585 78.2299 15.8627 78.0632 15.9517C77.8965 16.0407 77.6806 16.0852 77.4155 16.0852ZM77.603 15.3608C77.8473 15.3608 78.0537 15.2964 78.2223 15.1676C78.3928 15.0369 78.5215 14.8561 78.6087 14.625C78.6977 14.3939 78.7422 14.125 78.7422 13.8182C78.7422 13.5152 78.6986 13.25 78.6115 13.0227C78.5244 12.7955 78.3965 12.6184 78.228 12.4915C78.0594 12.3646 77.8511 12.3011 77.603 12.3011C77.3473 12.3011 77.1342 12.3674 76.9638 12.5C76.7933 12.6326 76.6645 12.8134 76.5774 13.0426C76.4922 13.2718 76.4496 13.5303 76.4496 13.8182C76.4496 14.1098 76.4931 14.3722 76.5803 14.6051C76.6674 14.8381 76.7962 15.0227 76.9666 15.1591C77.139 15.2936 77.3511 15.3608 77.603 15.3608ZM83.7564 13.4091V16H82.907V11.6364H83.7223V12.3466H83.7763C83.8767 12.1155 84.0339 11.9299 84.2479 11.7898C84.4638 11.6496 84.7356 11.5795 85.0632 11.5795C85.3606 11.5795 85.621 11.642 85.8445 11.767C86.0679 11.8902 86.2412 12.0739 86.3643 12.3182C86.4875 12.5625 86.549 12.8646 86.549 13.2244V16H85.6996V13.3267C85.6996 13.0104 85.6172 12.7633 85.4524 12.5852C85.2876 12.4053 85.0613 12.3153 84.7734 12.3153C84.5765 12.3153 84.4013 12.358 84.2479 12.4432C84.0964 12.5284 83.9761 12.6534 83.8871 12.8182C83.8 12.9811 83.7564 13.178 83.7564 13.4091ZM89.5263 16.0881C89.1172 16.0881 88.7602 15.9943 88.4553 15.8068C88.1503 15.6193 87.9136 15.357 87.745 15.0199C87.5765 14.6828 87.4922 14.2888 87.4922 13.8381C87.4922 13.3854 87.5765 12.9896 87.745 12.6506C87.9136 12.3116 88.1503 12.0483 88.4553 11.8608C88.7602 11.6733 89.1172 11.5795 89.5263 11.5795C89.9354 11.5795 90.2924 11.6733 90.5973 11.8608C90.9022 12.0483 91.139 12.3116 91.3075 12.6506C91.4761 12.9896 91.5604 13.3854 91.5604 13.8381C91.5604 14.2888 91.4761 14.6828 91.3075 15.0199C91.139 15.357 90.9022 15.6193 90.5973 15.8068C90.2924 15.9943 89.9354 16.0881 89.5263 16.0881ZM89.5291 15.375C89.7943 15.375 90.014 15.3049 90.1882 15.1648C90.3625 15.0246 90.4912 14.8381 90.5746 14.6051C90.6598 14.3722 90.7024 14.1155 90.7024 13.8352C90.7024 13.5568 90.6598 13.3011 90.5746 13.0682C90.4912 12.8333 90.3625 12.6449 90.1882 12.5028C90.014 12.3608 89.7943 12.2898 89.5291 12.2898C89.2621 12.2898 89.0405 12.3608 88.8643 12.5028C88.6901 12.6449 88.5604 12.8333 88.4751 13.0682C88.3918 13.3011 88.3501 13.5568 88.3501 13.8352C88.3501 14.1155 88.3918 14.3722 88.4751 14.6051C88.5604 14.8381 88.6901 15.0246 88.8643 15.1648C89.0405 15.3049 89.2621 15.375 89.5291 15.375Z" fill="white"/>
<path fill-rule="evenodd" clip-rule="evenodd" d="M26.8227 9.82446C26.9862 11.2431 26.3971 12.6411 25.5362 13.6686C24.6379 14.6802 23.2007 15.454 21.8011 15.3543C21.6179 13.9892 22.327 12.5377 23.121 11.6521C24.0183 10.6471 25.5766 9.87711 26.8227 9.82446ZM31.4048 18.0081C31.2493 18.0967 28.6599 19.5714 28.6883 22.5791C28.7207 26.2108 32.0166 27.4113 32.057 27.4245C32.0373 27.5092 31.5408 29.1572 30.3046 30.8306C29.2724 32.3038 28.1909 33.744 26.473 33.7704C25.6563 33.7884 25.1048 33.5642 24.5302 33.3306C23.9308 33.087 23.3062 32.8331 22.3291 32.8331C21.2931 32.8331 20.6407 33.0951 20.0115 33.3478C19.4676 33.5663 18.941 33.7778 18.1989 33.8071C16.5627 33.8644 15.3128 32.2343 14.2431 30.7742C12.1046 27.7931 10.44 22.3732 12.6719 18.6851C13.7536 16.8764 15.7255 15.7115 17.8335 15.6804C18.7617 15.6623 19.652 16.0037 20.4324 16.3031C21.0293 16.5319 21.5619 16.7362 21.9981 16.7362C22.3812 16.7362 22.8989 16.5401 23.5022 16.3116C24.453 15.9514 25.6166 15.5106 26.8019 15.6297C27.6126 15.6522 29.9195 15.9352 31.4079 18.0064L31.4048 18.0081ZM51.8528 33.5974H49.6158L48.3904 29.9224H44.1312L42.9641 33.5974H40.7862L45.0059 21.0862H47.6123L51.8528 33.5974ZM48.0211 28.3807L46.9129 25.1137C46.7957 24.78 46.5761 23.994 46.252 22.7567H46.2127C46.0835 23.2889 45.8757 24.0749 45.59 25.1137L44.5017 28.3807H48.0211ZM61.4015 32.6129C62.2702 31.7226 62.7047 30.5099 62.7047 28.9756C62.7047 27.602 62.3323 26.4946 61.5856 25.6523C60.841 24.8109 59.9101 24.3906 58.7952 24.3906C57.3688 24.3906 56.306 24.9284 55.6056 26.0057H55.5662L55.449 24.5758H53.6021C53.6534 25.5911 53.68 26.5811 53.68 27.5457V37.2732H55.78V32.5208H55.8194C56.3641 33.3744 57.2585 33.8012 58.5035 33.8012C59.657 33.8012 60.6233 33.4055 61.4015 32.6129ZM59.9427 26.8773C60.3583 27.4469 60.5652 28.1709 60.5652 29.0489C60.5652 30.0022 60.3446 30.7694 59.9033 31.3513C59.463 31.9322 58.8473 32.2238 58.0564 32.2238C57.3826 32.2238 56.835 31.998 56.4133 31.5458C55.9917 31.0937 55.781 30.54 55.781 29.8837V28.3795C55.781 28.2197 55.8134 28.0166 55.8785 27.7685C56.0075 27.2364 56.2834 26.8067 56.705 26.4777C57.1255 26.1514 57.5963 25.9859 58.1145 25.9859C58.8789 25.9859 59.4886 26.283 59.9427 26.8773ZM73.576 28.9756C73.576 30.5099 73.1417 31.7226 72.272 32.6129C71.4947 33.4055 70.5284 33.8012 69.375 33.8012C68.13 33.8012 67.2356 33.3744 66.6918 32.5208H66.6525V37.2732H64.5524V27.5457C64.5524 26.5811 64.5258 25.5911 64.4746 24.5758H66.3215L66.4387 26.0057H66.4782C67.1774 24.9284 68.2403 24.3906 69.6676 24.3906C70.7816 24.3906 71.7125 24.8109 72.459 25.6523C73.2028 26.4946 73.576 27.602 73.576 28.9756ZM71.4366 29.0489C71.4366 28.1709 71.2288 27.4469 70.8132 26.8773C70.359 26.283 69.7513 25.9859 68.986 25.9859C68.4668 25.9859 67.997 26.1514 67.5754 26.4777C67.1539 26.8067 66.879 27.2364 66.75 27.7685C66.686 28.0166 66.6525 28.2197 66.6525 28.3795V29.8837C66.6525 30.54 66.8632 31.0937 67.2829 31.5458C67.7045 31.9972 68.2522 32.2238 68.9278 32.2238C69.7188 32.2238 70.3345 31.9322 70.7748 31.3513C71.2161 30.7694 71.4366 30.0022 71.4366 29.0489ZM84.5669 32.6873C85.3441 32.019 85.7312 31.153 85.7312 30.0888C85.7312 29.2239 85.4663 28.499 84.9353 27.92C84.4025 27.339 83.5741 26.8323 82.4463 26.3988C81.5242 26.0519 80.8888 25.7304 80.5392 25.4334C80.1373 25.1119 79.9374 24.7028 79.9374 24.2083C79.9374 23.7618 80.1127 23.3848 80.4624 23.0755C80.8761 22.7295 81.4533 22.5556 82.192 22.5556C83.1268 22.5556 83.9621 22.7474 84.7009 23.1309L85.2259 21.497C84.4349 21.1012 83.444 20.9028 82.2512 20.9028C80.9135 20.9028 79.8438 21.231 79.0421 21.8881C78.2372 22.5443 77.8354 23.3876 77.8354 24.4161C77.8354 25.9899 78.9819 27.1867 81.277 28.0037C82.1201 28.3016 82.7239 28.6241 83.0854 28.971C83.449 29.3179 83.6302 29.7457 83.6302 30.2534C83.6302 30.8231 83.4106 31.28 82.9703 31.6203C82.528 31.9607 81.9123 32.1317 81.1213 32.1317C80.0191 32.1317 79.0076 31.8647 78.0855 31.3326L77.5989 33.0033C78.4549 33.5232 79.5857 33.7826 80.9962 33.7826C82.524 33.7826 83.7129 33.4179 84.5669 32.6873ZM92.6744 26.0802H90.3597V30.4602C90.3597 31.5744 90.7674 32.1309 91.585 32.1309C91.9603 32.1309 92.2716 32.0998 92.5179 32.0378L92.5759 33.5599C92.1622 33.7075 91.6176 33.7817 90.9428 33.7817C90.1135 33.7817 89.4653 33.5401 88.9974 33.0578C88.5315 32.5747 88.2971 31.7642 88.2971 30.6258V26.0783H86.9181V24.5742H88.2971V22.9224L90.3597 22.3281V24.5742H92.6744V26.0802ZM101.874 32.4278C102.703 31.5375 103.119 30.399 103.119 29.0123C103.119 27.6633 102.717 26.5623 101.911 25.7096C101.069 24.8306 99.9528 24.3916 98.566 24.3916C97.1269 24.3916 95.9824 24.8373 95.1342 25.7285C94.2842 26.6188 93.8606 27.7638 93.8606 29.1618C93.8606 30.4977 94.2724 31.6062 95.0958 32.4842C95.9193 33.3623 97.0235 33.8013 98.4104 33.8013C99.8495 33.8013 101.004 33.3444 101.874 32.4278ZM100.376 26.9365C100.754 27.5317 100.94 28.2452 100.94 29.0772C100.94 29.9083 100.745 30.6293 100.358 31.2358C99.9036 31.9672 99.2742 32.3338 98.4724 32.3338C97.6539 32.3338 97.0196 31.9747 96.5654 31.2545C96.1881 30.6604 96.002 29.9468 96.002 29.1148C96.002 28.2574 96.1881 27.5325 96.5654 26.9365C97.0057 26.2173 97.6469 25.8573 98.4911 25.8573C99.3068 25.8573 99.9362 26.2164 100.376 26.9365ZM109.945 26.3385C109.737 26.3019 109.515 26.283 109.283 26.283C108.544 26.283 107.973 26.5491 107.571 27.0821C107.221 27.5522 107.046 28.1463 107.046 28.8637V33.5973H104.947L104.966 27.4168C104.966 26.3771 104.94 25.4303 104.888 24.5767H106.717L106.794 26.3028H106.852C107.073 25.7096 107.423 25.232 107.902 24.8738C108.37 24.5513 108.875 24.3906 109.42 24.3906C109.614 24.3906 109.789 24.4037 109.945 24.4272V26.3385ZM119.26 29.5689C119.313 29.3217 119.336 29.0189 119.336 28.6598C119.336 27.5345 119.058 26.5869 118.503 25.8206C117.803 24.8561 116.771 24.3738 115.41 24.3738C114.023 24.3738 112.921 24.8561 112.105 25.8206C111.326 26.7242 110.937 27.857 110.937 29.2174C110.937 30.6031 111.355 31.7078 112.19 32.5303C113.028 33.3529 114.178 33.7647 115.645 33.7647C116.863 33.7647 117.919 33.5795 118.812 33.2072L118.483 31.8159C117.718 32.1007 116.867 32.2427 115.934 32.2427C115.091 32.2427 114.405 32.032 113.874 31.6118C113.289 31.1417 112.985 30.4601 112.96 29.5689H119.26ZM116.927 26.5991C117.211 27.0324 117.348 27.5458 117.334 28.1399L112.96 28.139C113.023 27.5336 113.232 27.0137 113.581 26.5802C114.008 26.035 114.566 25.7633 115.253 25.7633C116.004 25.7633 116.563 26.0416 116.927 26.5991Z" fill="white"/>
</svg>
