<svg width="295" height="215" viewBox="0 0 295 215" fill="none" xmlns="http://www.w3.org/2000/svg">
<g clip-path="url(#clip0_23_2207)">
<path d="M226.302 156.541L219.974 132.618C215.107 114.259 198.558 101.463 179.576 101.463V156.472H226.302V156.541Z" fill="white"/>
<path d="M288.673 70.0298H269.76C266.304 70.0298 263.502 72.832 263.502 76.2886V126.846C263.502 130.303 266.304 133.105 269.76 133.105H288.673C292.129 133.105 294.93 130.303 294.93 126.846V76.2886C294.93 72.832 292.129 70.0298 288.673 70.0298Z" fill="#5A78FF"/>
<path d="M290.202 121.491L268.299 268.783H206.416V156.611H226.302L245.562 236.029L270.177 147.014C273.167 136.165 280.398 126.985 290.133 121.491H290.202Z" fill="#D4E3FA"/>
<g style="mix-blend-mode:multiply" opacity="0.5">
<path d="M226.302 156.541L219.974 132.618C215.107 114.259 198.558 101.463 179.576 101.463V156.472H226.302V156.541Z" fill="#5A78FF"/>
</g>
<path d="M20.416 154.872H56.9206L39.607 314.334H206.416V129.489C206.416 113.911 193.761 101.254 178.185 101.254H73.9561C44.3352 101.254 20.3465 125.247 20.3465 154.872H20.416Z" fill="#5A78FF"/>
<path d="M123.046 140.546C144.74 140.546 162.332 122.952 162.332 101.254H83.7601C83.7601 122.952 101.352 140.546 123.046 140.546Z" fill="#D4E3FA"/>
<path d="M123.046 43.812C135.143 43.812 144.949 34.0044 144.949 21.906C144.949 9.80765 135.143 0 123.046 0C110.95 0 101.143 9.80765 101.143 21.906C101.143 34.0044 110.95 43.812 123.046 43.812Z" fill="#5A78FF"/>
<path d="M123.046 98.5423C138.215 98.5423 150.511 86.2438 150.511 71.0728C150.511 55.9019 138.215 43.6034 123.046 43.6034C107.877 43.6034 95.5807 55.9019 95.5807 71.0728C95.5807 86.2438 107.877 98.5423 123.046 98.5423Z" fill="#5A78FF"/>
<path d="M144.949 21.906L149.955 65.5094H96.137L101.143 21.906H144.949Z" fill="#5A78FF"/>
<path d="M137.161 48.9583H109V101.463H137.161V48.9583Z" fill="#D4E3FA"/>
<g style="mix-blend-mode:multiply">
<path d="M137.161 48.9583H109V101.463H137.161V48.9583Z" fill="url(#paint0_linear_23_2207)"/>
</g>
<path d="M109 19.4025H137.161V51.4617C137.161 59.2505 130.834 65.5094 123.116 65.5094C115.328 65.5094 109.07 59.181 109.07 51.4617V19.4025H109Z" fill="#D4E3FA"/>
<path d="M103.646 36.4404H114.424C127.566 36.4404 138.135 25.8004 138.135 12.7263H103.646V36.4404Z" fill="#5A78FF"/>
<path d="M98.2229 30.1816C104.175 30.1816 109 25.3556 109 19.4024C109 13.4493 104.175 8.62329 98.2229 8.62329C92.2706 8.62329 87.4454 13.4493 87.4454 19.4024C87.4454 25.3556 92.2706 30.1816 98.2229 30.1816Z" fill="#5A78FF"/>
<path d="M147.939 30.1816C153.891 30.1816 158.716 25.3556 158.716 19.4024C158.716 13.4493 153.891 8.62329 147.939 8.62329C141.986 8.62329 137.161 13.4493 137.161 19.4024C137.161 25.3556 141.986 30.1816 147.939 30.1816Z" fill="#5A78FF"/>
<path d="M18.4691 301.747L70.9662 345.35C79.5882 352.513 90.783 355.99 101.908 354.877L26.6044 274.903L56.8511 154.872H20.416L-0.0960693 286.308L18.4691 301.747Z" fill="#D4E3FA"/>
<path d="M286.517 96.3865C284.083 96.3865 282.067 98.0555 281.58 100.35H276.922C276.435 98.0555 274.418 96.3865 271.985 96.3865C269.203 96.3865 266.909 98.6814 266.909 101.463C266.909 104.245 269.203 106.54 271.985 106.54C274.418 106.54 276.435 104.871 276.922 102.576H281.58C282.067 104.871 284.083 106.54 286.517 106.54C289.298 106.54 291.593 104.245 291.593 101.463C291.593 98.6814 289.298 96.3865 286.517 96.3865ZM272.054 104.314C270.455 104.314 269.203 102.993 269.203 101.463C269.203 99.9332 270.525 98.6119 272.054 98.6119C273.584 98.6119 274.905 99.9332 274.905 101.463C274.905 102.993 273.584 104.314 272.054 104.314ZM286.517 104.314C284.918 104.314 283.666 102.993 283.666 101.463C283.666 99.9332 284.987 98.6119 286.517 98.6119C288.047 98.6119 289.368 99.9332 289.368 101.463C289.368 102.993 288.047 104.314 286.517 104.314Z" fill="white"/>
</g>
<defs>
<linearGradient id="paint0_linear_23_2207" x1="123.116" y1="91.3794" x2="123.116" y2="57.3034" gradientUnits="userSpaceOnUse">
<stop offset="0.25" stop-color="white"/>
<stop offset="1" stop-color="#A0C1F4"/>
</linearGradient>
<clipPath id="clip0_23_2207">
<rect width="295" height="215" fill="white"/>
</clipPath>
</defs>
</svg>
