<svg width="44" height="44" viewBox="0 0 44 44" fill="none" xmlns="http://www.w3.org/2000/svg">
<circle cx="22" cy="22" r="22" fill="#3C3246"/>
<mask id="mask0_23_2301" style="mask-type:alpha" maskUnits="userSpaceOnUse" x="10" y="10" width="24" height="24">
<rect x="10" y="10" width="24" height="24" fill="#D9D9D9"/>
</mask>
<g mask="url(#mask0_23_2301)">
<path d="M16 29C15.1667 29 14.4583 28.7083 13.875 28.125C13.2917 27.5417 13 26.8333 13 26H11V17C11 16.45 11.1958 15.9792 11.5875 15.5875C11.9792 15.1958 12.45 15 13 15H27L33 21V26H31C31 26.8333 30.7083 27.5417 30.125 28.125C29.5417 28.7083 28.8333 29 28 29C27.1667 29 26.4583 28.7083 25.875 28.125C25.2917 27.5417 25 26.8333 25 26H19C19 26.8333 18.7083 27.5417 18.125 28.125C17.5417 28.7083 16.8333 29 16 29ZM25 20H29L26 17H25V20ZM19 20H23V17H19V20ZM13 20H17V17H13V20ZM16 27.25C16.35 27.25 16.6458 27.1292 16.8875 26.8875C17.1292 26.6458 17.25 26.35 17.25 26C17.25 25.65 17.1292 25.3542 16.8875 25.1125C16.6458 24.8708 16.35 24.75 16 24.75C15.65 24.75 15.3542 24.8708 15.1125 25.1125C14.8708 25.3542 14.75 25.65 14.75 26C14.75 26.35 14.8708 26.6458 15.1125 26.8875C15.3542 27.1292 15.65 27.25 16 27.25ZM28 27.25C28.35 27.25 28.6458 27.1292 28.8875 26.8875C29.1292 26.6458 29.25 26.35 29.25 26C29.25 25.65 29.1292 25.3542 28.8875 25.1125C28.6458 24.8708 28.35 24.75 28 24.75C27.65 24.75 27.3542 24.8708 27.1125 25.1125C26.8708 25.3542 26.75 25.65 26.75 26C26.75 26.35 26.8708 26.6458 27.1125 26.8875C27.3542 27.1292 27.65 27.25 28 27.25ZM13 24H13.8C14.0833 23.7 14.4083 23.4583 14.775 23.275C15.1417 23.0917 15.55 23 16 23C16.45 23 16.8583 23.0917 17.225 23.275C17.5917 23.4583 17.9167 23.7 18.2 24H25.8C26.0833 23.7 26.4083 23.4583 26.775 23.275C27.1417 23.0917 27.55 23 28 23C28.45 23 28.8583 23.0917 29.225 23.275C29.5917 23.4583 29.9167 23.7 30.2 24H31V22H13V24Z" fill="#44FED6"/>
</g>
</svg>
