<svg width="44" height="44" viewBox="0 0 44 44" fill="none" xmlns="http://www.w3.org/2000/svg">
<circle cx="22" cy="22" r="22" fill="#3C3246"/>
<mask id="mask0_23_2300" style="mask-type:alpha" maskUnits="userSpaceOnUse" x="10" y="9" width="24" height="24">
<rect x="10" y="9" width="24" height="24" fill="#D9D9D9"/>
</mask>
<g mask="url(#mask0_23_2300)">
<path d="M32 15V27C32 27.55 31.8042 28.0208 31.4125 28.4125C31.0208 28.8042 30.55 29 30 29H14C13.45 29 12.9792 28.8042 12.5875 28.4125C12.1958 28.0208 12 27.55 12 27V15C12 14.45 12.1958 13.9792 12.5875 13.5875C12.9792 13.1958 13.45 13 14 13H30C30.55 13 31.0208 13.1958 31.4125 13.5875C31.8042 13.9792 32 14.45 32 15ZM14 17H30V15H14V17ZM14 21V27H30V21H14Z" fill="#44FED6"/>
</g>
</svg>
