<svg width="22" height="19" viewBox="0 0 22 19" fill="none" xmlns="http://www.w3.org/2000/svg">
<path id="stacked_email" d="M6 14.5C5.45 14.5 4.97917 14.3042 4.5875 13.9125C4.19583 13.5208 4 13.05 4 12.5V2.5C4 1.95 4.19583 1.47917 4.5875 1.0875C4.97917 0.695833 5.45 0.5 6 0.5H20C20.55 0.5 21.0208 0.695833 21.4125 1.0875C21.8042 1.47917 22 1.95 22 2.5V12.5C22 13.05 21.8042 13.5208 21.4125 13.9125C21.0208 14.3042 20.55 14.5 20 14.5H6ZM13 9.8L6 4.925V12.5H20V4.925L13 9.8ZM13 7.35L20 2.5H6L13 7.35ZM2 18.5C1.45 18.5 0.979167 18.3042 0.5875 17.9125C0.195833 17.5208 0 17.05 0 16.5V4H2V16.5H18.5V18.5H2Z" fill="#44FED6"/>
</svg>
