<svg width="815" height="609" viewBox="0 0 815 609" fill="none" xmlns="http://www.w3.org/2000/svg">
<g clip-path="url(#clip0_1_1118)">
<path d="M586.591 532.673H210.588C186.648 504.201 167.475 470.169 155.169 431.798C109.191 288.421 176.418 138.718 305.315 97.453C434.22 56.1804 575.99 138.962 621.969 282.348C651.008 372.914 634.89 465.996 586.591 532.681V532.673Z" fill="#CCDDFF"/>
<path d="M629.412 590.429C665.989 601.739 709.252 586.383 730.138 554.323C762.768 504.232 732.553 435.939 676.274 420.725C615.173 404.202 556.431 454.489 566.834 517.514C572.304 550.647 597.113 580.444 629.404 590.429H629.412Z" fill="#E6F0FF"/>
<path d="M2.14301 533.02H725.646" stroke="#180344" stroke-width="3" stroke-miterlimit="10"/>
<path d="M751.254 407.451C777.261 381.464 777.261 339.332 751.254 313.345C725.247 287.359 683.081 287.359 657.074 313.346C631.067 339.332 631.067 381.464 657.074 407.451C683.081 433.437 725.247 433.437 751.254 407.451Z" fill="#45FDD6"/>
<path d="M767.707 314.487C776.168 294.076 766.467 270.676 746.04 262.221C725.613 253.767 702.194 263.459 693.732 283.871C685.271 304.282 694.971 327.682 715.399 336.137C735.826 344.591 759.245 334.899 767.707 314.487Z" fill="#45FDD6"/>
<path d="M675.351 373.151L704.161 401.938" stroke="#180344" stroke-width="3" stroke-miterlimit="10"/>
<path d="M732.806 353.394L703.995 382.181" stroke="#180344" stroke-width="3" stroke-miterlimit="10"/>
<path d="M703.995 532.933V320.678" stroke="#180344" stroke-width="3" stroke-miterlimit="10"/>
<path d="M81.5543 318.687C103.388 315.204 118.263 294.694 114.777 272.878C111.292 251.061 90.7661 236.198 68.9321 239.681C47.0981 243.164 32.2237 263.673 35.7092 285.49C39.1947 307.307 59.7203 322.169 81.5543 318.687Z" fill="#45FDD6"/>
<path d="M122.525 407.45C148.533 381.463 148.533 339.331 122.525 313.344C96.5184 287.358 54.3525 287.358 28.3454 313.344C2.3383 339.331 2.3383 381.463 28.3454 407.45C54.3525 433.436 96.5184 433.436 122.525 407.45Z" fill="#45FDD6"/>
<path d="M46.6215 373.151L75.4319 401.938" stroke="#180344" stroke-width="3" stroke-miterlimit="10"/>
<path d="M104.076 353.394L75.2661 382.181" stroke="#180344" stroke-width="3" stroke-miterlimit="10"/>
<path d="M75.2661 532.933V320.678" stroke="#180344" stroke-width="3" stroke-miterlimit="10"/>
<path d="M143.322 423.817C117.645 423.817 96.8305 448.266 96.8305 478.418C96.8305 508.57 117.645 533.02 143.322 533.02H176.821V423.817H143.322Z" fill="#180344"/>
<path d="M176.821 533.02C202.497 533.02 223.312 508.574 223.312 478.418C223.312 448.263 202.497 423.817 176.821 423.817C151.144 423.817 130.329 448.263 130.329 478.418C130.329 508.574 151.144 533.02 176.821 533.02Z" fill="#200875"/>
<path d="M472.849 461.722L471.428 487.678C471.152 492.702 468.871 497.229 465.406 500.518C461.949 503.807 457.3 505.834 452.295 505.834C452.295 505.834 464.001 420.662 405.836 420.662C347.67 420.662 349.265 505.834 349.265 505.834H83.6093C72.2667 505.834 63.6236 496.543 64.405 485.193L66.7809 451.09C66.844 450.222 66.9309 449.355 67.0098 448.471C67.2387 446.295 67.586 444.07 68.0438 441.815C68.4542 439.725 68.9436 437.579 69.5356 435.434C69.6856 434.874 69.8435 434.338 70.0092 433.786C72.4324 425.576 76.2291 417.018 81.6123 408.563C82.378 407.357 83.1673 406.158 84.0197 404.951C91.7946 393.665 102.466 382.654 116.445 373.024L201.124 288.547C210.406 278.751 223.241 273.136 236.367 273.136H461.696C462.596 273.136 445.689 386.764 455.066 399.438C468.129 417.073 474.073 439.204 472.841 461.722H472.849Z" fill="#5A78FF"/>
<path d="M347.978 414.376H436.169L431.157 505.833H342.95L347.978 414.376Z" fill="#180344"/>
<path d="M592.787 414.376H667.039L656.573 505.833H587.799L592.787 414.376Z" fill="#180344"/>
<path d="M649.911 401.142L662.058 443.487C669.439 444.252 675.595 437.154 673.709 430.047L670.725 418.808C668.152 409.123 659.983 402.183 649.919 401.142H649.911Z" fill="#D57397"/>
<path d="M342.177 423.817C316.5 423.817 295.685 448.266 295.685 478.418C295.685 508.57 316.5 533.02 342.177 533.02H375.675V423.817H342.177Z" fill="#180344"/>
<path d="M375.675 533.02C401.352 533.02 422.167 508.574 422.167 478.418C422.167 448.263 401.352 423.817 375.675 423.817C349.999 423.817 329.184 448.263 329.184 478.418C329.184 508.574 349.999 533.02 375.675 533.02Z" fill="#200875"/>
<path d="M375.675 438.92C372.858 438.92 370.119 439.33 367.498 440.103C357.782 442.958 349.715 450.814 345.405 461.193C345.405 461.201 345.397 461.201 345.397 461.209C343.25 466.406 342.042 472.251 342.042 478.418C342.042 482.788 342.642 486.991 343.763 490.927C343.763 490.927 343.766 490.932 343.771 490.943C345.018 495.328 346.905 499.374 349.312 502.923C349.991 503.94 350.717 504.911 351.475 505.841C357.6 513.287 366.188 517.924 375.675 517.924C385.163 517.924 393.751 513.287 399.868 505.841C405.709 498.727 409.309 489.066 409.309 478.418C409.309 456.642 394.225 438.92 375.675 438.92ZM405.109 479.459C405.117 479.704 405.102 479.956 405.086 480.201C405.078 480.492 405.062 480.784 405.038 481.076C405.031 481.352 405.007 481.628 404.975 481.904C404.952 482.212 404.92 482.519 404.888 482.827C404.865 483.119 404.833 483.403 404.786 483.687C404.715 484.262 404.628 484.83 404.525 485.39C404.486 485.619 404.446 485.84 404.407 486.069C404.32 486.526 404.225 486.983 404.115 487.433C404.115 487.465 404.099 487.496 404.091 487.528C404.036 487.804 403.973 488.08 403.894 488.348C403.807 488.719 403.712 489.081 403.602 489.436C403.515 489.736 403.428 490.028 403.341 490.32C403.191 490.793 403.041 491.258 402.868 491.716C402.852 491.779 402.828 491.834 402.813 491.881C402.663 492.299 402.505 492.717 402.339 493.127C402.299 493.222 402.268 493.317 402.228 493.411C402.047 493.845 401.873 494.263 401.676 494.673C401.644 494.752 401.605 494.831 401.573 494.91C401.344 495.399 401.115 495.88 400.863 496.353C400.681 496.708 400.5 497.047 400.302 497.386C400.239 497.505 400.168 497.631 400.097 497.749H400.105C400.105 497.749 400.105 497.765 400.097 497.765C399.876 498.151 399.647 498.53 399.411 498.901C399.174 499.271 398.929 499.642 398.684 500.005C397.2 502.174 395.503 504.13 393.625 505.841H393.617C392.52 506.827 391.367 507.726 390.167 508.531C389.962 508.665 389.765 508.799 389.56 508.925C389.157 509.185 388.747 509.43 388.321 509.666C388.115 509.777 387.902 509.895 387.689 510.006C386.418 510.676 385.1 511.244 383.734 511.701C383.269 511.859 382.795 512.001 382.322 512.127C382.037 512.206 381.745 512.277 381.445 512.348C381.256 512.395 381.067 512.435 380.877 512.474C380.64 512.522 380.404 512.569 380.159 512.608C379.969 512.648 379.772 512.679 379.575 512.711C379.441 512.727 379.306 512.75 379.172 512.766C379.006 512.798 378.849 512.821 378.683 512.837C378.438 512.861 378.186 512.892 377.941 512.908C377.191 512.979 376.441 513.011 375.675 513.011C374.91 513.011 374.16 512.979 373.41 512.908C373.158 512.892 372.913 512.861 372.668 512.837C372.502 512.821 372.345 512.798 372.179 512.766C372.045 512.75 371.91 512.727 371.776 512.711C371.579 512.679 371.382 512.648 371.192 512.608C370.947 512.569 370.711 512.522 370.474 512.474C370.284 512.435 370.095 512.395 369.906 512.348C369.542 512.261 369.179 512.167 368.824 512.072C368.485 511.977 368.161 511.883 367.838 511.772C367.53 511.67 367.222 511.567 366.914 511.457C366.488 511.299 366.061 511.133 365.643 510.952C365.383 510.842 365.13 510.731 364.878 510.613C364.033 510.219 363.212 509.777 362.407 509.304C360.757 508.318 359.194 507.158 357.734 505.841C355.224 503.562 353.038 500.841 351.254 497.765H351.246C351.246 497.765 351.254 497.757 351.254 497.749C351.009 497.315 350.764 496.874 350.528 496.44C350.512 496.408 350.496 496.385 350.488 496.353C350.37 496.117 350.251 495.88 350.133 495.651C350.125 495.651 350.125 495.643 350.125 495.635C350.015 495.399 349.904 495.17 349.801 494.941C349.801 494.941 349.801 494.934 349.793 494.934C349.793 494.934 349.786 494.91 349.778 494.91C349.77 494.91 349.778 494.902 349.778 494.902C349.549 494.405 349.336 493.916 349.123 493.419C348.688 492.362 348.302 491.274 347.962 490.154C347.844 489.791 347.741 489.421 347.639 489.05C347.607 488.939 347.576 488.821 347.544 488.703C347.441 488.316 347.347 487.922 347.26 487.528C347.244 487.496 347.236 487.465 347.236 487.433C347.126 486.968 347.023 486.494 346.936 486.021C346.849 485.58 346.77 485.13 346.699 484.68C346.684 484.594 346.676 484.507 346.66 484.412C346.597 484.01 346.541 483.6 346.494 483.19C346.478 483.072 346.47 482.945 346.455 482.827C346.407 482.401 346.368 481.967 346.336 481.534V481.502C346.297 480.997 346.265 480.492 346.249 479.98C346.226 479.451 346.218 478.939 346.218 478.418C346.218 477.898 346.226 477.377 346.249 476.864C346.265 476.352 346.297 475.839 346.336 475.334V475.303C346.376 474.814 346.423 474.317 346.478 473.836C346.478 473.804 346.478 473.773 346.486 473.733C346.542 473.252 346.605 472.771 346.676 472.298C346.755 471.801 346.841 471.312 346.936 470.823C347.023 470.334 347.126 469.845 347.244 469.364C347.339 468.954 347.433 468.544 347.544 468.134C347.568 468.039 347.591 467.952 347.615 467.865C347.741 467.416 347.868 466.966 348.01 466.525C348.333 465.468 348.712 464.427 349.123 463.425C349.336 462.928 349.549 462.431 349.778 461.942C349.912 461.635 350.054 461.327 350.212 461.027C350.417 460.601 350.654 460.183 350.875 459.773C351.001 459.545 351.12 459.316 351.254 459.087H351.246L351.254 459.079C354.166 454.04 358.184 449.938 362.888 447.265C363.978 446.641 365.106 446.097 366.267 445.64C366.338 445.608 366.409 445.585 366.48 445.553C366.819 445.419 367.159 445.301 367.506 445.182C367.774 445.088 368.043 444.993 368.311 444.914C369.021 444.701 369.74 444.52 370.474 444.37C370.837 444.291 371.2 444.22 371.571 444.165C371.934 444.102 372.297 444.055 372.668 444.007C373.158 443.944 373.655 443.897 374.16 443.873C374.665 443.842 375.17 443.826 375.675 443.826C376.181 443.826 376.686 443.842 377.191 443.873C377.696 443.897 378.193 443.944 378.683 444.007C379.054 444.055 379.417 444.102 379.78 444.165C380.151 444.22 380.514 444.291 380.877 444.37C381.611 444.52 382.33 444.701 383.032 444.914C383.474 445.048 383.908 445.214 384.35 445.372C384.626 445.474 384.911 445.569 385.187 445.679C385.739 445.9 386.284 446.137 386.821 446.397C387.018 446.5 387.223 446.594 387.421 446.697C387.618 446.799 387.815 446.902 388.013 447.012C388.21 447.115 388.399 447.225 388.597 447.336C388.786 447.446 388.984 447.564 389.173 447.675C391.28 448.96 393.238 450.53 395.006 452.336C395.653 452.998 396.269 453.692 396.869 454.41C397.161 454.773 397.453 455.144 397.737 455.514C398.021 455.893 398.298 456.272 398.566 456.666C398.803 457.013 399.039 457.36 399.276 457.723C399.3 457.77 399.332 457.81 399.363 457.857C399.608 458.259 399.86 458.669 400.097 459.079C400.097 459.079 400.097 459.082 400.097 459.087C400.673 460.081 401.194 461.106 401.676 462.171C401.873 462.581 402.047 462.999 402.228 463.425C402.457 464.001 402.678 464.577 402.884 465.16C403.049 465.61 403.199 466.067 403.341 466.525C403.428 466.816 403.515 467.116 403.602 467.416C403.673 467.652 403.744 467.897 403.799 468.134C403.823 468.228 403.846 468.315 403.87 468.41C403.957 468.725 404.036 469.041 404.107 469.364C404.218 469.829 404.32 470.302 404.407 470.784C404.454 471.02 404.494 471.257 404.533 471.493C404.636 472.038 404.723 472.59 404.786 473.15C404.833 473.434 404.865 473.718 404.888 474.009C404.92 474.317 404.952 474.625 404.983 474.94C405.007 475.216 405.031 475.484 405.038 475.76C405.062 476.052 405.078 476.344 405.086 476.636C405.102 476.88 405.117 477.117 405.109 477.369C405.117 477.488 405.117 477.606 405.117 477.732C405.133 477.961 405.133 478.189 405.133 478.418C405.133 478.647 405.133 478.884 405.117 479.112C405.117 479.231 405.117 479.349 405.109 479.459Z" fill="#180344"/>
<path d="M375.675 513.011C391.944 513.011 405.133 497.523 405.133 478.418C405.133 459.313 391.944 443.826 375.675 443.826C359.406 443.826 346.218 459.313 346.218 478.418C346.218 497.523 359.406 513.011 375.675 513.011Z" fill="#200875"/>
<path d="M375.675 457.589C365.896 457.589 357.931 466.935 357.931 478.418C357.931 489.902 365.896 499.256 375.675 499.256C385.455 499.256 393.419 489.909 393.419 478.418C393.419 466.927 385.455 457.589 375.675 457.589ZM375.675 494.35C368.193 494.35 362.115 487.196 362.115 478.418C362.115 469.64 368.193 462.494 375.675 462.494C383.158 462.494 389.236 469.64 389.236 478.418C389.236 487.196 383.15 494.35 375.675 494.35Z" fill="#180344"/>
<path d="M574.625 423.817C548.948 423.817 528.134 448.266 528.134 478.418C528.134 508.57 548.948 533.02 574.625 533.02H608.124V423.817H574.625Z" fill="#180344"/>
<path d="M608.116 533.02C633.792 533.02 654.607 508.574 654.607 478.418C654.607 448.263 633.792 423.817 608.116 423.817C582.44 423.817 561.625 448.263 561.625 478.418C561.625 508.574 582.44 533.02 608.116 533.02Z" fill="#200875"/>
<path d="M627.226 445.932C621.795 441.515 615.212 438.92 608.116 438.92C601.936 438.92 596.142 440.884 591.153 444.331C581.192 451.184 574.483 463.898 574.483 478.418C574.483 495.919 584.223 510.794 597.673 515.976H597.681C600.965 517.238 604.477 517.924 608.116 517.924C617.604 517.924 626.191 513.287 632.309 505.841C638.15 498.727 641.749 489.066 641.749 478.418C641.749 464.963 635.995 453.069 627.226 445.932ZM637.542 479.98C637.526 480.492 637.495 480.997 637.455 481.502V481.534C637.424 481.967 637.384 482.401 637.337 482.827C637.321 482.945 637.313 483.072 637.297 483.19C637.25 483.6 637.195 484.01 637.132 484.412C637.116 484.507 637.108 484.594 637.092 484.68C637.021 485.13 636.942 485.58 636.855 486.021C636.768 486.494 636.666 486.968 636.555 487.433C636.555 487.465 636.547 487.496 636.532 487.528C636.445 487.922 636.35 488.316 636.247 488.703C636.216 488.821 636.184 488.939 636.153 489.05C636.05 489.421 635.948 489.791 635.829 490.154C635.719 490.533 635.6 490.903 635.474 491.266C635.229 491.992 634.961 492.709 634.669 493.411C634.464 493.916 634.243 494.413 634.014 494.91C633.674 495.643 633.311 496.361 632.932 497.063C632.806 497.292 632.68 497.52 632.538 497.749C632.538 497.757 632.546 497.765 632.546 497.765H632.538C630.754 500.841 628.567 503.562 626.057 505.841C624.597 507.158 623.034 508.318 621.384 509.304C620.579 509.777 619.758 510.219 618.914 510.613C618.661 510.731 618.409 510.842 618.148 510.952C617.73 511.133 617.304 511.299 616.877 511.457C616.585 511.559 616.301 511.662 616.009 511.757C615.599 511.891 615.188 512.017 614.77 512.127C614.478 512.206 614.186 512.277 613.886 512.348C613.696 512.395 613.507 512.435 613.318 512.474C613.081 512.522 612.844 512.569 612.599 512.608C612.41 512.648 612.213 512.679 612.015 512.711C611.881 512.727 611.747 512.75 611.613 512.766C611.447 512.798 611.289 512.821 611.123 512.837C610.879 512.861 610.626 512.892 610.381 512.908C609.631 512.979 608.882 513.011 608.116 513.011C607.35 513.011 606.6 512.979 605.851 512.908C605.598 512.892 605.353 512.861 605.109 512.837C604.943 512.821 604.785 512.798 604.619 512.766C604.485 512.75 604.351 512.727 604.217 512.711C604.019 512.679 603.822 512.648 603.633 512.608C603.388 512.569 603.151 512.522 602.914 512.474C602.749 512.435 602.583 512.403 602.417 512.364C601.659 512.19 600.917 511.985 600.191 511.749C599.907 511.654 599.631 511.559 599.362 511.457C599.023 511.331 598.676 511.189 598.336 511.055C597.997 510.913 597.665 510.763 597.326 510.613C597.326 510.613 597.323 510.613 597.318 510.613C597.097 510.51 596.876 510.4 596.655 510.29C596.473 510.203 596.292 510.108 596.11 510.013C595.542 509.722 594.997 509.406 594.461 509.067C593.561 508.515 592.685 507.9 591.84 507.245C591.272 506.796 590.719 506.33 590.175 505.841C589.977 505.668 589.788 505.494 589.598 505.305C589.22 504.934 588.841 504.564 588.47 504.169C588.288 503.98 588.114 503.791 587.933 503.593V503.578C586.694 502.213 585.565 500.723 584.531 499.122V499.106C584.247 498.664 583.986 498.215 583.71 497.765V497.749C583.584 497.52 583.45 497.292 583.323 497.063C583.189 496.826 583.063 496.59 582.944 496.353C582.7 495.872 582.463 495.391 582.234 494.91C582.052 494.508 581.879 494.105 581.713 493.711C581.563 493.364 581.421 493.009 581.279 492.654C581.232 492.512 581.176 492.37 581.129 492.228C581.058 492.047 580.987 491.85 580.916 491.66C580.782 491.29 580.655 490.903 580.537 490.517C580.387 490.052 580.245 489.578 580.119 489.097C580.079 488.971 580.04 488.837 580.008 488.703C579.961 488.545 579.913 488.379 579.874 488.214C579.858 488.135 579.834 488.056 579.819 487.977C579.613 487.125 579.432 486.266 579.282 485.39C579.227 485.106 579.179 484.822 579.14 484.538C579.092 484.255 579.053 483.971 579.021 483.687C578.982 483.387 578.95 483.087 578.919 482.788C578.879 482.512 578.848 482.228 578.832 481.952C578.729 480.792 578.674 479.609 578.674 478.418C578.674 477.227 578.729 476.044 578.832 474.885C578.864 474.569 578.895 474.262 578.927 473.946C578.95 473.678 578.982 473.418 579.021 473.15C579.053 472.866 579.092 472.582 579.14 472.298C579.179 472.014 579.227 471.73 579.282 471.446C579.432 470.586 579.606 469.735 579.811 468.906C579.827 468.812 579.85 468.717 579.874 468.623C579.913 468.457 579.961 468.299 580.008 468.134C580.048 467.984 580.087 467.834 580.126 467.692C580.308 467.037 580.505 466.391 580.726 465.752C580.782 465.554 580.853 465.365 580.916 465.176C581.082 464.695 581.263 464.222 581.453 463.756C582.1 462.124 582.858 460.562 583.71 459.079C583.986 458.63 584.247 458.18 584.531 457.739V457.723C584.76 457.376 584.981 457.037 585.218 456.705C585.446 456.366 585.691 456.035 585.928 455.704C586.907 454.394 587.964 453.172 589.085 452.052C589.654 451.492 590.23 450.956 590.83 450.443H590.838C592.329 449.157 593.932 448.038 595.621 447.107C595.897 446.949 596.181 446.799 596.473 446.649C596.758 446.507 597.042 446.365 597.334 446.231H597.342C597.531 446.145 597.713 446.066 597.902 445.987C598.17 445.869 598.439 445.758 598.707 445.648C598.928 445.561 599.149 445.466 599.378 445.387C599.954 445.175 600.538 444.985 601.13 444.812C601.422 444.733 601.722 444.646 602.022 444.575C602.322 444.504 602.622 444.433 602.922 444.37C602.922 444.37 602.925 444.37 602.93 444.37C603.293 444.291 603.656 444.22 604.027 444.165C604.39 444.102 604.753 444.055 605.124 444.007C605.614 443.944 606.111 443.897 606.616 443.873C607.121 443.842 607.627 443.826 608.132 443.826C608.637 443.826 609.142 443.842 609.647 443.873C610.152 443.897 610.65 443.944 611.139 444.007C611.51 444.055 611.873 444.102 612.236 444.165C612.607 444.22 612.97 444.291 613.333 444.37C614.067 444.52 614.786 444.701 615.496 444.914C615.772 445.001 616.041 445.096 616.309 445.19C616.696 445.324 617.083 445.458 617.462 445.608C617.501 445.624 617.54 445.64 617.572 445.656C620.603 446.862 623.397 448.637 625.899 450.853C628.481 453.156 630.722 455.94 632.546 459.079C632.68 459.316 632.814 459.545 632.94 459.773C633.201 460.247 633.445 460.72 633.674 461.201C634.156 462.171 634.59 463.165 634.977 464.19C635.174 464.703 635.363 465.215 635.537 465.736C635.624 465.996 635.711 466.264 635.79 466.525C635.932 466.966 636.058 467.416 636.184 467.865C636.208 467.952 636.232 468.039 636.255 468.134C636.366 468.544 636.461 468.954 636.555 469.364C636.674 469.845 636.776 470.334 636.863 470.823C636.958 471.312 637.045 471.801 637.124 472.298C637.195 472.771 637.258 473.252 637.313 473.733C637.321 473.773 637.321 473.804 637.321 473.836C637.376 474.317 637.424 474.814 637.463 475.303V475.334C637.503 475.839 637.534 476.352 637.55 476.864C637.574 477.377 637.581 477.898 637.581 478.418C637.581 478.939 637.574 479.451 637.55 479.972L637.542 479.98Z" fill="#180344"/>
<path d="M608.116 513.011C624.385 513.011 637.574 497.523 637.574 478.418C637.574 459.313 624.385 443.826 608.116 443.826C591.847 443.826 578.658 459.313 578.658 478.418C578.658 497.523 591.847 513.011 608.116 513.011Z" fill="#200875"/>
<path d="M621.542 464.829C621.542 464.829 621.542 464.821 621.534 464.821C618.29 460.396 613.483 457.589 608.116 457.589C598.336 457.589 590.38 466.935 590.38 478.418C590.38 489.902 597.744 498.546 607.019 499.208C607.382 499.24 607.745 499.256 608.116 499.256C617.904 499.256 625.86 489.909 625.86 478.418C625.86 473.236 624.226 468.481 621.542 464.829ZM609.474 494.271H609.458C609.016 494.326 608.566 494.35 608.116 494.35C600.633 494.35 594.555 487.196 594.555 478.418C594.555 469.64 600.633 462.494 608.116 462.494C612.986 462.494 617.28 465.531 619.664 470.097C619.664 470.105 619.664 470.105 619.664 470.113C620.935 472.527 621.669 475.382 621.669 478.418C621.669 486.668 616.301 493.474 609.466 494.271H609.474Z" fill="#180344"/>
<path d="M634.645 369.183L611.652 326.688L601.841 308.548C590.609 287.782 569.486 274.082 545.372 273.191C544.481 273.159 543.596 273.144 542.697 273.144H446.502C433.367 273.144 420.549 278.751 411.274 288.547L339.722 373.032C306.246 396.141 291.77 427.042 290.105 451.098L287.745 485.209C286.963 496.558 295.606 505.841 306.957 505.841H320.146C320.146 505.841 314.258 420.686 377.08 420.686C439.903 420.686 423.793 505.841 423.793 505.841H552.926C552.926 505.841 546.999 420.686 609.813 420.686C672.628 420.686 656.573 505.841 656.573 505.841C667.197 505.841 676.227 497 676.345 486.392C677.127 416.821 634.637 369.191 634.637 369.191L634.645 369.183Z" fill="#2E2EE5"/>
<path d="M425.308 299.754L390.231 338.117C381.777 347.368 376.757 359.151 376.086 371.344H624.858L591.548 312.153C583.931 298.626 569.613 290.385 553.708 290.385H446.21C438.372 290.385 430.731 293.807 425.3 299.746L425.308 299.754Z" fill="#180344"/>
<path d="M504.935 289.801L515.347 371.345" stroke="#2E2EE5" stroke-width="3" stroke-miterlimit="10"/>
<path d="M406.278 317.76L406.514 373.024" stroke="#2E2EE5" stroke-width="3" stroke-miterlimit="10"/>
<path d="M423.777 491.834H555.61" stroke="#180344" stroke-width="3" stroke-miterlimit="10"/>
<path d="M339.714 373.024H116.445L201.132 288.539H411.266L339.714 373.024Z" fill="#180344"/>
<path d="M76.4343 455.696H289.363" stroke="#180344" stroke-width="3" stroke-miterlimit="10"/>
<path d="M278.296 448.472H268.43C266.591 448.472 265.186 446.981 265.288 445.143C265.391 443.306 266.962 441.815 268.801 441.815H278.667C280.506 441.815 281.911 443.306 281.809 445.143C281.706 446.981 280.136 448.472 278.296 448.472Z" fill="#F29400"/>
<path d="M73.9401 445.159C73.8927 446.074 73.4665 446.91 72.8271 447.501C72.2035 448.109 71.3353 448.479 70.4197 448.479H67.0177C67.2466 446.303 67.5939 444.078 68.0517 441.823H70.7985C72.6456 441.823 74.0585 443.313 73.9401 445.159Z" fill="#F29400"/>
<path d="M369.527 393.412H642.957" stroke="#4848FF" stroke-width="3" stroke-miterlimit="10"/>
<path d="M515.347 371.344L519.301 375.667C527.502 384.634 531.709 396.685 531.023 409.234L526.508 491.834" stroke="#180344" stroke-width="3" stroke-miterlimit="10"/>
<path d="M239.556 489.066H87.177C81.2492 489.066 76.4422 484.263 76.4422 478.34C76.4422 472.416 81.2492 467.613 87.177 467.613H239.556C245.484 467.613 250.291 472.416 250.291 478.34C250.291 484.263 245.484 489.066 239.556 489.066Z" fill="#180344"/>
<path d="M121.339 421.924L122.389 424.96C124.275 430.402 129.398 434.046 135.16 434.046H201.558C206.16 434.046 210.525 432.019 213.493 428.51L219.058 421.932C220.344 420.41 219.263 418.091 217.274 418.091H124.078C122.089 418.091 120.692 420.055 121.339 421.932V421.924Z" fill="#180344"/>
<path d="M269.622 404.32L240.006 405.992C235.815 406.229 231.955 408.319 229.469 411.702C222.657 420.977 229.279 434.046 240.796 434.046H269.63C275.076 434.046 280.041 430.899 282.353 425.97L283.135 424.298C287.65 414.676 280.238 403.721 269.622 404.32Z" fill="white"/>
<path d="M115.601 419.952C115.601 427.232 109.839 434.054 101.519 434.054H72.6771C71.7773 434.054 70.8775 433.975 70.0092 433.794C70.6801 431.507 71.4695 429.18 72.3851 426.845C74.2874 421.853 76.7027 416.766 79.6864 411.718C80.3099 410.669 80.9493 409.628 81.6202 408.579C82.3858 407.372 83.1752 406.174 84.0276 404.967L102.308 406.016C106.5 406.245 110.36 408.342 112.854 411.726C114.756 414.313 115.601 417.176 115.601 419.968V419.952Z" fill="white"/>
<path d="M503.467 403.326H519.798C520.532 403.326 521.132 403.926 521.132 404.659V410.007H505.606C504.43 410.007 503.475 409.052 503.475 407.877V403.334L503.467 403.326Z" fill="#4848FF"/>
<path d="M401.131 376.377H375.675C372.423 376.377 370.221 373.048 371.508 370.059L377.759 355.476C379.441 351.556 383.292 349.017 387.563 349.017H401.131C407.02 349.017 411.795 353.788 411.795 359.672V365.721C411.795 371.605 407.02 376.377 401.131 376.377Z" fill="#4848FF"/>
<path d="M662.256 207.8L659.391 199.164C658.759 197.263 656.573 196.364 654.789 197.287L646.722 201.419C644.236 202.689 644.385 206.286 646.967 207.35L657.899 211.854C660.488 212.919 663.132 210.458 662.256 207.8Z" fill="white"/>
<path d="M558.894 240.01L550.416 236.682C548.546 235.948 546.462 237.053 546.028 239.009L544.046 247.85C543.439 250.571 546.296 252.756 548.767 251.462L559.225 245.957C561.704 244.656 561.506 241.043 558.902 240.018L558.894 240.01Z" fill="#5A78FF"/>
<path d="M25.2939 476.573L17.6927 471.565C16.0194 470.46 13.754 471.107 12.9173 472.937L9.14434 481.179C7.98404 483.718 10.3283 486.447 13.012 485.682L24.3862 482.456C27.0778 481.691 27.6303 478.119 25.2939 476.581V476.573Z" fill="white"/>
<path d="M696.836 198.059C695.597 201.435 696.276 205.418 698.825 208.06C701.327 210.647 705.369 211.617 708.771 210.434C711.541 209.472 713.893 207.003 714.312 204.046C714.738 200.978 712.662 198.13 710.594 196.056C709.031 194.495 707.042 193.296 704.864 192.964C701.927 192.523 699.33 193.769 697.76 196.238C697.389 196.813 697.089 197.428 696.86 198.059H696.836Z" fill="#5A78FF"/>
<path fill-rule="evenodd" clip-rule="evenodd" d="M591 111.084H636.632H646.368H692C692 97.7829 679.603 87 664.316 87C654.85 87 646.493 91.1343 641.5 97.4406C636.507 91.1343 628.15 87 618.684 87C603.397 87 591 97.7829 591 111.084Z" fill="white"/>
</g>
<defs>
<clipPath id="clip0_1_1118">
<rect width="815" height="609" fill="white"/>
</clipPath>
</defs>
</svg>
