<svg width="100" height="51" viewBox="0 0 100 51" fill="none" xmlns="http://www.w3.org/2000/svg">
<path d="M23.7647 47.3364C35.6741 47.3364 45.3285 37.8368 45.3285 26.1184C45.3285 14.4001 35.6741 4.90045 23.7647 4.90045C11.8554 4.90045 2.20093 14.4001 2.20093 26.1184C2.20093 37.8368 11.8554 47.3364 23.7647 47.3364Z" fill="#45FBD4"/>
<mask id="mask0_34_2990" style="mask-type:luminance" maskUnits="userSpaceOnUse" x="2" y="4" width="44" height="44">
<path d="M23.7647 47.3364C35.6741 47.3364 45.3285 37.8368 45.3285 26.1184C45.3285 14.4001 35.6741 4.90045 23.7647 4.90045C11.8554 4.90045 2.20093 14.4001 2.20093 26.1184C2.20093 37.8368 11.8554 47.3364 23.7647 47.3364Z" fill="white"/>
</mask>
<g mask="url(#mask0_34_2990)">
<path d="M51.0202 50.4693H0.5C0.545022 50.1875 0.60085 49.8748 0.664781 49.5399C0.732314 49.1943 0.808852 48.8249 0.894394 48.4394C1.02496 47.852 1.17623 47.2301 1.34461 46.6054C1.44456 46.2368 1.54902 45.8683 1.65977 45.505C1.85246 44.8653 2.06227 44.2425 2.28378 43.6719C2.43595 43.2758 2.59533 42.9046 2.75831 42.5715C2.99062 42.0948 3.23194 41.6934 3.47686 41.4028C3.65965 41.1858 3.92258 40.9634 4.24584 40.7383C4.7708 40.3724 5.45693 40.0003 6.22051 39.6379C7.66212 38.9557 9.38016 38.308 10.8245 37.8048C12.5524 37.2041 13.8878 36.8098 13.8878 36.8098L14.3146 36.7044L20.1828 35.2487H29.0584L35.2913 36.7044L36.56 37.0003C36.56 37.0003 37.9476 37.3086 39.744 37.8048C41.4629 38.2788 43.5573 38.9247 45.1673 39.6379C45.9696 39.9923 46.6513 40.3635 47.1078 40.7383C47.2401 40.8464 47.3527 40.9554 47.4454 41.0644C47.7408 41.4143 48.0569 41.938 48.3774 42.5715C48.5485 42.9108 48.7205 43.2811 48.8907 43.6719C49.1419 44.2487 49.3868 44.8697 49.6182 45.505C49.7515 45.87 49.8802 46.2386 50.0018 46.6054C50.2098 47.2336 50.3989 47.8556 50.5583 48.4394C50.6645 48.8266 50.7582 49.1961 50.8365 49.5399C50.9131 49.8774 50.9752 50.1902 51.0202 50.4693Z" fill="#5A78FF"/>
<path d="M39.7449 37.8039H10.8254C12.5533 37.2032 13.8887 36.8089 13.8887 36.8089L14.3155 36.7035H35.2922L36.5609 36.9994C36.5609 36.9994 37.9485 37.3077 39.7449 37.8039Z" fill="#5A78FF"/>
<path d="M47.1087 40.7374H4.24677C4.77172 40.3715 5.45786 39.9994 6.22143 39.637H45.1683C45.9705 39.9914 46.6522 40.3627 47.1087 40.7374Z" fill="#5A78FF"/>
<path d="M48.8907 43.671H2.28378C2.43596 43.275 2.59534 42.9038 2.75832 42.5706H48.3774C48.5485 42.91 48.7205 43.2803 48.8907 43.671Z" fill="#5A78FF"/>
<path d="M50.0018 46.6046H1.34464C1.44458 46.236 1.54904 45.8674 1.65979 45.5042H49.6182C49.7515 45.8692 49.8803 46.2378 50.0018 46.6046Z" fill="#5A78FF"/>
<g style="mix-blend-mode:multiply" opacity="0.5">
<path d="M28.3066 48.9577C25.3027 48.9577 22.7661 48.2179 20.9238 47.4356C17.8281 46.1208 16.0227 44.4515 15.9471 44.3807C15.8435 44.2841 15.8399 44.1237 15.9372 44.0218C16.0353 43.9199 16.1983 43.9155 16.3019 44.0121C16.3199 44.0289 18.1289 45.6982 21.1453 46.9767C23.9205 48.1524 28.3192 49.228 33.5156 47.6784C33.6525 47.6376 33.7966 47.7138 33.838 47.8476C33.8794 47.9814 33.802 48.124 33.666 48.1648C31.7625 48.7327 29.9625 48.9577 28.3057 48.9577H28.3066Z" fill="#482884"/>
</g>
<g style="mix-blend-mode:multiply" opacity="0.5">
<path d="M29.2646 47.3807C25.119 47.3807 21.6622 44.8485 21.5055 44.7315C21.3921 44.6474 21.3696 44.4879 21.4551 44.3763C21.5406 44.2646 21.7027 44.2425 21.8162 44.3266C21.8567 44.3568 25.8898 47.3072 30.2911 46.8172C30.4325 46.8012 30.5604 46.9014 30.5766 47.0414C30.5928 47.1805 30.491 47.3063 30.3488 47.3222C29.9832 47.363 29.6212 47.3816 29.2646 47.3816V47.3807Z" fill="#482884"/>
</g>
<path d="M25.0974 44.619C22.1223 44.619 19.8406 43.1252 18.489 40.2873C17.4625 38.1317 17.3401 35.984 17.3347 35.8936C17.3221 35.6597 17.5048 35.4613 17.7426 35.4489C17.9776 35.4365 18.182 35.6163 18.1946 35.8502C18.1964 35.8857 18.3197 37.9492 19.2778 39.9489C20.5303 42.5617 22.5662 43.8473 25.3288 43.7693C28.0922 43.6913 30.0336 42.3623 31.0979 39.8186C31.9155 37.8668 31.8912 35.899 31.8912 35.8786C31.8876 35.6447 32.0767 35.4524 32.3135 35.448C32.5485 35.4444 32.7466 35.6296 32.7511 35.8635C32.7529 35.9503 32.7808 38.005 31.9029 40.1163C30.717 42.9719 28.4515 44.5277 25.3522 44.6154C25.2667 44.6181 25.1811 44.619 25.0965 44.619H25.0974Z" fill="#D4E3FA"/>
<path d="M14.1318 25.1677C14.1318 25.1677 13.271 27.1754 14.1318 28.36C14.9926 29.5446 16.3478 29.3364 16.3478 29.3364C16.3478 29.3364 15.5599 32.4781 17.9749 32.891C20.3908 33.3039 20.8527 31.4495 20.8527 31.4495C20.8527 31.4495 18.9221 23.7262 14.1309 25.1677H14.1318Z" fill="#3C3246"/>
<path d="M34.6087 25.1677C34.6087 25.1677 35.4696 27.1754 34.6087 28.36C33.7479 29.5446 32.3928 29.3364 32.3928 29.3364C32.3928 29.3364 33.1806 32.4781 30.7657 32.891C28.3498 33.3039 27.8878 31.4495 27.8878 31.4495C27.8878 31.4495 29.8184 23.7262 34.6096 25.1677H34.6087Z" fill="#3C3246"/>
<path d="M29.8517 36.621C29.8517 36.621 28.5605 38.9991 24.9497 38.9991C21.3389 38.9991 19.9928 36.5023 19.9928 36.5023L20.2062 34.7915L20.2422 34.5035L20.5772 31.8101L29.2079 32.0466L29.352 33.0708L29.3997 33.4066L29.8526 36.6202L29.8517 36.621Z" fill="#D4E3FA"/>
<path d="M29.352 33.0717C27.3971 34.7029 24.2339 35.3231 20.2062 34.7915L20.2422 34.5035L20.5772 31.8101L29.2079 32.0466L29.352 33.0708V33.0717Z" fill="#3C3246"/>
<path d="M17.3365 24.8001C15.4059 27.4519 11.2486 25.6595 11.5322 22.1403C11.7888 18.948 15.4131 19.4539 15.4131 19.4539L17.3365 24.8001Z" fill="#D4E3FA"/>
<path d="M15.559 24.8674C15.4428 24.8674 15.3375 24.7894 15.3087 24.6742C14.9323 23.1636 13.3385 21.7531 13.3223 21.7398C13.216 21.6468 13.2061 21.4864 13.3007 21.381C13.3952 21.2764 13.5582 21.2667 13.6654 21.3597C13.7356 21.4208 15.3951 22.8872 15.8102 24.5528C15.8444 24.6893 15.7598 24.8266 15.6211 24.8603C15.6004 24.8656 15.5797 24.8674 15.559 24.8674Z" fill="#D4E3FA"/>
<path d="M14.8945 23.433C14.8675 23.433 14.8395 23.4286 14.8125 23.4197C14.1066 23.1876 13.4331 23.3284 13.4259 23.3302C13.2863 23.3603 13.1494 23.2735 13.1179 23.1371C13.0873 23.0006 13.1746 22.8651 13.3133 22.834C13.3466 22.827 14.1291 22.6595 14.9764 22.9377C15.1115 22.982 15.1844 23.1264 15.1394 23.2593C15.1034 23.3656 15.0025 23.433 14.8945 23.433Z" fill="#D4E3FA"/>
<path d="M31.631 24.8001C33.5615 27.4519 37.7189 25.6595 37.4352 22.1403C37.1786 18.948 33.5543 19.4539 33.5543 19.4539L31.631 24.8001Z" fill="#D4E3FA"/>
<path d="M33.4076 24.8674C33.3868 24.8674 33.3661 24.8647 33.3454 24.8603C33.2068 24.8266 33.1221 24.6893 33.1563 24.5528C33.5714 22.8872 35.231 21.4208 35.3012 21.3597C35.4074 21.2667 35.5704 21.2764 35.6659 21.381C35.7604 21.4855 35.7514 21.6459 35.6443 21.7398C35.628 21.754 34.0343 23.1645 33.6579 24.6742C33.6291 24.7903 33.5237 24.8674 33.4076 24.8674Z" fill="#D4E3FA"/>
<path d="M34.0721 23.433C33.964 23.433 33.8632 23.3656 33.8271 23.2593C33.7821 23.1264 33.8551 22.982 33.9901 22.9377C34.8365 22.6586 35.6199 22.8261 35.6532 22.834C35.7919 22.865 35.8802 23.0006 35.8486 23.137C35.8171 23.2735 35.6794 23.3603 35.5407 23.3293C35.5335 23.3275 34.86 23.1867 34.154 23.4188C34.127 23.4277 34.0991 23.4321 34.0721 23.4321V23.433Z" fill="#D4E3FA"/>
<path d="M14.6432 15.5768C14.6432 15.5768 13.7005 21.3296 16.1443 26.9566C18.3594 32.0564 21.6559 33.645 24.7912 33.6928C28.357 33.7478 35.4732 31.7197 34.2918 15.0718C33.4931 3.82308 15.5878 4.22001 14.6432 15.5759V15.5768Z" fill="#D4E3FA"/>
<path d="M20.9175 24.7734C20.9175 25.3954 19.8055 25.8996 18.435 25.8996C17.0645 25.8996 15.9525 25.3954 15.9525 24.7734C15.9525 24.1515 17.0636 23.6473 18.435 23.6473C19.8064 23.6473 20.9175 24.1515 20.9175 24.7734Z" fill="#D4E3FA"/>
<path d="M33.2959 24.7734C33.2959 25.3954 32.1848 25.8996 30.8134 25.8996C29.442 25.8996 28.3309 25.3954 28.3309 24.7734C28.3309 24.1515 29.442 23.6473 30.8134 23.6473C32.1848 23.6473 33.2959 24.1515 33.2959 24.7734Z" fill="#D4E3FA"/>
<path d="M25.0839 25.4796C25.0785 25.4796 25.0722 25.4796 25.0668 25.4796L23.4973 25.3556C23.3784 25.3458 23.2902 25.2439 23.3001 25.1279C23.31 25.0109 23.4136 24.9241 23.5315 24.9338L24.8435 25.0375L24.4338 21.1116C24.4221 20.9956 24.5076 20.891 24.6256 20.8795C24.7444 20.8671 24.8498 20.9521 24.8615 21.0682L25.2973 25.2475C25.3036 25.3104 25.282 25.3724 25.237 25.4167C25.1964 25.4575 25.1406 25.4805 25.083 25.4805L25.0839 25.4796Z" fill="#D4E3FA"/>
<path d="M15.7526 19.0144C15.8679 20.316 15.152 21.9453 14.0255 21.2543C13.5285 20.9495 13.569 20.0174 13.37 18.886C13.1341 17.5472 13.7617 17.8033 12.3759 16.0029C10.9109 14.098 11.878 11.2912 13.37 11.2141C13.37 11.2141 11.5178 8.27877 14.1318 6.01327C16.4829 3.97635 18.5512 5.42142 18.5512 5.42142C18.5512 5.42142 18.9888 2.64115 21.4434 2.25485C23.898 1.86855 25.8421 3.9923 25.8421 3.9923C25.8421 3.9923 27.4601 1.87653 30.3695 2.88037C33.2788 3.8842 32.3901 5.95036 32.3901 5.95036C32.3901 5.95036 35.2958 5.61457 36.4736 7.7516C37.4938 9.60423 36.1593 10.982 36.1593 10.982C36.1593 10.982 37.4478 11.813 37.1786 14.0458C36.949 15.956 35.4903 16.1057 35.4714 17.4188C35.4606 18.1506 35.3021 19.0047 35.1634 19.6178C35.0545 20.0989 34.5718 20.9344 34.0703 20.9344C33.4238 20.9344 32.9745 19.881 33.0564 19.2492C33.1951 18.1878 33.2392 16.6701 32.5738 15.7974C31.4752 14.3559 32.1388 12.5023 30.3677 11.9876C28.5965 11.4728 22.7337 14.2531 18.5485 11.9362C18.5485 11.9362 18.7988 14.215 17.3329 14.8839C15.8679 15.5537 15.6346 17.9858 15.749 19.0162C15.7463 18.987 15.7526 19.0455 15.749 19.0162L15.7526 19.0144Z" fill="#3C3246"/>
<path d="M21.3596 27.0088C23.2902 27.3048 25.2586 27.4332 27.887 26.9185C27.887 26.9185 27.6591 29.6846 24.5364 29.697C21.8801 29.7076 21.3596 27.0088 21.3596 27.0088Z" fill="white"/>
<path d="M21.3596 20.9335C21.3596 21.6662 21.0211 22.2599 20.6042 22.2599C20.1873 22.2599 19.8487 21.6662 19.8487 20.9335C19.8487 20.2008 20.1873 19.6072 20.6042 19.6072C21.0211 19.6072 21.3596 20.2008 21.3596 20.9335Z" fill="#3C3246"/>
<path d="M29.3988 20.9335C29.3988 21.6662 29.0602 22.2599 28.6433 22.2599C28.2264 22.2599 27.8878 21.6662 27.8878 20.9335C27.8878 20.2008 28.2264 19.6072 28.6433 19.6072C29.0602 19.6072 29.3988 20.2008 29.3988 20.9335Z" fill="#3C3246"/>
<path d="M19.2634 18.0283C19.7938 17.7475 20.569 17.4011 21.3218 17.293C21.7261 17.2345 21.9809 16.834 21.8432 16.4557L21.8153 16.3795C21.7153 16.1057 21.4398 15.9338 21.1453 15.9648C20.4727 16.0348 19.2823 16.267 18.5052 17.0289C18.3368 17.1937 18.2783 17.4391 18.3495 17.6624C18.4701 18.039 18.9086 18.2162 19.2625 18.0292L19.2634 18.0283Z" fill="#3C3246"/>
<path d="M30.0057 18.0283C29.4753 17.7475 28.7 17.4011 27.9473 17.293C27.543 17.2345 27.2881 16.834 27.4259 16.4557L27.4538 16.3795C27.5538 16.1057 27.8293 15.9338 28.1237 15.9648C28.7964 16.0348 29.9868 16.267 30.7638 17.0289C30.9322 17.1937 30.9908 17.4391 30.9196 17.6624C30.799 18.039 30.3604 18.2162 30.0066 18.0292L30.0057 18.0283Z" fill="#3C3246"/>
<path d="M24.6697 30.863C23.9349 30.863 23.355 30.6104 23.3163 30.5936C23.2082 30.5458 23.1596 30.42 23.2091 30.3136C23.2578 30.2073 23.3856 30.1604 23.4937 30.2082C23.5072 30.2144 24.8326 30.7859 25.8943 30.0983C25.9933 30.0345 26.1266 30.0611 26.1923 30.1586C26.258 30.2561 26.2301 30.3872 26.1311 30.4519C25.6466 30.7655 25.128 30.8638 24.6706 30.8638L24.6697 30.863Z" fill="#D4E3FA"/>
<path d="M19.9756 25.282C17.8839 25.282 16.1821 23.6075 16.1821 21.5493C16.1821 19.4911 17.8839 17.8166 19.9756 17.8166C22.0674 17.8166 23.7692 19.4911 23.7692 21.5493C23.7692 23.6075 22.0674 25.282 19.9756 25.282ZM19.9756 18.155C18.0739 18.155 16.526 19.6772 16.526 21.5493C16.526 23.4214 18.073 24.9436 19.9756 24.9436C21.8783 24.9436 23.4252 23.4214 23.4252 21.5493C23.4252 19.6772 21.8783 18.155 19.9756 18.155Z" fill="#D4E3FA"/>
<path d="M29.1079 25.282C27.0162 25.282 25.3144 23.6075 25.3144 21.5493C25.3144 19.4911 27.0162 17.8166 29.1079 17.8166C31.1997 17.8166 32.9015 19.4911 32.9015 21.5493C32.9015 23.6075 31.1997 25.282 29.1079 25.282ZM29.1079 18.155C27.2062 18.155 25.6583 19.6772 25.6583 21.5493C25.6583 23.4214 27.2053 24.9436 29.1079 24.9436C31.0106 24.9436 32.5575 23.4214 32.5575 21.5493C32.5575 19.6772 31.0106 18.155 29.1079 18.155Z" fill="#D4E3FA"/>
<path d="M32.5143 20.5083C32.4729 20.5083 32.4315 20.4941 32.3981 20.464C32.3279 20.4011 32.3225 20.2939 32.3864 20.2248C32.4333 20.1743 33.5552 18.9852 35.2345 19.2572C35.3282 19.2723 35.3921 19.3591 35.3768 19.4522C35.3615 19.5443 35.2732 19.6072 35.1787 19.5922C33.6813 19.3494 32.6512 20.4427 32.6413 20.4542C32.607 20.4906 32.5611 20.5092 32.5143 20.5092V20.5083Z" fill="#D4E3FA"/>
<path d="M16.5963 20.4391C16.5513 20.4391 16.5071 20.4223 16.4729 20.3878C16.4594 20.3745 15.1025 19.0322 13.4249 19.585C13.3349 19.6143 13.2376 19.5673 13.207 19.4778C13.1773 19.3892 13.225 19.2935 13.316 19.2634C15.2015 18.6423 16.6584 20.0892 16.7196 20.1512C16.7863 20.2185 16.7845 20.3257 16.716 20.3904C16.6827 20.4223 16.6395 20.4383 16.5963 20.4383V20.4391Z" fill="#D4E3FA"/>
<path d="M23.5972 21.2073C23.5972 21.2073 23.59 21.2073 23.5855 21.2073C23.491 21.2011 23.4189 21.1205 23.4252 21.0274C23.4451 20.7306 23.7035 20.1698 24.5418 20.1698C25.3801 20.1698 25.6385 20.7306 25.6583 21.0274C25.6646 21.1205 25.5926 21.2011 25.4981 21.2073C25.4035 21.2135 25.3216 21.1426 25.3153 21.0496C25.3108 20.9956 25.2495 20.5083 24.5418 20.5083C23.834 20.5083 23.7701 21.0275 23.7692 21.0487C23.7629 21.1382 23.6873 21.2073 23.5972 21.2073Z" fill="#D4E3FA"/>
</g>
<path d="M47.7246 47.3364C59.6339 47.3364 69.2884 37.8368 69.2884 26.1184C69.2884 14.4001 59.6339 4.90045 47.7246 4.90045C35.8152 4.90045 26.1608 14.4001 26.1608 26.1184C26.1608 37.8368 35.8152 47.3364 47.7246 47.3364Z" fill="#45FBD4"/>
<mask id="mask1_34_2990" style="mask-type:luminance" maskUnits="userSpaceOnUse" x="26" y="4" width="44" height="44">
<path d="M47.7246 47.3364C59.6339 47.3364 69.2884 37.8368 69.2884 26.1184C69.2884 14.4001 59.6339 4.90045 47.7246 4.90045C35.8152 4.90045 26.1608 14.4001 26.1608 26.1184C26.1608 37.8368 35.8152 47.3364 47.7246 47.3364Z" fill="white"/>
</mask>
<g mask="url(#mask1_34_2990)">
<path d="M70.1177 47.5156H22.8607C22.8607 47.5156 23.4955 44.5581 24.3995 41.5864C25.3036 38.6148 27.172 37.3717 29.5906 36.7613C32.0083 36.1499 41.5458 33.2279 41.5458 33.2279L46.4604 32.8416L46.4892 32.8398L46.5171 32.8416L50.9509 33.1907C50.9509 33.1907 60.9683 36.1499 63.386 36.7613C65.8046 37.3717 67.673 38.6157 68.577 41.5864C69.4811 44.5581 70.1168 47.5156 70.1168 47.5156H70.1177Z" fill="#5A78FF"/>
<path d="M61.4788 45.3278H55.7124C55.5773 45.3278 55.4684 45.435 55.4684 45.5679V47.5154H55.9564V45.808H61.2348V47.5154H61.7229V45.5679C61.7229 45.435 61.6139 45.3278 61.4788 45.3278Z" fill="#5A78FF"/>
<path d="M47.4391 40.3015C47.747 40.3015 47.9965 40.056 47.9965 39.7531C47.9965 39.4502 47.747 39.2047 47.4391 39.2047C47.1313 39.2047 46.8818 39.4502 46.8818 39.7531C46.8818 40.056 47.1313 40.3015 47.4391 40.3015Z" fill="#D4E3FA"/>
<path d="M47.4391 43.2094C47.747 43.2094 47.9965 42.9639 47.9965 42.661C47.9965 42.3581 47.747 42.1125 47.4391 42.1125C47.1313 42.1125 46.8818 42.3581 46.8818 42.661C46.8818 42.9639 47.1313 43.2094 47.4391 43.2094Z" fill="#D4E3FA"/>
<path d="M47.4391 46.1163C47.747 46.1163 47.9965 45.8708 47.9965 45.5679C47.9965 45.265 47.747 45.0195 47.4391 45.0195C47.1313 45.0195 46.8818 45.265 46.8818 45.5679C46.8818 45.8708 47.1313 46.1163 47.4391 46.1163Z" fill="#D4E3FA"/>
<path d="M47.7531 32.837V32.8416L47.7255 32.8397L47.7531 32.837Z" fill="#5A78FF"/>
<path d="M47.7261 32.8397L47.6967 32.8416V32.837L47.7261 32.8397Z" fill="#5A78FF"/>
<path d="M52.1079 34.376C52.1079 34.376 50.8851 36.6282 47.4653 36.6282C44.0454 36.6282 42.7704 34.2635 42.7704 34.2635L42.9721 32.643L43.0063 32.3701L43.3241 29.8193L51.4974 30.0434L51.6343 31.0136L51.6793 31.3317L52.1079 34.3751V34.376Z" fill="#D4E3FA"/>
<path d="M41.7709 32.3719C41.7709 32.3719 38.857 32.8556 36.7059 34.6958C36.7059 34.6958 37.3353 38.3178 41.534 41.9008L46.2289 36.6282C46.2289 36.6282 43.0891 35.4551 41.77 32.371L41.7709 32.3719Z" fill="#5A78FF"/>
<path d="M50.57 32.3719C50.57 32.3719 53.4838 32.8556 55.6341 34.6958C55.6341 34.6958 55.0047 38.3178 50.8059 41.9008L46.111 36.6282C46.111 36.6282 49.2508 35.4551 50.57 32.371V32.3719Z" fill="#5A78FF"/>
<path d="M51.6343 31.0154C49.7821 32.5597 46.7872 33.148 42.973 32.6439L43.0072 32.371L43.325 29.8202L51.4983 30.0443L51.6352 31.0145L51.6343 31.0154Z" fill="#3C3246"/>
<path d="M40.2545 23.1804C38.4266 25.6914 34.489 23.9947 34.7573 20.6615C35.0004 17.6376 38.4329 18.1169 38.4329 18.1169L40.2545 23.1804Z" fill="#D4E3FA"/>
<path d="M38.5716 23.2442C38.4617 23.2442 38.3618 23.1707 38.3348 23.0617C37.9782 21.6308 36.4681 20.2956 36.4528 20.2823C36.352 20.1946 36.343 20.0422 36.433 19.9439C36.5222 19.8446 36.677 19.8358 36.777 19.9244C36.8436 19.9828 38.4149 21.3712 38.8084 22.9483C38.8408 23.0768 38.7607 23.207 38.6292 23.2389C38.6094 23.2433 38.5905 23.246 38.5707 23.246L38.5716 23.2442Z" fill="#D4E3FA"/>
<path d="M37.9422 21.8851C37.9161 21.8851 37.89 21.8806 37.8647 21.8727C37.1966 21.6529 36.5573 21.7858 36.551 21.7876C36.4195 21.816 36.289 21.7345 36.2602 21.6051C36.2313 21.4757 36.3133 21.3482 36.4447 21.3189C36.4763 21.3118 37.2173 21.1532 38.0196 21.4173C38.1475 21.4598 38.2159 21.5954 38.1736 21.7212C38.1394 21.8213 38.0439 21.8851 37.9422 21.8851Z" fill="#D4E3FA"/>
<path d="M53.7927 23.1804C55.6206 25.6914 59.5582 23.9947 59.2899 20.6615C59.0467 17.6376 55.6143 18.1169 55.6143 18.1169L53.7927 23.1804Z" fill="#D4E3FA"/>
<path d="M55.4756 23.2442C55.4567 23.2442 55.4369 23.2416 55.4171 23.2371C55.2865 23.2052 55.2064 23.0759 55.2379 22.9465C55.6314 21.3695 57.2026 19.9811 57.2693 19.9226C57.3701 19.8349 57.5241 19.8438 57.6132 19.9421C57.7024 20.0413 57.6934 20.1928 57.5934 20.2806C57.5781 20.2938 56.0681 21.6299 55.7115 23.0599C55.6845 23.1698 55.5845 23.2425 55.4747 23.2425L55.4756 23.2442Z" fill="#D4E3FA"/>
<path d="M56.105 21.8851C56.0032 21.8851 55.9078 21.8213 55.8736 21.7212C55.8304 21.5954 55.8997 21.4598 56.0275 21.4173C56.8289 21.1532 57.5709 21.3118 57.6024 21.3189C57.7339 21.3482 57.8167 21.4766 57.787 21.606C57.7573 21.7353 57.6267 21.816 57.4962 21.7876C57.4863 21.7858 56.8497 21.6529 56.1824 21.8727C56.1572 21.8815 56.1302 21.8851 56.105 21.8851Z" fill="#D4E3FA"/>
<path d="M37.7045 14.4463C37.7045 14.4463 36.8112 19.8952 39.1263 25.2245C41.2243 30.0541 44.0148 31.5594 46.9835 31.6055C50.3611 31.6577 57.4323 29.736 56.313 13.9687C55.5566 3.31545 38.5986 3.69111 37.7045 14.4463Z" fill="#D4E3FA"/>
<path d="M41.6655 24.2117C42.9615 24.2117 44.012 23.7353 44.012 23.1476C44.012 22.56 42.9615 22.0836 41.6655 22.0836C40.3695 22.0836 39.3189 22.56 39.3189 23.1476C39.3189 23.7353 40.3695 24.2117 41.6655 24.2117Z" fill="#D4E3FA"/>
<path d="M53.3658 24.2117C54.6618 24.2117 55.7124 23.7353 55.7124 23.1476C55.7124 22.56 54.6618 22.0836 53.3658 22.0836C52.0699 22.0836 51.0193 22.56 51.0193 23.1476C51.0193 23.7353 52.0699 24.2117 53.3658 24.2117Z" fill="#D4E3FA"/>
<path d="M56.7128 18.3588C56.7128 18.3588 56.8731 22.3042 55.6845 27.2436C53.7782 35.1609 47.2392 34.1057 47.2392 34.1057C47.2392 34.1057 40.8272 35.1609 38.921 27.2436C37.7324 22.3042 37.2191 18.6193 37.2191 18.6193L38.7211 16.6621C38.7211 16.6621 39.4531 23.4834 42.1067 24.6654C42.1067 24.6654 43.2863 22.9004 47.2383 24.5502C51.1913 22.9004 52.4978 24.6654 52.4978 24.6654C55.1514 23.4834 55.3765 16.9191 55.3765 16.9191L56.7119 18.3597L56.7128 18.3588Z" fill="#3C3246"/>
<path d="M39.7044 11.1432C39.7044 11.1432 40.3356 15.233 38.5716 16.7277V20.1025L37.5352 20.4082C37.5352 20.4082 36.632 15.8975 36.2863 13.3857C35.6163 8.52156 40.2554 7.90491 40.2554 7.90491L39.7053 11.1424L39.7044 11.1432Z" fill="#3C3246"/>
<path d="M54.2447 11.1432C54.2447 11.1432 53.6135 15.233 55.3774 16.7277V20.1025L56.4138 20.4082C56.4138 20.4082 57.317 15.8975 57.6628 13.3857C58.3327 8.52156 53.6936 7.90491 53.6936 7.90491L54.2438 11.1424L54.2447 11.1432Z" fill="#3C3246"/>
<path d="M36.9364 10.8819C36.9364 10.8819 33.8316 5.48612 41.1865 3.51122C46.3154 2.13438 53.256 3.58476 55.4756 0C55.4756 0 56.0969 2.45068 54.8696 4.02333C54.8696 4.02333 58.2147 3.03544 59.144 1.09776C59.144 1.09776 60.2965 4.1332 58.5119 6.47401C58.5119 6.47401 59.8868 6.91258 61.1141 5.9619C61.1141 5.9619 61.0007 12.5812 56.0203 12.2153C56.0203 12.2153 54.9677 11.4303 53.1461 10.8819C51.3245 10.3334 49.8469 13.0942 45.1061 11.9238C40.8812 10.881 39.1407 10.2218 36.9355 10.8819H36.9364Z" fill="#3C3246"/>
<path d="M47.4031 28.9536C46.7071 28.9536 46.1578 28.7144 46.1218 28.6985C46.0191 28.6533 45.9741 28.5346 46.02 28.4336C46.066 28.3326 46.1866 28.2882 46.2893 28.3334C46.3073 28.3414 47.5589 28.8792 48.5629 28.2289C48.6565 28.1686 48.7826 28.1934 48.8447 28.2856C48.9069 28.3777 48.8807 28.5018 48.7871 28.5629C48.3279 28.8597 47.838 28.9527 47.404 28.9527L47.4031 28.9536Z" fill="#3C3246"/>
<path d="M48.1226 23.6775C48.1172 23.6775 48.1118 23.6775 48.1064 23.6775L46.6197 23.5597C46.5081 23.5508 46.4243 23.4542 46.4333 23.3444C46.4423 23.2345 46.5405 23.1521 46.6521 23.161L47.8957 23.2593L47.5076 19.5408C47.4959 19.4309 47.5778 19.3326 47.6895 19.321C47.8011 19.3095 47.9011 19.3901 47.9128 19.5L48.3261 23.4578C48.3324 23.5171 48.3117 23.5756 48.2693 23.6181C48.2306 23.6571 48.1784 23.6784 48.1244 23.6784L48.1226 23.6775Z" fill="#D4E3FA"/>
<path d="M44.2129 25.4929C46.0417 25.7738 47.9047 25.8951 50.3953 25.4078C50.3953 25.4078 50.1801 28.0277 47.2221 28.0393C44.7072 28.049 44.2138 25.4938 44.2138 25.4938L44.2129 25.4929Z" fill="white"/>
<path d="M44.0661 19.5195C44.0661 20.2132 43.7455 20.7758 43.3502 20.7758C42.9549 20.7758 42.6344 20.2132 42.6344 19.5195C42.6344 18.8257 42.9549 18.2631 43.3502 18.2631C43.7455 18.2631 44.0661 18.8257 44.0661 19.5195Z" fill="#3C3246"/>
<path d="M51.6793 19.5195C51.6793 20.2132 51.3588 20.7758 50.9635 20.7758C50.5682 20.7758 50.2476 20.2132 50.2476 19.5195C50.2476 18.8257 50.5682 18.2631 50.9635 18.2631C51.3588 18.2631 51.6793 18.8257 51.6793 19.5195Z" fill="#3C3246"/>
<path d="M42.0797 16.7675C42.5821 16.5017 43.316 16.1739 44.0292 16.0711C44.4127 16.0162 44.6532 15.637 44.5226 15.2782L44.4965 15.2055C44.4019 14.9459 44.1408 14.7838 43.8626 14.813C43.226 14.8795 42.0977 15.0992 41.362 15.8204C41.2027 15.9763 41.1477 16.2085 41.2153 16.4202C41.3296 16.7773 41.7447 16.9447 42.0797 16.7675Z" fill="#3C3246"/>
<path d="M52.2538 16.7675C51.7514 16.5017 51.0175 16.1739 50.3043 16.0711C49.9208 16.0162 49.6803 15.637 49.8109 15.2782L49.837 15.2055C49.9316 14.9459 50.1927 14.7838 50.4709 14.813C51.1075 14.8795 52.2358 15.0992 52.9715 15.8204C53.1308 15.9763 53.1858 16.2085 53.1182 16.4202C53.0039 16.7773 52.5888 16.9447 52.2538 16.7675Z" fill="#3C3246"/>
</g>
<path d="M72.9504 47.3364C84.8598 47.3364 94.5142 37.8368 94.5142 26.1184C94.5142 14.4001 84.8598 4.90045 72.9504 4.90045C61.0411 4.90045 51.3867 14.4001 51.3867 26.1184C51.3867 37.8368 61.0411 47.3364 72.9504 47.3364Z" fill="#45FBD4"/>
<mask id="mask2_34_2990" style="mask-type:luminance" maskUnits="userSpaceOnUse" x="51" y="4" width="44" height="44">
<path d="M72.9504 47.3364C84.8598 47.3364 94.5142 37.8368 94.5142 26.1184C94.5142 14.4001 84.8598 4.90045 72.9504 4.90045C61.0411 4.90045 51.3867 14.4001 51.3867 26.1184C51.3867 37.8368 61.0411 47.3364 72.9504 47.3364Z" fill="white"/>
</mask>
<g mask="url(#mask2_34_2990)">
<path d="M69.9384 1.41846C69.9384 1.41846 63.5066 1.80918 60.8809 7.57882C58.1949 13.4831 59.9931 16.8127 56.5201 20.1981C53.0471 23.5827 51.9611 28.2864 55.7853 31.1172C60.337 34.4876 65.8 30.5847 70.1365 32.2885C80.3719 36.3092 92.7169 31.3954 89.9355 23.9893C88.6073 20.4524 86.1788 21.5652 84.9407 11.8768C84.1789 5.91491 79.7956 0.131983 69.9375 1.41846H69.9384Z" fill="#3C3246"/>
<path d="M98.2646 51.0002H45.1655C45.1655 51.0002 45.8786 47.6768 46.8943 44.3384C47.9109 40.9999 50.0099 39.6027 52.7274 38.916C53.4946 38.722 54.8975 38.3215 56.5174 37.8466C57.4349 37.5773 58.4227 37.284 59.4033 36.9908C62.825 35.9683 66.1611 34.9459 66.1611 34.9459L71.6835 34.5117L71.7159 34.5099L71.7474 34.5117L76.7296 34.9033C76.7296 34.9033 79.7254 35.7884 82.9985 36.7391C86.0699 37.6313 89.3871 38.5829 90.7027 38.9151C93.4202 39.6009 95.5191 40.9981 96.5357 44.3375C97.5523 47.6759 98.2655 50.9993 98.2655 50.9993L98.2646 51.0002Z" fill="#5A78FF"/>
<path d="M58.7135 46.3157C58.6001 47.8981 58.3435 49.4468 57.516 51H46.4018C46.4018 51 47.1149 47.6766 48.1306 44.3382C49.1472 40.9997 51.2462 39.6025 53.9637 38.9158C54.7309 38.7218 56.1338 38.3213 57.7537 37.8464C58.5272 39.7407 58.9251 43.3786 58.7144 46.3157H58.7135Z" fill="#D4E3FA"/>
<path d="M87.1882 46.3157C87.3017 47.8981 87.5583 49.4468 88.3867 51H99.5009C99.5009 51 98.7877 47.6766 97.772 44.3382C96.7554 40.9997 94.6565 39.6025 91.939 38.9158C91.1727 38.7218 89.7689 38.3213 88.149 37.8464C87.3755 39.7407 86.9775 43.3786 87.1882 46.3157Z" fill="#D4E3FA"/>
<path d="M84.2339 36.7398C83.5288 40.4717 81.1184 47.6164 73.0099 47.985C64.019 48.3934 61.3239 40.0526 60.6387 36.9906C64.0604 35.9681 67.3965 34.9457 67.3965 34.9457L72.9189 34.5115L72.9513 34.5098L72.9829 34.5115L77.965 34.9032C77.965 34.9032 80.9608 35.7883 84.2339 36.7389V36.7398Z" fill="#D4E3FA"/>
<path d="M72.9828 41.9096C69.3883 41.9096 67.32 40.1252 66.2169 38.6287C65.0301 37.018 64.6934 35.4241 64.6799 35.3567C64.6402 35.1618 64.7681 34.9722 64.9662 34.9332C65.1643 34.8942 65.357 35.0201 65.3966 35.215C65.4029 35.246 65.7289 36.7513 66.8256 38.2292C68.2834 40.1943 70.3554 41.1911 72.9837 41.1911C75.6121 41.1911 77.5688 40.1943 78.8042 38.2292C79.7326 36.7513 79.8865 35.2664 79.8874 35.2522C79.9063 35.0546 80.0864 34.9102 80.2863 34.9279C80.4871 34.9465 80.6348 35.1228 80.6159 35.3204C80.6096 35.3877 80.4439 36.9888 79.4264 38.6075C78.4791 40.1137 76.5927 41.9105 72.9846 41.9105L72.9828 41.9096Z" fill="#D4E3FA"/>
<path d="M72.9835 34.5071V34.5117L72.9513 34.5098L72.9835 34.5071Z" fill="#5A78FF"/>
<path d="M72.952 34.5098L72.9198 34.5117V34.5071L72.952 34.5098Z" fill="#5A78FF"/>
<path d="M77.8768 36.2366C77.8768 36.2366 76.5027 38.7679 72.6596 38.7679C68.8165 38.7679 67.3839 36.1108 67.3839 36.1108L67.6108 34.29L67.6486 33.9835L68.0052 31.1172L77.1897 31.3698L77.3428 32.4604L77.3932 32.8175L77.875 36.2375L77.8768 36.2366Z" fill="#D4E3FA"/>
<path d="M77.3437 32.4595C75.2628 34.1952 71.8969 34.8553 67.6108 34.29L67.6486 33.9835L68.0052 31.1172L77.1897 31.3698L77.3428 32.4604L77.3437 32.4595Z" fill="#3C3246"/>
<path d="M64.5574 23.6562C62.5035 26.4781 58.0788 24.5714 58.3804 20.8263C58.6541 17.4285 62.5107 17.9672 62.5107 17.9672L64.5583 23.6562H64.5574Z" fill="#D4E3FA"/>
<path d="M63.3742 24.0531C64.8483 24.6441 65.8901 26.0697 65.8901 27.73C65.8901 29.9193 64.0811 31.7002 61.8561 31.7002C59.6311 31.7002 57.8221 29.9193 57.8221 27.73C57.8221 25.8809 59.1133 24.3242 60.8557 23.8857C61.1177 23.8192 61.3897 23.7776 61.6697 23.7661C61.7138 23.8963 61.7444 24.0292 61.7561 24.1683C61.5878 24.1736 61.4212 24.1887 61.2582 24.2161C59.5447 24.497 58.2336 25.966 58.2336 27.7309C58.2336 29.6969 59.8589 31.2962 61.8561 31.2962C63.8533 31.2962 65.4786 29.6961 65.4786 27.7309C65.4786 26.3222 64.643 25.1013 63.4328 24.5236L63.3733 24.054L63.3742 24.0531Z" fill="#D4E3FA"/>
<path d="M62.6656 23.728C62.5422 23.728 62.4306 23.6456 62.3991 23.5224C61.9975 21.9117 60.3019 20.4143 60.2848 20.3993C60.1714 20.3 60.1615 20.1299 60.2623 20.0183C60.3632 19.9066 60.5361 19.8969 60.6495 19.9961C60.7242 20.0617 62.49 21.6219 62.9321 23.3939C62.9681 23.5384 62.8781 23.6845 62.7313 23.72C62.7097 23.7253 62.6872 23.728 62.6656 23.728Z" fill="#D4E3FA"/>
<path d="M61.9588 22.2014C61.9299 22.2014 61.9002 22.1969 61.8714 22.1872C61.1204 21.94 60.4028 22.0897 60.3956 22.0915C60.2488 22.1234 60.102 22.0321 60.0687 21.8868C60.0363 21.7415 60.1282 21.598 60.2758 21.5652C60.3109 21.5573 61.1439 21.3792 62.0452 21.676C62.1884 21.7229 62.2658 21.8762 62.2181 22.0171C62.1794 22.1296 62.0731 22.2014 61.9579 22.2014H61.9588Z" fill="#D4E3FA"/>
<path d="M79.7695 23.6562C81.8234 26.4781 86.2482 24.5714 85.9465 20.8263C85.6728 17.4285 81.8162 17.9672 81.8162 17.9672L79.7686 23.6562H79.7695Z" fill="#D4E3FA"/>
<path d="M81.4506 24.0531C79.9766 24.6441 78.9348 26.0697 78.9348 27.73C78.9348 29.9193 80.7438 31.7002 82.9688 31.7002C85.1938 31.7002 87.0027 29.9193 87.0027 27.73C87.0027 25.8809 85.7115 24.3242 83.9692 23.8857C83.7071 23.8192 83.4352 23.7776 83.1552 23.7661C83.111 23.8963 83.0804 24.0292 83.0687 24.1683C83.2371 24.1736 83.4037 24.1887 83.5667 24.2161C85.2802 24.497 86.5912 25.966 86.5912 27.7309C86.5912 29.6969 84.9659 31.2962 82.9688 31.2962C80.9716 31.2962 79.3463 29.6961 79.3463 27.7309C79.3463 26.3222 80.1819 25.1013 81.3921 24.5236L81.4515 24.054L81.4506 24.0531Z" fill="#D4E3FA"/>
<path d="M81.6604 23.728C81.6388 23.728 81.6172 23.7253 81.5947 23.72C81.4479 23.6845 81.3579 23.5384 81.3939 23.3939C81.836 21.6219 83.6018 20.0617 83.6765 19.9961C83.79 19.8969 83.9629 19.9075 84.0637 20.0183C84.1646 20.1299 84.1537 20.3 84.0412 20.3993C84.0241 20.4143 82.3276 21.9152 81.9269 23.5224C81.8963 23.6456 81.7838 23.728 81.6604 23.728Z" fill="#D4E3FA"/>
<path d="M82.3673 22.2014C82.2529 22.2014 82.1458 22.1296 82.107 22.0171C82.0593 21.8762 82.1368 21.7229 82.2799 21.676C83.1804 21.3792 84.0142 21.5573 84.0493 21.5652C84.197 21.598 84.2897 21.7424 84.2564 21.8877C84.2231 22.033 84.0763 22.1243 83.9295 22.0924C83.9187 22.0897 83.2029 21.9418 82.4537 22.1881C82.4249 22.1978 82.3952 22.2023 82.3664 22.2023L82.3673 22.2014Z" fill="#D4E3FA"/>
<path d="M61.6913 13.842C61.6913 13.842 60.6882 19.9642 63.2887 25.9527C65.6461 31.3804 68.7814 33.0717 72.1175 33.1231C75.912 33.1816 83.8584 31.0224 82.6005 13.3059C81.7505 1.33516 62.6953 1.75779 61.6913 13.8428V13.842Z" fill="#D4E3FA"/>
<path d="M82.3673 14.4648C77.2375 14.5951 73.6501 13.2448 71.3468 11.8644C72.2859 13.1358 73.8824 13.9448 73.8824 13.9448C70.5742 14.7776 68.4356 11.6846 67.5172 9.93827C65.0734 13.6896 61.5653 15.4793 61.5653 15.4793C59.4429 2.73951 68.5536 1.68074 75.9489 2.37004C82.8643 3.01505 86.3175 14.3638 82.3664 14.4648H82.3673Z" fill="#3C3246"/>
<path d="M64.4818 12.9861C64.4818 12.9861 62.6665 16.531 63.2635 20.1981C63.8398 23.7351 63.5804 27.1338 61.8075 27.7327C61.8075 27.7327 63.0123 26.036 61.9128 23.1166C60.8134 20.1973 60.5216 16.3254 61.2528 14.5357C61.984 12.746 64.4818 12.9861 64.4818 12.9861Z" fill="#3C3246"/>
<path d="M80.1107 12.9861C80.1107 12.9861 81.926 16.531 81.329 20.1981C80.7528 23.7351 81.0121 27.1338 82.7851 27.7327C82.7851 27.7327 81.5803 26.036 82.6797 23.1166C83.7791 20.1973 84.0709 16.3254 83.3397 14.5357C82.6086 12.746 80.1107 12.9861 80.1107 12.9861Z" fill="#3C3246"/>
<path d="M65.2354 16.943C65.2354 16.943 66.6897 14.953 69.1947 14.6952C69.6017 14.6536 69.961 14.9601 69.9853 15.3624V15.3686C70.0105 15.7752 69.6836 16.119 69.2694 16.1243C68.3285 16.1376 66.6771 16.2687 65.2354 16.9421V16.943Z" fill="#3C3246"/>
<path d="M79.2886 16.943C79.2886 16.943 77.8344 14.953 75.3294 14.6952C74.9224 14.6536 74.5631 14.9601 74.5388 15.3624V15.3686C74.5136 15.7752 74.8405 16.119 75.2547 16.1243C76.1956 16.1376 77.847 16.2687 79.2886 16.9421V16.943Z" fill="#3C3246"/>
<path d="M72.5894 29.9433C71.8078 29.9433 71.1901 29.6748 71.1496 29.6562C71.0343 29.6048 70.9839 29.4719 71.0361 29.3585C71.0883 29.2451 71.2234 29.1955 71.3378 29.246C71.3576 29.2549 72.765 29.8591 73.8923 29.1291C73.9977 29.0608 74.139 29.0892 74.2084 29.1929C74.2777 29.2965 74.2489 29.4356 74.1435 29.5038C73.6276 29.8379 73.0765 29.9424 72.5894 29.9424V29.9433Z" fill="#D4E3FA"/>
<path d="M73.398 24.2144C73.3917 24.2144 73.3854 24.2144 73.38 24.2144L71.7096 24.0824C71.5836 24.0726 71.4899 23.9636 71.4998 23.8405C71.5097 23.7165 71.6223 23.6234 71.7457 23.6341L73.1422 23.7448L72.7064 19.5664C72.6938 19.4433 72.7848 19.3325 72.9108 19.3201C73.0351 19.3077 73.1485 19.3972 73.1612 19.5204L73.6249 23.9681C73.6321 24.0345 73.6087 24.1001 73.5609 24.1479C73.5177 24.1914 73.4592 24.2153 73.398 24.2153V24.2144Z" fill="#D4E3FA"/>
<path d="M69.0047 26.0068C71.0595 26.3222 73.153 26.4586 75.9516 25.9111C75.9516 25.9111 75.7094 28.8544 72.3859 28.8677C69.5594 28.8792 69.0047 26.0068 69.0047 26.0068Z" fill="white"/>
<path d="M68.839 19.5425C68.839 20.3222 68.4788 20.9539 68.0349 20.9539C67.591 20.9539 67.2308 20.3222 67.2308 19.5425C67.2308 18.7628 67.591 18.1311 68.0349 18.1311C68.4788 18.1311 68.839 18.7628 68.839 19.5425Z" fill="#3C3246"/>
<path d="M77.3941 19.5425C77.3941 20.3222 77.0339 20.9539 76.59 20.9539C76.1461 20.9539 75.7859 20.3222 75.7859 19.5425C75.7859 18.7628 76.1461 18.1311 76.59 18.1311C77.0339 18.1311 77.3941 18.7628 77.3941 19.5425Z" fill="#3C3246"/>
<path d="M65.9 22.4371C65.9 22.5709 65.7892 22.6799 65.6533 22.6799C65.5173 22.6799 65.4066 22.5709 65.4066 22.4371C65.4066 22.3033 65.5173 22.1943 65.6533 22.1943C65.7892 22.1943 65.9 22.3033 65.9 22.4371Z" fill="#D4E3FA"/>
<path d="M67.1039 23.0227C67.1039 23.1565 66.9931 23.2655 66.8572 23.2655C66.7212 23.2655 66.6104 23.1565 66.6104 23.0227C66.6104 22.8889 66.7212 22.78 66.8572 22.78C66.9931 22.78 67.1039 22.8889 67.1039 23.0227Z" fill="#D4E3FA"/>
<path d="M65.9 23.8671C65.9 24.0009 65.7892 24.1099 65.6533 24.1099C65.5173 24.1099 65.4066 24.0009 65.4066 23.8671C65.4066 23.7333 65.5173 23.6243 65.6533 23.6243C65.7892 23.6243 65.9 23.7333 65.9 23.8671Z" fill="#D4E3FA"/>
<path d="M67.5469 24.3527C67.6832 24.3527 67.7936 24.244 67.7936 24.1099C67.7936 23.9758 67.6832 23.8671 67.5469 23.8671C67.4106 23.8671 67.3002 23.9758 67.3002 24.1099C67.3002 24.244 67.4106 24.3527 67.5469 24.3527Z" fill="#D4E3FA"/>
<path d="M68.8084 24.1099C68.9447 24.1099 69.0551 24.0012 69.0551 23.8671C69.0551 23.733 68.9447 23.6243 68.8084 23.6243C68.6722 23.6243 68.5617 23.733 68.5617 23.8671C68.5617 24.0012 68.6722 24.1099 68.8084 24.1099Z" fill="#D4E3FA"/>
<path d="M68.4816 22.6798C68.4816 22.8136 68.3708 22.9226 68.2348 22.9226C68.0989 22.9226 67.9881 22.8136 67.9881 22.6798C67.9881 22.5461 68.0989 22.4371 68.2348 22.4371C68.3708 22.4371 68.4816 22.5461 68.4816 22.6798Z" fill="#D4E3FA"/>
<path d="M79.4543 22.6799C79.5906 22.6799 79.7011 22.5712 79.7011 22.4371C79.7011 22.303 79.5906 22.1943 79.4543 22.1943C79.3181 22.1943 79.2076 22.303 79.2076 22.4371C79.2076 22.5712 79.3181 22.6799 79.4543 22.6799Z" fill="#D4E3FA"/>
<path d="M78.2495 23.2655C78.3858 23.2655 78.4963 23.1568 78.4963 23.0227C78.4963 22.8887 78.3858 22.78 78.2495 22.78C78.1133 22.78 78.0028 22.8887 78.0028 23.0227C78.0028 23.1568 78.1133 23.2655 78.2495 23.2655Z" fill="#D4E3FA"/>
<path d="M79.4543 24.1099C79.5906 24.1099 79.7011 24.0012 79.7011 23.8671C79.7011 23.733 79.5906 23.6243 79.4543 23.6243C79.3181 23.6243 79.2076 23.733 79.2076 23.8671C79.2076 24.0012 79.3181 24.1099 79.4543 24.1099Z" fill="#D4E3FA"/>
<path d="M77.5607 24.3527C77.6969 24.3527 77.8074 24.244 77.8074 24.1099C77.8074 23.9758 77.6969 23.8671 77.5607 23.8671C77.4244 23.8671 77.314 23.9758 77.314 24.1099C77.314 24.244 77.4244 24.3527 77.5607 24.3527Z" fill="#D4E3FA"/>
<path d="M76.0525 23.8671C76.0525 24.0009 76.1632 24.1099 76.2992 24.1099C76.4351 24.1099 76.5459 24.0009 76.5459 23.8671C76.5459 23.7333 76.4351 23.6243 76.2992 23.6243C76.1632 23.6243 76.0525 23.7333 76.0525 23.8671Z" fill="#D4E3FA"/>
<path d="M76.8728 22.9226C77.009 22.9226 77.1195 22.8139 77.1195 22.6798C77.1195 22.5458 77.009 22.4371 76.8728 22.4371C76.7365 22.4371 76.626 22.5458 76.626 22.6798C76.626 22.8139 76.7365 22.9226 76.8728 22.9226Z" fill="#D4E3FA"/>
</g>
</svg>
