<svg width="32" height="32" viewBox="0 0 32 32" fill="none" xmlns="http://www.w3.org/2000/svg">
<rect width="32" height="32" rx="16" fill="#655B70"/>
<path d="M16.04 13.0059C17.8857 13.0059 19.4091 14.5293 19.4091 16.375C19.4091 18.25 17.8857 19.7441 16.04 19.7441C14.165 19.7441 12.6709 18.25 12.6709 16.375C12.6709 14.5293 14.165 13.0059 16.04 13.0059ZM16.04 18.5723C17.2412 18.5723 18.208 17.6055 18.208 16.375C18.208 15.1738 17.2412 14.207 16.04 14.207C14.8095 14.207 13.8427 15.1738 13.8427 16.375C13.8427 17.6055 14.8388 18.5723 16.04 18.5723ZM20.3173 12.8887C20.3173 13.3281 19.9658 13.6797 19.5263 13.6797C19.0869 13.6797 18.7353 13.3281 18.7353 12.8887C18.7353 12.4492 19.0869 12.0977 19.5263 12.0977C19.9658 12.0977 20.3173 12.4492 20.3173 12.8887ZM22.5439 13.6797C22.6025 14.7637 22.6025 18.0156 22.5439 19.0996C22.4853 20.1543 22.2509 21.0625 21.4892 21.8535C20.7275 22.6152 19.79 22.8496 18.7353 22.9082C17.6513 22.9668 14.3994 22.9668 13.3154 22.9082C12.2607 22.8496 11.3525 22.6152 10.5615 21.8535C9.79977 21.0625 9.56539 20.1543 9.5068 19.0996C9.4482 18.0156 9.4482 14.7637 9.5068 13.6797C9.56539 12.625 9.79977 11.6875 10.5615 10.9258C11.3525 10.1641 12.2607 9.92969 13.3154 9.87109C14.3994 9.8125 17.6513 9.8125 18.7353 9.87109C19.79 9.92969 20.7275 10.1641 21.4892 10.9258C22.2509 11.6875 22.4853 12.625 22.5439 13.6797ZM21.1377 20.2422C21.4892 19.3926 21.4013 17.3418 21.4013 16.375C21.4013 15.4375 21.4892 13.3867 21.1377 12.5078C20.9033 11.9512 20.4638 11.4824 19.9072 11.2773C19.0283 10.9258 16.9775 11.0137 16.04 11.0137C15.0732 11.0137 13.0224 10.9258 12.1728 11.2773C11.5869 11.5117 11.1474 11.9512 10.913 12.5078C10.5615 13.3867 10.6494 15.4375 10.6494 16.375C10.6494 17.3418 10.5615 19.3926 10.913 20.2422C11.1474 20.8281 11.5869 21.2676 12.1728 21.502C13.0224 21.8535 15.0732 21.7656 16.04 21.7656C16.9775 21.7656 19.0283 21.8535 19.9072 21.502C20.4638 21.2676 20.9326 20.8281 21.1377 20.2422Z" fill="white"/>
</svg>
