<svg width="32" height="32" viewBox="0 0 32 32" fill="none" xmlns="http://www.w3.org/2000/svg">
<rect width="32" height="32" rx="16" fill="#5A78FF"/>
<path d="M22.941 22.8455C22.2062 21.8107 21.4708 20.7762 20.7357 19.7416C19.6286 18.1841 18.5227 16.6253 17.4128 15.0695C17.3372 14.9635 17.3437 14.8921 17.43 14.7974C17.7823 14.4101 18.1275 14.0165 18.4755 13.6257C19.4029 12.584 20.331 11.5432 21.2578 10.5013C21.6662 10.0425 22.0724 9.58199 22.479 9.12174C22.5006 9.09733 22.5459 9.07321 22.5175 9.036C22.5039 9.01844 22.4617 9.01695 22.4324 9.01665C22.2731 9.01457 22.1113 9.03273 21.9553 9.01129C21.5611 8.95711 21.2982 9.09971 21.0405 9.40009C20.0841 10.5147 19.0944 11.6031 18.117 12.701C17.7154 13.1523 17.3123 13.6024 16.9134 14.0561C16.8278 14.1532 16.763 14.1597 16.6891 14.0484C16.62 13.9439 16.5439 13.8439 16.4711 13.7418C15.3874 12.2166 14.3028 10.6921 13.2222 9.1652C13.1473 9.05952 13.0647 9.01278 12.9315 9.01308C11.6678 9.01665 10.4044 9.01516 9.14104 9.01606C9.09604 9.01606 9.03779 8.99909 9.01097 9.03987C8.97645 9.09257 9.03471 9.13097 9.06152 9.16878C9.48902 9.77549 9.91807 10.3813 10.3486 10.9862C11.6808 12.8582 13.0135 14.7295 14.3457 16.6018C14.4837 16.7959 14.4779 16.8018 14.3173 16.9799C13.8359 17.5151 13.3566 18.0525 12.8782 18.5901C12.0682 19.5005 11.2601 20.4118 10.4504 21.3218C9.99543 21.8336 9.53865 22.3435 9.08402 22.8553C9.05628 22.8866 9.00388 22.9175 9.03316 22.9684C9.05628 23.0083 9.10714 22.9946 9.14659 22.9949C9.4394 22.9961 9.73221 22.9943 10.025 22.9958C10.1085 22.9964 10.1702 22.966 10.2238 22.9038C10.3785 22.7249 10.5379 22.5499 10.6954 22.3733C12.0809 20.816 13.4663 19.2591 14.8518 17.7021C14.9994 17.5363 15.0015 17.536 15.1325 17.7202C16.3451 19.4249 17.5579 21.1292 18.7671 22.8362C18.8481 22.9506 18.936 23.0015 19.0818 23C19.6979 22.9934 20.3143 22.9973 20.9308 22.997C21.5728 22.997 22.2148 22.9976 22.8569 22.9958C22.9046 22.9958 22.9703 23.0175 22.9956 22.9613C23.0159 22.9163 22.9663 22.8809 22.941 22.8455ZM21.2538 22.1786C20.9715 22.1771 20.6888 22.178 20.4062 22.1783C20.1495 22.1783 19.8924 22.1733 19.636 22.1804C19.5037 22.1843 19.4159 22.1396 19.3404 22.0345C18.7141 21.1623 18.0847 20.2921 17.4547 19.4225C16.7069 18.3901 15.9555 17.36 15.2093 16.3267C14.0809 14.7647 12.9559 13.2002 11.8284 11.6373C11.4496 11.1125 11.0677 10.5897 10.6892 10.0646C10.6559 10.0187 10.5878 9.97287 10.6251 9.91005C10.6603 9.8517 10.737 9.87254 10.7965 9.87254C11.3152 9.87135 11.834 9.87492 12.3527 9.87046C12.4837 9.86927 12.5697 9.91035 12.6467 10.0169C13.9702 11.8529 15.2987 13.6855 16.6243 15.5199C18.0908 17.5497 19.5558 19.5806 21.0217 21.6106C21.1244 21.7529 21.231 21.8928 21.3336 22.0348C21.403 22.1307 21.3786 22.1792 21.2538 22.1786Z" fill="white"/>
</svg>
