<svg width="600" height="14" viewBox="0 0 343 14" fill="none" xmlns="http://www.w3.org/2000/svg">
<path fill-rule="evenodd" clip-rule="evenodd" d="M29.5761 8.33664C28.889 11.4158 26.0944 13.7269 22.7608 13.7269C18.9134 13.7269 15.7838 10.6483 15.7838 6.86343C15.7838 3.0786 18.9134 0 22.7608 0C26.0937 0 28.8879 2.31013 29.5757 5.38831L300.872 5.38782C301.561 2.31112 304.354 0.00246537 307.686 0.00246537C311.534 0.00246537 314.663 3.08107 314.663 6.86589C314.663 10.6507 311.534 13.7293 307.686 13.7293C304.351 13.7293 301.556 11.4168 300.87 8.33614L29.5761 8.33664ZM18.7809 6.86343C18.7809 4.70704 20.5653 2.94833 22.7608 2.94833C24.9539 2.94833 26.7367 4.69958 26.7408 6.85598L26.7408 6.86247L26.7408 6.86948C26.7374 9.02652 24.9544 10.7785 22.7608 10.7785C20.5653 10.7785 18.7809 9.02325 18.7809 6.86343ZM303.71 6.86198C303.71 6.89142 303.709 6.92067 303.707 6.94969C303.753 9.07094 305.519 10.781 307.686 10.781C309.882 10.781 311.666 9.02571 311.666 6.86589C311.666 4.70607 309.882 2.95079 307.686 2.95079C305.521 2.95079 303.756 4.66102 303.707 6.77633C303.709 6.80467 303.71 6.83323 303.71 6.86198Z" fill="#5A78FF"/>
<path d="M326.275 13.2939C326.568 13.5819 326.951 13.7259 327.335 13.7259H327.338C327.708 13.7259 328.081 13.5888 328.37 13.3179L333.848 8.18235C334.145 7.90466 334.312 7.52069 334.312 7.11616V1.47663C334.312 0.664124 333.639 0.00246537 332.813 0.00246537C331.984 0.00246537 331.315 0.664124 331.315 1.47663V6.48535L327.359 10.1948L323.355 6.25566V1.47663C323.355 0.664124 322.682 0.00246537 321.856 0.00246537C321.03 0.00246537 320.358 0.664124 320.358 1.47663V6.86246C320.358 7.25329 320.515 7.62697 320.797 7.90466L326.275 13.2939Z" fill="#5A78FF"/>
<path d="M341.501 13.7259C340.675 13.7259 340.003 13.0677 340.003 12.2517V1.47663C340.003 0.664124 340.672 0.00246537 341.501 0.00246537C342.327 0.00246537 343 0.664124 343 1.47663V12.2552C343 13.0677 342.327 13.7293 341.501 13.7293V13.7259Z" fill="#5A78FF"/>
<path d="M1.49857 13.7264H9.71282L9.71631 13.7298C10.5457 13.7298 11.2149 13.0682 11.2149 12.2556C11.2149 11.4431 10.5423 10.7815 9.71631 10.7815H2.99714V1.47712C2.99714 0.664618 2.32453 0.00295844 1.49857 0.00295844C0.669129 0.00295844 0 0.664618 0 1.47712V12.2522C0 13.0682 0.669129 13.7264 1.49857 13.7264Z" fill="#5A78FF"/>
</svg>
