<svg width="332" height="157" viewBox="0 0 332 157" fill="none" xmlns="http://www.w3.org/2000/svg">
<path d="M525.746 0C488.39 0 457.053 26.4627 449.352 61.6278H154.648C146.947 26.4627 115.61 0 78.2537 0C35.0548 0 0 35.254 0 78.5C0 121.746 35.0548 157 78.2537 157C115.61 157 146.947 130.537 154.648 95.3722H449.352C457.053 130.537 488.39 157 525.746 157C568.857 157 604 121.746 604 78.5C604 35.254 568.857 0 525.746 0ZM78.2537 123.256C53.6445 123.256 33.6385 103.187 33.6385 78.5C33.6385 53.8133 53.6445 33.7443 78.2537 33.7443C102.863 33.7443 122.869 53.8133 122.869 78.5C122.869 103.187 102.863 123.256 78.2537 123.256ZM525.746 123.256C501.137 123.256 481.131 103.187 481.131 78.5C481.131 53.8133 501.137 33.7443 525.746 33.7443C550.355 33.7443 570.362 53.8133 570.362 78.5C570.362 103.187 550.355 123.256 525.746 123.256Z" fill="#44FED6"/>
</svg>
