<svg width="131" height="46" viewBox="0 0 131 46" fill="none" xmlns="http://www.w3.org/2000/svg">
<path d="M131 41.3889C131 43.9363 129.314 46 127.228 46H3.77725C1.69234 46 0 43.9363 0 41.3889V4.61709C0 2.07076 1.69234 0 3.77725 0H127.227C129.314 0 131 2.07076 131 4.61709V41.3889Z" fill="#3C3246"/>
<path fill-rule="evenodd" clip-rule="evenodd" d="M25.5362 13.6686C26.3971 12.6411 26.9862 11.2431 26.8227 9.82446C25.5766 9.87711 24.0183 10.6471 23.121 11.6521C22.327 12.5377 21.6179 13.9892 21.8011 15.3543C23.2007 15.454 24.6379 14.6802 25.5362 13.6686ZM28.6883 22.5791C28.6599 19.5714 31.2493 18.0967 31.4048 18.0081L31.4079 18.0064C29.9195 15.9352 27.6126 15.6522 26.8019 15.6297C25.6166 15.5106 24.453 15.9514 23.5022 16.3116C22.8989 16.5401 22.3812 16.7362 21.9981 16.7362C21.5619 16.7362 21.0293 16.5319 20.4324 16.3031C19.652 16.0037 18.7617 15.6623 17.8335 15.6804C15.7255 15.7115 13.7536 16.8764 12.6719 18.6851C10.44 22.3732 12.1046 27.7931 14.2431 30.7742C15.3128 32.2343 16.5627 33.8644 18.1989 33.8071C18.941 33.7778 19.4676 33.5663 20.0115 33.3478C20.6407 33.0951 21.2931 32.8331 22.3291 32.8331C23.3062 32.8331 23.9308 33.087 24.5302 33.3306C25.1048 33.5642 25.6563 33.7884 26.473 33.7704C28.1909 33.744 29.2724 32.3038 30.3046 30.8306C31.5408 29.1572 32.0373 27.5092 32.057 27.4245C32.0166 27.4113 28.7207 26.2108 28.6883 22.5791ZM46.2843 15.8883C46.9788 15.3289 47.3265 14.4959 47.3265 13.3894C47.3265 12.4041 47.0044 11.6473 46.3622 11.118C45.7889 10.6499 44.9388 10.4158 43.811 10.4158C43.1727 10.4158 42.5817 10.459 42.033 10.5436V16.5896C42.4537 16.6385 42.956 16.663 43.5431 16.663C44.727 16.663 45.6412 16.4044 46.2843 15.8883ZM45.6412 11.7658C46.0391 12.1494 46.2381 12.6993 46.2381 13.4167C46.2381 14.2195 46.0214 14.8306 45.5919 15.2499C45.1625 15.6692 44.5527 15.8789 43.7627 15.8789C43.4249 15.8789 43.1924 15.8704 43.0654 15.8516V11.2553C43.2948 11.2121 43.5716 11.1914 43.8967 11.1914C44.662 11.1914 45.2432 11.3832 45.6412 11.7658ZM53.0978 14.3559C53.0978 15.0375 52.8939 15.5959 52.4861 16.034C52.0585 16.4843 51.4922 16.7091 50.785 16.7091C50.1033 16.7091 49.5606 16.4938 49.1557 16.0613C48.7519 15.6298 48.55 15.0854 48.55 14.4293C48.55 13.7429 48.7578 13.1798 49.1754 12.7426C49.5931 12.3055 50.1546 12.0864 50.8618 12.0864C51.5434 12.0864 52.0911 12.3017 52.5058 12.7332C52.8998 13.1525 53.0978 13.694 53.0978 14.3559ZM52.0271 14.3879C52.0271 13.9789 51.9345 13.6282 51.7503 13.3359C51.5336 12.9824 51.2253 12.8056 50.8243 12.8056C50.4096 12.8056 50.0944 12.9824 49.8777 13.3359C49.6926 13.6282 49.601 13.9845 49.601 14.4057C49.601 14.8147 49.6936 15.1653 49.8777 15.4577C50.1014 15.8112 50.4127 15.988 50.8145 15.988C51.2085 15.988 51.5178 15.8084 51.7404 15.4483C51.9315 15.1502 52.0271 14.7968 52.0271 14.3879ZM59.3831 16.6082L60.836 12.1765L59.8225 12.1775L59.259 14.2477C59.1191 14.7647 59.0137 15.2507 58.9438 15.7067H58.9152C58.8196 15.2385 58.6955 14.7525 58.5428 14.2477L57.9115 12.1775H57.0703L56.4113 14.2927C56.2321 14.8634 56.105 15.3353 56.0281 15.7057H56.0094C55.9257 15.2564 55.8213 14.7817 55.6942 14.2833L55.1692 12.1765H54.1084L55.4746 16.6082H56.431L57.0703 14.6838C57.2299 14.2157 57.3539 13.739 57.4436 13.252H57.4623C57.5588 13.7258 57.683 14.2034 57.8357 14.6838L58.4375 16.6082H59.3831ZM66.1874 16.6083H65.155V14.07C65.155 13.2878 64.8438 12.8967 64.2194 12.8967C63.9129 12.8967 63.6657 13.0039 63.4737 13.2192C63.2836 13.4345 63.187 13.6883 63.187 13.9788V16.6074H62.1547V13.4429C62.1547 13.0537 62.1419 12.6316 62.1173 12.1747H63.0245L63.0727 12.8676H63.1013C63.2215 12.6523 63.4008 12.4746 63.6362 12.3326C63.9159 12.1672 64.2292 12.0835 64.572 12.0835C65.0054 12.0835 65.3659 12.217 65.6525 12.4849C66.009 12.813 66.1874 13.3028 66.1874 13.9534V16.6083ZM68.0028 16.6083H69.0341V10.1431H68.0028V16.6083ZM75.1118 14.3559C75.1118 15.0375 74.9079 15.5959 74.5001 16.034C74.0726 16.4843 73.5052 16.7091 72.7989 16.7091C72.1164 16.7091 71.5736 16.4938 71.1697 16.0613C70.7659 15.6298 70.564 15.0854 70.564 14.4293C70.564 13.7429 70.7718 13.1798 71.1895 12.7426C71.6071 12.3055 72.1685 12.0864 72.8748 12.0864C73.5575 12.0864 74.1041 12.3017 74.5197 12.7332C74.9138 13.1525 75.1118 13.694 75.1118 14.3559ZM74.0401 14.3879C74.0401 13.9789 73.9475 13.6282 73.7632 13.3359C73.5476 12.9824 73.2383 12.8056 72.8384 12.8056C72.4227 12.8056 72.1075 12.9824 71.8918 13.3359C71.7066 13.6282 71.615 13.9845 71.615 14.4057C71.615 14.8147 71.7076 15.1653 71.8918 15.4577C72.1153 15.8112 72.4266 15.988 72.8286 15.988C73.2225 15.988 73.5309 15.8084 73.7534 15.4483C73.9455 15.1502 74.0401 14.7968 74.0401 14.3879ZM79.1808 16.6084H80.1077C80.0634 16.3471 80.0407 15.9945 80.0407 15.5517V13.9197C80.0407 12.6975 79.432 12.0864 78.2184 12.0864C77.59 12.0864 77.0571 12.2143 76.6256 12.4691L76.8354 13.1159C77.1842 12.8977 77.588 12.7878 78.0461 12.7878C78.6892 12.7878 79.0104 13.0792 79.0104 13.663V13.7457C78.1504 13.7392 77.4826 13.8792 77.0079 14.165C76.5321 14.4508 76.2957 14.8636 76.2957 15.405C76.2957 15.7633 76.4168 16.0651 76.6592 16.3076C76.926 16.5746 77.2807 16.7091 77.7191 16.7091C78.3061 16.7091 78.7582 16.505 79.0754 16.0979H79.1039L79.1808 16.6084ZM79.036 14.402V15.0854C79.036 15.1521 79.0301 15.2105 79.0192 15.2584C78.9749 15.4718 78.8558 15.6457 78.6617 15.783C78.4686 15.9193 78.2568 15.988 78.0303 15.988C77.8284 15.988 77.659 15.9306 77.526 15.815C77.393 15.6993 77.328 15.5263 77.328 15.2951C77.328 14.6812 77.8973 14.3831 79.036 14.402ZM85.9735 16.6083H85.0574L85.0092 15.8966H84.9806C84.688 16.4382 84.1897 16.709 83.4893 16.709C82.9298 16.709 82.464 16.4992 82.0946 16.08C81.7252 15.6607 81.541 15.1163 81.541 14.4479C81.541 13.7306 81.7409 13.1496 82.1428 12.7059C82.5319 12.2922 83.0086 12.0854 83.576 12.0854C84.1995 12.0854 84.6359 12.2856 84.8841 12.6871H84.9038V10.1431H85.9371V15.4144C85.9371 15.8459 85.9488 16.2435 85.9735 16.6083ZM84.9038 14.7393V14.0004C84.9038 13.8725 84.8939 13.7691 84.8752 13.6902C84.8171 13.4533 84.692 13.254 84.5019 13.0932C84.3099 12.9324 84.0784 12.8516 83.8114 12.8516C83.4262 12.8516 83.1249 12.9973 82.9032 13.2897C82.6836 13.582 82.5723 13.9553 82.5723 14.4113C82.5723 14.8493 82.6777 15.2047 82.8895 15.4783C83.1131 15.7697 83.4145 15.9154 83.7917 15.9154C84.1306 15.9154 84.4015 15.7942 84.6074 15.5506C84.8063 15.326 84.9038 15.0553 84.9038 14.7393ZM94.1903 16.034C94.5982 15.5959 94.802 15.0375 94.802 14.3559C94.802 13.694 94.604 13.1525 94.2101 12.7332C93.7964 12.3017 93.2477 12.0864 92.567 12.0864C91.8589 12.0864 91.2974 12.3055 90.8797 12.7426C90.462 13.1798 90.2542 13.7429 90.2542 14.4293C90.2542 15.0854 90.4562 15.6298 90.8601 16.0613C91.2659 16.4938 91.8086 16.7091 92.4893 16.7091C93.1974 16.7091 93.7629 16.4843 94.1903 16.034ZM93.4555 13.3359C93.6397 13.6282 93.7324 13.9789 93.7324 14.3879C93.7324 14.7968 93.6358 15.1502 93.4457 15.4483C93.2231 15.8084 92.9128 15.988 92.5188 15.988C92.1169 15.988 91.8057 15.8112 91.5821 15.4577C91.3978 15.1653 91.3052 14.8147 91.3052 14.4057C91.3052 13.9845 91.3968 13.6282 91.5821 13.3359C91.7997 12.9824 92.1149 12.8056 92.5286 12.8056C92.9305 12.8056 93.2379 12.9824 93.4555 13.3359ZM100.353 16.6083H99.3214V14.07C99.3214 13.2878 99.0102 12.8967 98.3846 12.8967C98.0783 12.8967 97.8311 13.0039 97.64 13.2192C97.4489 13.4345 97.3534 13.6883 97.3534 13.9788V16.6074H96.3201V13.4429C96.3201 13.0537 96.3083 12.6316 96.2837 12.1747H97.1899L97.2381 12.8676H97.2667C97.3879 12.6523 97.5671 12.4746 97.8015 12.3326C98.0823 12.1672 98.3945 12.0835 98.7382 12.0835C99.1708 12.0835 99.5313 12.217 99.8178 12.4849C100.175 12.813 100.353 13.3028 100.353 13.9534V16.6083ZM106.163 12.9145H107.3L107.299 12.1755H106.162V11.0728L105.151 11.3642V12.1765H104.472V12.9145H105.151V15.1492C105.151 15.7086 105.265 16.1072 105.495 16.3441C105.725 16.5809 106.042 16.6994 106.45 16.6994C106.78 16.6994 107.048 16.6627 107.252 16.5895L107.225 15.8421C107.104 15.873 106.95 15.8881 106.765 15.8881C106.365 15.8881 106.163 15.6145 106.163 15.0674V12.9145ZM112.765 16.6083H111.732V14.0888C111.732 13.2944 111.42 12.8967 110.797 12.8967C110.318 12.8967 109.991 13.127 109.812 13.5877C109.781 13.6845 109.763 13.803 109.763 13.9421V16.6074H108.732V10.1431H109.763V12.814H109.783C110.108 12.3279 110.574 12.0854 111.178 12.0854C111.605 12.0854 111.959 12.2189 112.24 12.4868C112.589 12.8206 112.765 13.3169 112.765 13.9731V16.6083ZM118.364 14.6294C118.389 14.5081 118.402 14.3596 118.402 14.1828C118.402 13.63 118.265 13.1647 117.989 12.7886C117.645 12.3148 117.138 12.0779 116.471 12.0779C115.788 12.0779 115.247 12.3148 114.847 12.7886C114.464 13.2324 114.274 13.7889 114.274 14.4574C114.274 15.138 114.477 15.6805 114.889 16.0847C115.299 16.4889 115.865 16.6911 116.584 16.6911C117.184 16.6911 117.702 16.5999 118.143 16.4175L117.982 15.7331C117.605 15.8731 117.187 15.9427 116.73 15.9427C116.315 15.9427 115.978 15.8393 115.716 15.6325C115.429 15.4012 115.282 15.0675 115.267 14.6294H118.364ZM117.217 13.1712C117.356 13.3837 117.425 13.6357 117.417 13.9281H115.267C115.301 13.63 115.402 13.3753 115.574 13.1618C115.783 12.8939 116.058 12.7604 116.395 12.7604C116.765 12.7604 117.037 12.8977 117.217 13.1712ZM51.8528 33.5974H49.6158L48.3904 29.9224H44.1312L42.9641 33.5974H40.7862L45.0059 21.0862H47.6123L51.8528 33.5974ZM48.0211 28.3807L46.9129 25.1137C46.7957 24.78 46.5761 23.994 46.252 22.7567H46.2127C46.0835 23.2889 45.8757 24.0749 45.59 25.1137L44.5016 28.3807H48.0211ZM61.4015 32.6129C62.2702 31.7226 62.7047 30.5099 62.7047 28.9756C62.7047 27.602 62.3323 26.4946 61.5856 25.6523C60.841 24.8109 59.9101 24.3906 58.7952 24.3906C57.3688 24.3906 56.306 24.9284 55.6056 26.0057H55.5662L55.449 24.5758H53.6021C53.6534 25.5911 53.68 26.5811 53.68 27.5457V37.2732H55.78V32.5208H55.8194C56.3641 33.3744 57.2585 33.8012 58.5035 33.8012C59.657 33.8012 60.6233 33.4055 61.4015 32.6129ZM59.9427 26.8773C60.3583 27.4469 60.5652 28.1709 60.5652 29.0489C60.5652 30.0022 60.3446 30.7694 59.9033 31.3513C59.463 31.9322 58.8473 32.2238 58.0564 32.2238C57.3826 32.2238 56.835 31.998 56.4133 31.5458C55.9917 31.0937 55.781 30.54 55.781 29.8837V28.3795C55.781 28.2197 55.8134 28.0166 55.8785 27.7685C56.0075 27.2364 56.2834 26.8067 56.705 26.4777C57.1255 26.1514 57.5963 25.9859 58.1145 25.9859C58.8789 25.9859 59.4886 26.283 59.9427 26.8773ZM73.576 28.9756C73.576 30.5099 73.1417 31.7226 72.272 32.6129C71.4947 33.4055 70.5284 33.8012 69.375 33.8012C68.13 33.8012 67.2356 33.3744 66.6918 32.5208H66.6525V37.2732H64.5524V27.5457C64.5524 26.5811 64.5258 25.5911 64.4746 24.5758H66.3215L66.4387 26.0057H66.4782C67.1774 24.9284 68.2403 24.3906 69.6676 24.3906C70.7816 24.3906 71.7125 24.8109 72.459 25.6523C73.2028 26.4946 73.576 27.602 73.576 28.9756ZM71.4366 29.0489C71.4366 28.1709 71.2288 27.4469 70.8132 26.8773C70.359 26.283 69.7513 25.9859 68.986 25.9859C68.4668 25.9859 67.997 26.1514 67.5754 26.4777C67.1539 26.8067 66.879 27.2364 66.75 27.7685C66.686 28.0166 66.6525 28.2197 66.6525 28.3795V29.8837C66.6525 30.54 66.8632 31.0937 67.2829 31.5458C67.7045 31.9972 68.2522 32.2238 68.9278 32.2238C69.7188 32.2238 70.3345 31.9322 70.7748 31.3513C71.2161 30.7694 71.4366 30.0022 71.4366 29.0489ZM84.5669 32.6873C85.3441 32.019 85.7312 31.153 85.7312 30.0888C85.7312 29.2239 85.4663 28.499 84.9353 27.92C84.4025 27.339 83.5741 26.8323 82.4463 26.3988C81.5242 26.0519 80.8888 25.7304 80.5392 25.4334C80.1373 25.1119 79.9374 24.7028 79.9374 24.2083C79.9374 23.7618 80.1127 23.3848 80.4624 23.0755C80.8761 22.7295 81.4533 22.5556 82.192 22.5556C83.1268 22.5556 83.9621 22.7474 84.7009 23.1309L85.2259 21.497C84.4349 21.1012 83.444 20.9028 82.2512 20.9028C80.9135 20.9028 79.8438 21.231 79.0421 21.8881C78.2372 22.5443 77.8354 23.3876 77.8354 24.4161C77.8354 25.9899 78.9819 27.1867 81.277 28.0037C82.1201 28.3016 82.7239 28.6241 83.0854 28.971C83.449 29.3179 83.6302 29.7457 83.6302 30.2534C83.6302 30.8231 83.4106 31.28 82.9703 31.6203C82.528 31.9607 81.9123 32.1317 81.1213 32.1317C80.0191 32.1317 79.0076 31.8647 78.0855 31.3326L77.5989 33.0033C78.4549 33.5232 79.5857 33.7826 80.9962 33.7826C82.524 33.7826 83.7129 33.4179 84.5669 32.6873ZM92.6744 26.0802H90.3597V30.4602C90.3597 31.5744 90.7674 32.1309 91.585 32.1309C91.9603 32.1309 92.2716 32.0998 92.5179 32.0378L92.5759 33.5599C92.1622 33.7075 91.6176 33.7817 90.9428 33.7817C90.1135 33.7817 89.4653 33.5401 88.9974 33.0578C88.5315 32.5747 88.2971 31.7642 88.2971 30.6258V26.0783H86.9181V24.5742H88.2971V22.9224L90.3597 22.3281V24.5742H92.6744V26.0802ZM101.874 32.4278C102.703 31.5375 103.119 30.399 103.119 29.0123C103.119 27.6633 102.717 26.5623 101.911 25.7096C101.069 24.8306 99.9528 24.3916 98.566 24.3916C97.1269 24.3916 95.9824 24.8373 95.1342 25.7285C94.2842 26.6188 93.8606 27.7638 93.8606 29.1618C93.8606 30.4977 94.2724 31.6062 95.0958 32.4842C95.9193 33.3623 97.0235 33.8013 98.4104 33.8013C99.8495 33.8013 101.004 33.3444 101.874 32.4278ZM100.376 26.9365C100.754 27.5317 100.94 28.2452 100.94 29.0772C100.94 29.9083 100.745 30.6293 100.358 31.2358C99.9036 31.9672 99.2742 32.3338 98.4724 32.3338C97.6539 32.3338 97.0196 31.9747 96.5654 31.2545C96.1881 30.6604 96.002 29.9468 96.002 29.1148C96.002 28.2574 96.1881 27.5325 96.5654 26.9365C97.0057 26.2173 97.6469 25.8573 98.4911 25.8573C99.3068 25.8573 99.9362 26.2164 100.376 26.9365ZM109.945 26.3385C109.737 26.3019 109.515 26.283 109.283 26.283C108.544 26.283 107.973 26.5491 107.571 27.0821C107.221 27.5522 107.046 28.1463 107.046 28.8637V33.5973H104.947L104.966 27.4168C104.966 26.3771 104.94 25.4303 104.888 24.5767H106.717L106.794 26.3028H106.852C107.073 25.7096 107.423 25.232 107.902 24.8738C108.37 24.5513 108.875 24.3906 109.42 24.3906C109.614 24.3906 109.789 24.4037 109.945 24.4272V26.3385ZM119.26 29.5689C119.313 29.3217 119.336 29.0189 119.336 28.6598C119.336 27.5345 119.058 26.5869 118.503 25.8206C117.803 24.8561 116.771 24.3738 115.41 24.3738C114.023 24.3738 112.921 24.8561 112.105 25.8206C111.326 26.7242 110.937 27.857 110.937 29.2174C110.937 30.6031 111.355 31.7078 112.19 32.5303C113.028 33.3529 114.178 33.7647 115.645 33.7647C116.863 33.7647 117.919 33.5795 118.812 33.2072L118.483 31.8159C117.718 32.1007 116.867 32.2427 115.934 32.2427C115.091 32.2427 114.405 32.032 113.874 31.6118C113.289 31.1417 112.985 30.4601 112.96 29.5689H119.26ZM116.927 26.5991C117.211 27.0324 117.348 27.5458 117.334 28.1399L112.96 28.139C113.023 27.5336 113.232 27.0137 113.581 26.5802C114.008 26.035 114.566 25.7633 115.253 25.7633C116.004 25.7633 116.563 26.0416 116.927 26.5991Z" fill="white"/>
</svg>
