<svg width="270" height="300" viewBox="0 0 270 300" fill="none" xmlns="http://www.w3.org/2000/svg">
<path d="M100.299 85.3113C122.133 81.8285 137.007 61.3192 133.522 39.5025C130.036 17.6858 109.511 2.82322 87.6767 6.30597C65.8427 9.78873 50.9683 30.298 54.4538 52.1147C57.9393 73.9314 78.4649 88.794 100.299 85.3113Z" fill="#45FDD6"/>
<path d="M141.27 174.074C167.277 148.088 167.277 105.956 141.27 79.969C115.263 53.9826 73.0972 53.9826 47.09 79.969C21.0829 105.956 21.0829 148.088 47.09 174.074C73.0972 200.061 115.263 200.061 141.27 174.074Z" fill="#45FDD6"/>
<path d="M65.3661 139.775L94.1765 168.563" stroke="#180344" stroke-width="3" stroke-miterlimit="10"/>
<path d="M122.821 120.019L94.0108 148.806" stroke="#180344" stroke-width="3" stroke-miterlimit="10"/>
<path d="M94.0108 299.558V87.3032" stroke="#180344" stroke-width="3" stroke-miterlimit="10"/>
<path d="M245 233.229C258.807 219.433 258.807 197.065 245 183.269C231.193 169.473 208.807 169.473 195 183.269C181.193 197.065 181.193 219.433 195 233.229C208.807 247.026 231.193 247.026 245 233.229Z" fill="#45FDD6"/>
<path d="M253.735 183.875C258.227 173.039 253.077 160.616 242.232 156.127C231.387 151.639 218.954 156.785 214.462 167.621C209.97 178.457 215.12 190.88 225.965 195.369C236.81 199.857 249.243 194.712 253.735 183.875Z" fill="#45FDD6"/>
<path d="M204.703 215.019L219.999 230.303" stroke="#180344" stroke-width="3" stroke-miterlimit="10"/>
<path d="M235.206 204.531L219.911 219.814" stroke="#180344" stroke-width="3" stroke-miterlimit="10"/>
<path d="M219.911 299.848V187.162" stroke="#180344" stroke-width="3" stroke-miterlimit="10"/>
</svg>
