<svg width="100" height="152" viewBox="0 0 100 152" fill="none" xmlns="http://www.w3.org/2000/svg">
<g id="&#195;&#129;rvore">
<path id="Vector" d="M75 85.2294C88.8071 71.4333 88.8071 49.0653 75 35.2691C61.1929 21.4729 38.8071 21.4729 25 35.2691C11.1929 49.0653 11.1929 71.4333 25 85.2294C38.8071 99.0256 61.1929 99.0256 75 85.2294Z" fill="#45FDD6"/>
<path id="Vector_2" d="M83.7348 35.8753C88.2269 25.039 83.0769 12.6158 72.232 8.12728C61.3872 3.63875 48.9541 8.78461 44.462 19.6209C39.9699 30.4572 45.1199 42.8804 55.9647 47.3689C66.8096 51.8574 79.2427 46.7116 83.7348 35.8753Z" fill="#45FDD6"/>
<path id="Vector_3" d="M34.7032 67.0193L49.9986 82.3025" stroke="#180344" stroke-width="3" stroke-miterlimit="10"/>
<path id="Vector_4" d="M65.206 56.5305L49.9106 71.8137" stroke="#180344" stroke-width="3" stroke-miterlimit="10"/>
<path id="Vector_5" d="M49.9106 151.848V39.1621" stroke="#180344" stroke-width="3" stroke-miterlimit="10"/>
</g>
</svg>
