<svg width="131" height="49" viewBox="0 0 131 49" fill="none" xmlns="http://www.w3.org/2000/svg">
<path d="M126.148 49H4.85185C2.18455 49 0 46.2423 0 42.875V6.125C0 2.75779 2.18455 0 4.85185 0H126.148C128.815 0 131 2.75779 131 6.125V42.875C131 46.2423 128.815 49 126.148 49Z" fill="white"/>
<path d="M44.5227 16H42.6392V10.1818H44.5824C45.1525 10.1818 45.642 10.2983 46.0511 10.5312C46.4602 10.7623 46.7737 11.0947 46.9915 11.5284C47.2112 11.9602 47.321 12.4782 47.321 13.0824C47.321 13.6884 47.2102 14.2093 46.9886 14.6449C46.7689 15.0805 46.4508 15.4157 46.0341 15.6506C45.6174 15.8835 45.1136 16 44.5227 16ZM43.517 15.233H44.4744C44.9176 15.233 45.286 15.1496 45.5795 14.983C45.8731 14.8144 46.0928 14.571 46.2386 14.2528C46.3845 13.9328 46.4574 13.5426 46.4574 13.0824C46.4574 12.6259 46.3845 12.2386 46.2386 11.9205C46.0947 11.6023 45.8797 11.3608 45.5938 11.196C45.3078 11.0312 44.9527 10.9489 44.5284 10.9489H43.517V15.233ZM50.1825 16.0881C49.7734 16.0881 49.4164 15.9943 49.1115 15.8068C48.8066 15.6193 48.5698 15.357 48.4013 15.0199C48.2327 14.6828 48.1484 14.2888 48.1484 13.8381C48.1484 13.3854 48.2327 12.9896 48.4013 12.6506C48.5698 12.3116 48.8066 12.0483 49.1115 11.8608C49.4164 11.6733 49.7734 11.5795 50.1825 11.5795C50.5916 11.5795 50.9486 11.6733 51.2536 11.8608C51.5585 12.0483 51.7952 12.3116 51.9638 12.6506C52.1323 12.9896 52.2166 13.3854 52.2166 13.8381C52.2166 14.2888 52.1323 14.6828 51.9638 15.0199C51.7952 15.357 51.5585 15.6193 51.2536 15.8068C50.9486 15.9943 50.5916 16.0881 50.1825 16.0881ZM50.1854 15.375C50.4505 15.375 50.6702 15.3049 50.8445 15.1648C51.0187 15.0246 51.1475 14.8381 51.2308 14.6051C51.3161 14.3722 51.3587 14.1155 51.3587 13.8352C51.3587 13.5568 51.3161 13.3011 51.2308 13.0682C51.1475 12.8333 51.0187 12.6449 50.8445 12.5028C50.6702 12.3608 50.4505 12.2898 50.1854 12.2898C49.9183 12.2898 49.6967 12.3608 49.5206 12.5028C49.3464 12.6449 49.2166 12.8333 49.1314 13.0682C49.0481 13.3011 49.0064 13.5568 49.0064 13.8352C49.0064 14.1155 49.0481 14.3722 49.1314 14.6051C49.2166 14.8381 49.3464 15.0246 49.5206 15.1648C49.6967 15.3049 49.9183 15.375 50.1854 15.375ZM53.978 16L52.6939 11.6364H53.5717L54.4268 14.8409H54.4695L55.3274 11.6364H56.2053L57.0575 14.8267H57.1001L57.9496 11.6364H58.8274L57.5462 16H56.6797L55.7933 12.8494H55.728L54.8416 16H53.978ZM60.483 13.4091V16H59.6335V11.6364H60.4489V12.3466H60.5028C60.6032 12.1155 60.7604 11.9299 60.9744 11.7898C61.1903 11.6496 61.4621 11.5795 61.7898 11.5795C62.0871 11.5795 62.3475 11.642 62.571 11.767C62.7945 11.8902 62.9678 12.0739 63.0909 12.3182C63.214 12.5625 63.2756 12.8646 63.2756 13.2244V16H62.4261V13.3267C62.4261 13.0104 62.3438 12.7633 62.179 12.5852C62.0142 12.4053 61.7879 12.3153 61.5 12.3153C61.303 12.3153 61.1278 12.358 60.9744 12.4432C60.8229 12.5284 60.7027 12.6534 60.6136 12.8182C60.5265 12.9811 60.483 13.178 60.483 13.4091ZM65.2642 10.1818V16H64.4148V10.1818H65.2642ZM68.245 16.0881C67.8359 16.0881 67.4789 15.9943 67.174 15.8068C66.8691 15.6193 66.6323 15.357 66.4638 15.0199C66.2952 14.6828 66.2109 14.2888 66.2109 13.8381C66.2109 13.3854 66.2952 12.9896 66.4638 12.6506C66.6323 12.3116 66.8691 12.0483 67.174 11.8608C67.4789 11.6733 67.8359 11.5795 68.245 11.5795C68.6541 11.5795 69.0111 11.6733 69.3161 11.8608C69.621 12.0483 69.8577 12.3116 70.0263 12.6506C70.1948 12.9896 70.2791 13.3854 70.2791 13.8381C70.2791 14.2888 70.1948 14.6828 70.0263 15.0199C69.8577 15.357 69.621 15.6193 69.3161 15.8068C69.0111 15.9943 68.6541 16.0881 68.245 16.0881ZM68.2479 15.375C68.513 15.375 68.7327 15.3049 68.907 15.1648C69.0812 15.0246 69.21 14.8381 69.2933 14.6051C69.3786 14.3722 69.4212 14.1155 69.4212 13.8352C69.4212 13.5568 69.3786 13.3011 69.2933 13.0682C69.21 12.8333 69.0812 12.6449 68.907 12.5028C68.7327 12.3608 68.513 12.2898 68.2479 12.2898C67.9808 12.2898 67.7592 12.3608 67.5831 12.5028C67.4089 12.6449 67.2791 12.8333 67.1939 13.0682C67.1106 13.3011 67.0689 13.5568 67.0689 13.8352C67.0689 14.1155 67.1106 14.3722 67.1939 14.6051C67.2791 14.8381 67.4089 15.0246 67.5831 15.1648C67.7592 15.3049 67.9808 15.375 68.2479 15.375ZM72.4972 16.0966C72.2206 16.0966 71.9706 16.0455 71.7472 15.9432C71.5237 15.839 71.3466 15.6884 71.2159 15.4915C71.0871 15.2945 71.0227 15.053 71.0227 14.767C71.0227 14.5208 71.0701 14.3182 71.1648 14.1591C71.2595 14 71.3873 13.8741 71.5483 13.7812C71.7093 13.6884 71.8892 13.6184 72.0881 13.571C72.2869 13.5237 72.4896 13.4877 72.696 13.4631C72.9574 13.4328 73.1695 13.4081 73.3324 13.3892C73.4953 13.3684 73.6136 13.3352 73.6875 13.2898C73.7614 13.2443 73.7983 13.1705 73.7983 13.0682V13.0483C73.7983 12.8002 73.7282 12.608 73.5881 12.4716C73.4498 12.3352 73.2434 12.267 72.9688 12.267C72.6828 12.267 72.4574 12.3305 72.2926 12.4574C72.1297 12.5824 72.017 12.7216 71.9545 12.875L71.1562 12.6932C71.2509 12.428 71.3892 12.214 71.571 12.0511C71.7547 11.8864 71.9659 11.767 72.2045 11.6932C72.4432 11.6174 72.6941 11.5795 72.9574 11.5795C73.1316 11.5795 73.3163 11.6004 73.5114 11.642C73.7083 11.6818 73.892 11.7557 74.0625 11.8636C74.2348 11.9716 74.3759 12.1259 74.4858 12.3267C74.5956 12.5256 74.6506 12.7841 74.6506 13.1023V16H73.821V15.4034H73.7869C73.732 15.5133 73.6496 15.6212 73.5398 15.7273C73.4299 15.8333 73.2888 15.9214 73.1165 15.9915C72.9441 16.0616 72.7377 16.0966 72.4972 16.0966ZM72.6818 15.4148C72.9167 15.4148 73.1174 15.3684 73.2841 15.2756C73.4527 15.1828 73.5805 15.0616 73.6676 14.9119C73.7566 14.7604 73.8011 14.5985 73.8011 14.4261V13.8636C73.7708 13.8939 73.7121 13.9223 73.625 13.9489C73.5398 13.9735 73.4422 13.9953 73.3324 14.0142C73.2225 14.0312 73.1155 14.0473 73.0114 14.0625C72.9072 14.0758 72.8201 14.0871 72.75 14.0966C72.5852 14.1174 72.4347 14.1525 72.2983 14.2017C72.1638 14.2509 72.0559 14.322 71.9744 14.4148C71.8949 14.5057 71.8551 14.6269 71.8551 14.7784C71.8551 14.9886 71.9328 15.1477 72.0881 15.2557C72.2434 15.3617 72.4413 15.4148 72.6818 15.4148ZM77.4155 16.0852C77.0632 16.0852 76.7488 15.9953 76.4723 15.8153C76.1977 15.6335 75.9818 15.375 75.8246 15.0398C75.6693 14.7027 75.5916 14.2983 75.5916 13.8267C75.5916 13.3551 75.6702 12.9517 75.8274 12.6165C75.9865 12.2812 76.2043 12.0246 76.4808 11.8466C76.7573 11.6686 77.0708 11.5795 77.4212 11.5795C77.692 11.5795 77.9098 11.625 78.0746 11.7159C78.2412 11.8049 78.37 11.9091 78.4609 12.0284C78.5537 12.1477 78.6257 12.2528 78.6768 12.3438H78.728V10.1818H79.5774V16H78.7479V15.321H78.6768C78.6257 15.4138 78.5518 15.5199 78.4553 15.6392C78.3606 15.7585 78.2299 15.8627 78.0632 15.9517C77.8965 16.0407 77.6806 16.0852 77.4155 16.0852ZM77.603 15.3608C77.8473 15.3608 78.0537 15.2964 78.2223 15.1676C78.3928 15.0369 78.5215 14.8561 78.6087 14.625C78.6977 14.3939 78.7422 14.125 78.7422 13.8182C78.7422 13.5152 78.6986 13.25 78.6115 13.0227C78.5244 12.7955 78.3965 12.6184 78.228 12.4915C78.0594 12.3646 77.8511 12.3011 77.603 12.3011C77.3473 12.3011 77.1342 12.3674 76.9638 12.5C76.7933 12.6326 76.6645 12.8134 76.5774 13.0426C76.4922 13.2718 76.4496 13.5303 76.4496 13.8182C76.4496 14.1098 76.4931 14.3722 76.5803 14.6051C76.6674 14.8381 76.7962 15.0227 76.9666 15.1591C77.139 15.2936 77.3511 15.3608 77.603 15.3608ZM83.7564 13.4091V16H82.907V11.6364H83.7223V12.3466H83.7763C83.8767 12.1155 84.0339 11.9299 84.2479 11.7898C84.4638 11.6496 84.7356 11.5795 85.0632 11.5795C85.3606 11.5795 85.621 11.642 85.8445 11.767C86.0679 11.8902 86.2412 12.0739 86.3643 12.3182C86.4875 12.5625 86.549 12.8646 86.549 13.2244V16H85.6996V13.3267C85.6996 13.0104 85.6172 12.7633 85.4524 12.5852C85.2876 12.4053 85.0613 12.3153 84.7734 12.3153C84.5765 12.3153 84.4013 12.358 84.2479 12.4432C84.0964 12.5284 83.9761 12.6534 83.8871 12.8182C83.8 12.9811 83.7564 13.178 83.7564 13.4091ZM89.5263 16.0881C89.1172 16.0881 88.7602 15.9943 88.4553 15.8068C88.1503 15.6193 87.9136 15.357 87.745 15.0199C87.5765 14.6828 87.4922 14.2888 87.4922 13.8381C87.4922 13.3854 87.5765 12.9896 87.745 12.6506C87.9136 12.3116 88.1503 12.0483 88.4553 11.8608C88.7602 11.6733 89.1172 11.5795 89.5263 11.5795C89.9354 11.5795 90.2924 11.6733 90.5973 11.8608C90.9022 12.0483 91.139 12.3116 91.3075 12.6506C91.4761 12.9896 91.5604 13.3854 91.5604 13.8381C91.5604 14.2888 91.4761 14.6828 91.3075 15.0199C91.139 15.357 90.9022 15.6193 90.5973 15.8068C90.2924 15.9943 89.9354 16.0881 89.5263 16.0881ZM89.5291 15.375C89.7943 15.375 90.014 15.3049 90.1882 15.1648C90.3625 15.0246 90.4912 14.8381 90.5746 14.6051C90.6598 14.3722 90.7024 14.1155 90.7024 13.8352C90.7024 13.5568 90.6598 13.3011 90.5746 13.0682C90.4912 12.8333 90.3625 12.6449 90.1882 12.5028C90.014 12.3608 89.7943 12.2898 89.5291 12.2898C89.2621 12.2898 89.0405 12.3608 88.8643 12.5028C88.6901 12.6449 88.5604 12.8333 88.4751 13.0682C88.3918 13.3011 88.3501 13.5568 88.3501 13.8352C88.3501 14.1155 88.3918 14.3722 88.4751 14.6051C88.5604 14.8381 88.6901 15.0246 88.8643 15.1648C89.0405 15.3049 89.2621 15.375 89.5291 15.375Z" fill="black"/>
<path d="M10.1258 12.5262C9.84074 12.8157 9.67578 13.2664 9.67578 13.85V34.6672C9.67578 35.2508 9.84074 35.7015 10.1258 35.9909L10.1961 36.0545L22.2215 24.3939V24.1186L10.1961 12.458L10.1258 12.5262Z" fill="url(#paint0_linear_23_2598)"/>
<path d="M26.2254 28.2826L22.2214 24.3938V24.1185L26.2303 20.2297L26.32 20.2803L31.0676 22.9006C32.4225 23.6443 32.4225 24.868 31.0676 25.6163L26.32 28.232L26.2254 28.2826Z" fill="url(#paint1_linear_23_2598)"/>
<path d="M26.32 28.2321L22.2214 24.2563L10.1257 35.9909C10.5757 36.4498 11.3096 36.5051 12.1441 36.0462L26.32 28.2321Z" fill="url(#paint2_linear_23_2598)"/>
<path d="M26.32 20.2805L12.1441 12.4663C11.3096 12.0122 10.5757 12.0675 10.1257 12.5264L22.2214 24.2564L26.32 20.2805Z" fill="url(#paint3_linear_23_2598)"/>
<path d="M66.2921 26.0137C64.013 26.0137 62.1511 27.6963 62.1511 30.0179C62.1511 32.3206 64.013 34.0208 66.2921 34.0208C68.5762 34.0208 70.4381 32.3206 70.4381 30.0179C70.4381 27.6963 68.5762 26.0137 66.2921 26.0137ZM66.2921 32.4441C65.0416 32.4441 63.9657 31.4428 63.9657 30.0179C63.9657 28.5741 65.0416 27.5904 66.2921 27.5904C67.5427 27.5904 68.6235 28.5741 68.6235 30.0179C68.6235 31.4428 67.5427 32.4441 66.2921 32.4441ZM57.2568 26.0137C54.9728 26.0137 53.1157 27.6963 53.1157 30.0179C53.1157 32.3206 54.9728 34.0208 57.2568 34.0208C59.5396 34.0208 61.3978 32.3206 61.3978 30.0179C61.3978 27.6963 59.5396 26.0137 57.2568 26.0137ZM57.2568 32.4441C56.005 32.4441 54.9255 31.4428 54.9255 30.0179C54.9255 28.5741 56.005 27.5904 57.2568 27.5904C58.5074 27.5904 59.5833 28.5741 59.5833 30.0179C59.5833 31.4428 58.5074 32.4441 57.2568 32.4441ZM46.5051 27.241V28.9424H50.6935C50.5709 29.8931 50.2434 30.5921 49.7413 31.0792C49.1299 31.6675 48.1778 32.3205 46.5051 32.3205C43.9275 32.3205 41.9092 30.3026 41.9092 27.8022C41.9092 25.3019 43.9275 23.2839 46.5051 23.2839C47.8988 23.2839 48.9128 23.8122 49.6612 24.497L50.8972 23.298C49.8504 22.3285 48.458 21.5837 46.5051 21.5837C42.9705 21.5837 40 24.3735 40 27.8022C40 31.231 42.9705 34.0208 46.5051 34.0208C48.4155 34.0208 49.8504 33.4137 50.9785 32.2747C52.1345 31.1533 52.4947 29.5766 52.4947 28.3035C52.4947 27.9081 52.4607 27.5445 52.4001 27.241H46.5051ZM90.4701 28.56C90.1293 27.6646 89.0777 26.0137 86.9356 26.0137C84.8129 26.0137 83.0456 27.6363 83.0456 30.0179C83.0456 32.2605 84.7947 34.0208 87.1393 34.0208C89.0352 34.0208 90.1293 32.8995 90.5793 32.2464L89.1723 31.3369C88.7028 32.0029 88.0636 32.4441 87.1393 32.4441C86.2211 32.4441 85.5625 32.0358 85.1404 31.231L90.6606 29.0154L90.4701 28.56ZM84.842 29.8931C84.7947 28.3494 86.078 27.5587 86.9974 27.5587C87.7179 27.5587 88.3293 27.9081 88.533 28.4082L84.842 29.8931ZM80.3552 33.7772H82.1698V22.0108H80.3552V33.7772ZM77.3835 26.9056H77.3228C76.9153 26.4373 76.1378 26.0137 75.1528 26.0137C73.086 26.0137 71.1962 27.774 71.1962 30.0308C71.1962 32.2747 73.086 34.0208 75.1528 34.0208C76.1378 34.0208 76.9153 33.5937 77.3228 33.1113H77.3835V33.6855C77.3835 35.2163 76.5405 36.0388 75.1807 36.0388C74.0721 36.0388 73.3843 35.2622 73.1005 34.6091L71.5224 35.248C71.9773 36.3094 73.1818 37.6155 75.1807 37.6155C77.3083 37.6155 79.1035 36.4012 79.1035 33.4466V26.2573H77.3835V26.9056ZM75.3081 32.4441C74.0575 32.4441 73.0107 31.4287 73.0107 30.0308C73.0107 28.62 74.0575 27.5904 75.3081 27.5904C76.5405 27.5904 77.5121 28.62 77.5121 30.0308C77.5121 31.4287 76.5405 32.4441 75.3081 32.4441ZM98.9657 22.0108H94.6257V33.7772H96.4355V29.3189H98.9657C100.976 29.3189 102.947 27.9081 102.947 25.6643C102.947 23.4216 100.971 22.0108 98.9657 22.0108ZM99.013 27.6822H96.4355V23.6475H99.013C100.364 23.6475 101.136 24.7359 101.136 25.6643C101.136 26.575 100.364 27.6822 99.013 27.6822ZM110.2 25.9914C108.893 25.9914 107.533 26.5515 106.974 27.7928L108.58 28.4459C108.925 27.7928 109.561 27.581 110.233 27.581C111.172 27.581 112.124 28.1282 112.138 29.0942V29.2177C111.811 29.0342 111.11 28.7624 110.247 28.7624C108.518 28.7624 106.755 29.686 106.755 31.4098C106.755 32.9865 108.172 34.002 109.765 34.002C110.983 34.002 111.655 33.469 112.077 32.8489H112.138V33.7584H113.886V29.2448C113.886 27.1586 112.28 25.9914 110.2 25.9914ZM109.982 32.4394C109.39 32.4394 108.565 32.1546 108.565 31.4428C108.565 30.532 109.594 30.1826 110.484 30.1826C111.281 30.1826 111.655 30.3532 112.138 30.5779C111.997 31.6675 111.03 32.4394 109.982 32.4394ZM120.254 26.2491L118.174 31.3498H118.112L115.962 26.2491H114.01L117.241 33.3772L115.398 37.3437H117.289L122.268 26.2491H120.254ZM103.941 33.7772H105.756V22.0108H103.941V33.7772Z" fill="#3C3246"/>
<defs>
<linearGradient id="paint0_linear_23_2598" x1="21.1538" y1="34.884" x2="5.36348" y2="18.6064" gradientUnits="userSpaceOnUse">
<stop stop-color="#00A0FF"/>
<stop offset="0.0066" stop-color="#00A1FF"/>
<stop offset="0.2601" stop-color="#00BEFF"/>
<stop offset="0.5122" stop-color="#00D2FF"/>
<stop offset="0.7604" stop-color="#00DFFF"/>
<stop offset="1" stop-color="#00E3FF"/>
</linearGradient>
<linearGradient id="paint1_linear_23_2598" x1="32.8319" y1="24.2548" x2="9.3519" y2="24.2548" gradientUnits="userSpaceOnUse">
<stop stop-color="#FFE000"/>
<stop offset="0.4087" stop-color="#FFBD00"/>
<stop offset="0.7754" stop-color="#FFA500"/>
<stop offset="1" stop-color="#FF9C00"/>
</linearGradient>
<linearGradient id="paint2_linear_23_2598" x1="24.0913" y1="22.0949" x2="2.67842" y2="0.0211577" gradientUnits="userSpaceOnUse">
<stop stop-color="#FF3A44"/>
<stop offset="1" stop-color="#C31162"/>
</linearGradient>
<linearGradient id="paint3_linear_23_2598" x1="7.081" y1="42.9168" x2="16.6428" y2="33.06" gradientUnits="userSpaceOnUse">
<stop stop-color="#32A071"/>
<stop offset="0.0685" stop-color="#2DA771"/>
<stop offset="0.4762" stop-color="#15CF74"/>
<stop offset="0.8009" stop-color="#06E775"/>
<stop offset="1" stop-color="#00F076"/>
</linearGradient>
</defs>
</svg>
