<svg width="131" height="49" viewBox="0 0 131 49" fill="none" xmlns="http://www.w3.org/2000/svg">
<path d="M126.148 49H4.85185C2.18455 49 0 46.2423 0 42.875V6.125C0 2.75779 2.18455 0 4.85185 0H126.148C128.815 0 131 2.75779 131 6.125V42.875C131 46.2423 128.815 49 126.148 49Z" fill="#3C3246"/>
<path d="M42.5227 16H40.6392V10.1818H42.5824C43.1525 10.1818 43.642 10.2983 44.0511 10.5312C44.4602 10.7623 44.7737 11.0947 44.9915 11.5284C45.2112 11.9602 45.321 12.4782 45.321 13.0824C45.321 13.6884 45.2102 14.2093 44.9886 14.6449C44.7689 15.0805 44.4508 15.4157 44.0341 15.6506C43.6174 15.8835 43.1136 16 42.5227 16ZM41.517 15.233H42.4744C42.9176 15.233 43.286 15.1496 43.5795 14.983C43.8731 14.8144 44.0928 14.571 44.2386 14.2528C44.3845 13.9328 44.4574 13.5426 44.4574 13.0824C44.4574 12.6259 44.3845 12.2386 44.2386 11.9205C44.0947 11.6023 43.8797 11.3608 43.5938 11.196C43.3078 11.0312 42.9527 10.9489 42.5284 10.9489H41.517V15.233ZM48.1825 16.0881C47.7734 16.0881 47.4164 15.9943 47.1115 15.8068C46.8066 15.6193 46.5698 15.357 46.4013 15.0199C46.2327 14.6828 46.1484 14.2888 46.1484 13.8381C46.1484 13.3854 46.2327 12.9896 46.4013 12.6506C46.5698 12.3116 46.8066 12.0483 47.1115 11.8608C47.4164 11.6733 47.7734 11.5795 48.1825 11.5795C48.5916 11.5795 48.9486 11.6733 49.2536 11.8608C49.5585 12.0483 49.7952 12.3116 49.9638 12.6506C50.1323 12.9896 50.2166 13.3854 50.2166 13.8381C50.2166 14.2888 50.1323 14.6828 49.9638 15.0199C49.7952 15.357 49.5585 15.6193 49.2536 15.8068C48.9486 15.9943 48.5916 16.0881 48.1825 16.0881ZM48.1854 15.375C48.4505 15.375 48.6702 15.3049 48.8445 15.1648C49.0187 15.0246 49.1475 14.8381 49.2308 14.6051C49.3161 14.3722 49.3587 14.1155 49.3587 13.8352C49.3587 13.5568 49.3161 13.3011 49.2308 13.0682C49.1475 12.8333 49.0187 12.6449 48.8445 12.5028C48.6702 12.3608 48.4505 12.2898 48.1854 12.2898C47.9183 12.2898 47.6967 12.3608 47.5206 12.5028C47.3464 12.6449 47.2166 12.8333 47.1314 13.0682C47.0481 13.3011 47.0064 13.5568 47.0064 13.8352C47.0064 14.1155 47.0481 14.3722 47.1314 14.6051C47.2166 14.8381 47.3464 15.0246 47.5206 15.1648C47.6967 15.3049 47.9183 15.375 48.1854 15.375ZM51.978 16L50.6939 11.6364H51.5717L52.4268 14.8409H52.4695L53.3274 11.6364H54.2053L55.0575 14.8267H55.1001L55.9496 11.6364H56.8274L55.5462 16H54.6797L53.7933 12.8494H53.728L52.8416 16H51.978ZM58.483 13.4091V16H57.6335V11.6364H58.4489V12.3466H58.5028C58.6032 12.1155 58.7604 11.9299 58.9744 11.7898C59.1903 11.6496 59.4621 11.5795 59.7898 11.5795C60.0871 11.5795 60.3475 11.642 60.571 11.767C60.7945 11.8902 60.9678 12.0739 61.0909 12.3182C61.214 12.5625 61.2756 12.8646 61.2756 13.2244V16H60.4261V13.3267C60.4261 13.0104 60.3438 12.7633 60.179 12.5852C60.0142 12.4053 59.7879 12.3153 59.5 12.3153C59.303 12.3153 59.1278 12.358 58.9744 12.4432C58.8229 12.5284 58.7027 12.6534 58.6136 12.8182C58.5265 12.9811 58.483 13.178 58.483 13.4091ZM63.2642 10.1818V16H62.4148V10.1818H63.2642ZM66.245 16.0881C65.8359 16.0881 65.4789 15.9943 65.174 15.8068C64.8691 15.6193 64.6323 15.357 64.4638 15.0199C64.2952 14.6828 64.2109 14.2888 64.2109 13.8381C64.2109 13.3854 64.2952 12.9896 64.4638 12.6506C64.6323 12.3116 64.8691 12.0483 65.174 11.8608C65.4789 11.6733 65.8359 11.5795 66.245 11.5795C66.6541 11.5795 67.0111 11.6733 67.3161 11.8608C67.621 12.0483 67.8577 12.3116 68.0263 12.6506C68.1948 12.9896 68.2791 13.3854 68.2791 13.8381C68.2791 14.2888 68.1948 14.6828 68.0263 15.0199C67.8577 15.357 67.621 15.6193 67.3161 15.8068C67.0111 15.9943 66.6541 16.0881 66.245 16.0881ZM66.2479 15.375C66.513 15.375 66.7327 15.3049 66.907 15.1648C67.0812 15.0246 67.21 14.8381 67.2933 14.6051C67.3786 14.3722 67.4212 14.1155 67.4212 13.8352C67.4212 13.5568 67.3786 13.3011 67.2933 13.0682C67.21 12.8333 67.0812 12.6449 66.907 12.5028C66.7327 12.3608 66.513 12.2898 66.2479 12.2898C65.9808 12.2898 65.7592 12.3608 65.5831 12.5028C65.4089 12.6449 65.2791 12.8333 65.1939 13.0682C65.1106 13.3011 65.0689 13.5568 65.0689 13.8352C65.0689 14.1155 65.1106 14.3722 65.1939 14.6051C65.2791 14.8381 65.4089 15.0246 65.5831 15.1648C65.7592 15.3049 65.9808 15.375 66.2479 15.375ZM70.4972 16.0966C70.2206 16.0966 69.9706 16.0455 69.7472 15.9432C69.5237 15.839 69.3466 15.6884 69.2159 15.4915C69.0871 15.2945 69.0227 15.053 69.0227 14.767C69.0227 14.5208 69.0701 14.3182 69.1648 14.1591C69.2595 14 69.3873 13.8741 69.5483 13.7812C69.7093 13.6884 69.8892 13.6184 70.0881 13.571C70.2869 13.5237 70.4896 13.4877 70.696 13.4631C70.9574 13.4328 71.1695 13.4081 71.3324 13.3892C71.4953 13.3684 71.6136 13.3352 71.6875 13.2898C71.7614 13.2443 71.7983 13.1705 71.7983 13.0682V13.0483C71.7983 12.8002 71.7282 12.608 71.5881 12.4716C71.4498 12.3352 71.2434 12.267 70.9688 12.267C70.6828 12.267 70.4574 12.3305 70.2926 12.4574C70.1297 12.5824 70.017 12.7216 69.9545 12.875L69.1562 12.6932C69.2509 12.428 69.3892 12.214 69.571 12.0511C69.7547 11.8864 69.9659 11.767 70.2045 11.6932C70.4432 11.6174 70.6941 11.5795 70.9574 11.5795C71.1316 11.5795 71.3163 11.6004 71.5114 11.642C71.7083 11.6818 71.892 11.7557 72.0625 11.8636C72.2348 11.9716 72.3759 12.1259 72.4858 12.3267C72.5956 12.5256 72.6506 12.7841 72.6506 13.1023V16H71.821V15.4034H71.7869C71.732 15.5133 71.6496 15.6212 71.5398 15.7273C71.4299 15.8333 71.2888 15.9214 71.1165 15.9915C70.9441 16.0616 70.7377 16.0966 70.4972 16.0966ZM70.6818 15.4148C70.9167 15.4148 71.1174 15.3684 71.2841 15.2756C71.4527 15.1828 71.5805 15.0616 71.6676 14.9119C71.7566 14.7604 71.8011 14.5985 71.8011 14.4261V13.8636C71.7708 13.8939 71.7121 13.9223 71.625 13.9489C71.5398 13.9735 71.4422 13.9953 71.3324 14.0142C71.2225 14.0312 71.1155 14.0473 71.0114 14.0625C70.9072 14.0758 70.8201 14.0871 70.75 14.0966C70.5852 14.1174 70.4347 14.1525 70.2983 14.2017C70.1638 14.2509 70.0559 14.322 69.9744 14.4148C69.8949 14.5057 69.8551 14.6269 69.8551 14.7784C69.8551 14.9886 69.9328 15.1477 70.0881 15.2557C70.2434 15.3617 70.4413 15.4148 70.6818 15.4148ZM75.4155 16.0852C75.0632 16.0852 74.7488 15.9953 74.4723 15.8153C74.1977 15.6335 73.9818 15.375 73.8246 15.0398C73.6693 14.7027 73.5916 14.2983 73.5916 13.8267C73.5916 13.3551 73.6702 12.9517 73.8274 12.6165C73.9865 12.2812 74.2043 12.0246 74.4808 11.8466C74.7573 11.6686 75.0708 11.5795 75.4212 11.5795C75.692 11.5795 75.9098 11.625 76.0746 11.7159C76.2412 11.8049 76.37 11.9091 76.4609 12.0284C76.5537 12.1477 76.6257 12.2528 76.6768 12.3438H76.728V10.1818H77.5774V16H76.7479V15.321H76.6768C76.6257 15.4138 76.5518 15.5199 76.4553 15.6392C76.3606 15.7585 76.2299 15.8627 76.0632 15.9517C75.8965 16.0407 75.6806 16.0852 75.4155 16.0852ZM75.603 15.3608C75.8473 15.3608 76.0537 15.2964 76.2223 15.1676C76.3928 15.0369 76.5215 14.8561 76.6087 14.625C76.6977 14.3939 76.7422 14.125 76.7422 13.8182C76.7422 13.5152 76.6986 13.25 76.6115 13.0227C76.5244 12.7955 76.3965 12.6184 76.228 12.4915C76.0594 12.3646 75.8511 12.3011 75.603 12.3011C75.3473 12.3011 75.1342 12.3674 74.9638 12.5C74.7933 12.6326 74.6645 12.8134 74.5774 13.0426C74.4922 13.2718 74.4496 13.5303 74.4496 13.8182C74.4496 14.1098 74.4931 14.3722 74.5803 14.6051C74.6674 14.8381 74.7962 15.0227 74.9666 15.1591C75.139 15.2936 75.3511 15.3608 75.603 15.3608ZM81.7564 13.4091V16H80.907V11.6364H81.7223V12.3466H81.7763C81.8767 12.1155 82.0339 11.9299 82.2479 11.7898C82.4638 11.6496 82.7356 11.5795 83.0632 11.5795C83.3606 11.5795 83.621 11.642 83.8445 11.767C84.0679 11.8902 84.2412 12.0739 84.3643 12.3182C84.4875 12.5625 84.549 12.8646 84.549 13.2244V16H83.6996V13.3267C83.6996 13.0104 83.6172 12.7633 83.4524 12.5852C83.2876 12.4053 83.0613 12.3153 82.7734 12.3153C82.5765 12.3153 82.4013 12.358 82.2479 12.4432C82.0964 12.5284 81.9761 12.6534 81.8871 12.8182C81.8 12.9811 81.7564 13.178 81.7564 13.4091ZM87.5263 16.0881C87.1172 16.0881 86.7602 15.9943 86.4553 15.8068C86.1503 15.6193 85.9136 15.357 85.745 15.0199C85.5765 14.6828 85.4922 14.2888 85.4922 13.8381C85.4922 13.3854 85.5765 12.9896 85.745 12.6506C85.9136 12.3116 86.1503 12.0483 86.4553 11.8608C86.7602 11.6733 87.1172 11.5795 87.5263 11.5795C87.9354 11.5795 88.2924 11.6733 88.5973 11.8608C88.9022 12.0483 89.139 12.3116 89.3075 12.6506C89.4761 12.9896 89.5604 13.3854 89.5604 13.8381C89.5604 14.2888 89.4761 14.6828 89.3075 15.0199C89.139 15.357 88.9022 15.6193 88.5973 15.8068C88.2924 15.9943 87.9354 16.0881 87.5263 16.0881ZM87.5291 15.375C87.7943 15.375 88.014 15.3049 88.1882 15.1648C88.3625 15.0246 88.4912 14.8381 88.5746 14.6051C88.6598 14.3722 88.7024 14.1155 88.7024 13.8352C88.7024 13.5568 88.6598 13.3011 88.5746 13.0682C88.4912 12.8333 88.3625 12.6449 88.1882 12.5028C88.014 12.3608 87.7943 12.2898 87.5291 12.2898C87.2621 12.2898 87.0405 12.3608 86.8643 12.5028C86.6901 12.6449 86.5604 12.8333 86.4751 13.0682C86.3918 13.3011 86.3501 13.5568 86.3501 13.8352C86.3501 14.1155 86.3918 14.3722 86.4751 14.6051C86.5604 14.8381 86.6901 15.0246 86.8643 15.1648C87.0405 15.3049 87.2621 15.375 87.5291 15.375Z" fill="white"/>
<path d="M10.1258 12.5262C9.84074 12.8157 9.67578 13.2664 9.67578 13.85V34.6672C9.67578 35.2508 9.84074 35.7015 10.1258 35.9909L10.1961 36.0545L22.2215 24.3939V24.1186L10.1961 12.458L10.1258 12.5262Z" fill="url(#paint0_linear_23_2600)"/>
<path d="M26.2254 28.2826L22.2214 24.3938V24.1185L26.2303 20.2297L26.32 20.2803L31.0676 22.9006C32.4225 23.6443 32.4225 24.868 31.0676 25.6163L26.32 28.232L26.2254 28.2826Z" fill="url(#paint1_linear_23_2600)"/>
<path d="M26.32 28.2321L22.2214 24.2563L10.1257 35.9909C10.5757 36.4498 11.3096 36.5051 12.1441 36.0462L26.32 28.2321Z" fill="url(#paint2_linear_23_2600)"/>
<path d="M26.32 20.2805L12.1441 12.4663C11.3096 12.0122 10.5757 12.0675 10.1257 12.5264L22.2214 24.2564L26.32 20.2805Z" fill="url(#paint3_linear_23_2600)"/>
<path d="M66.1161 25.9058C63.837 25.9058 61.9751 27.5884 61.9751 29.91C61.9751 32.2127 63.837 33.9129 66.1161 33.9129C68.4002 33.9129 70.2621 32.2127 70.2621 29.91C70.2621 27.5884 68.4002 25.9058 66.1161 25.9058ZM66.1161 32.3362C64.8656 32.3362 63.7897 31.3349 63.7897 29.91C63.7897 28.4662 64.8656 27.4825 66.1161 27.4825C67.3667 27.4825 68.4475 28.4662 68.4475 29.91C68.4475 31.3349 67.3667 32.3362 66.1161 32.3362ZM57.0808 25.9058C54.7968 25.9058 52.9397 27.5884 52.9397 29.91C52.9397 32.2127 54.7968 33.9129 57.0808 33.9129C59.3636 33.9129 61.2218 32.2127 61.2218 29.91C61.2218 27.5884 59.3636 25.9058 57.0808 25.9058ZM57.0808 32.3362C55.829 32.3362 54.7495 31.3349 54.7495 29.91C54.7495 28.4662 55.829 27.4825 57.0808 27.4825C58.3314 27.4825 59.4073 28.4662 59.4073 29.91C59.4073 31.3349 58.3314 32.3362 57.0808 32.3362ZM46.3291 27.1331V28.8345H50.5175C50.3949 29.7852 50.0674 30.4842 49.5653 30.9713C48.9539 31.5596 48.0018 32.2126 46.3291 32.2126C43.7515 32.2126 41.7332 30.1947 41.7332 27.6943C41.7332 25.194 43.7515 23.176 46.3291 23.176C47.7228 23.176 48.7368 23.7043 49.4852 24.3891L50.7212 23.1901C49.6744 22.2206 48.282 21.4758 46.3291 21.4758C42.7945 21.4758 39.824 24.2656 39.824 27.6943C39.824 31.1231 42.7945 33.9129 46.3291 33.9129C48.2395 33.9129 49.6744 33.3058 50.8025 32.1668C51.9585 31.0454 52.3187 29.4687 52.3187 28.1956C52.3187 27.8002 52.2847 27.4366 52.2241 27.1331H46.3291ZM90.2941 28.4521C89.9533 27.5567 88.9017 25.9058 86.7596 25.9058C84.6369 25.9058 82.8696 27.5284 82.8696 29.91C82.8696 32.1526 84.6187 33.9129 86.9633 33.9129C88.8592 33.9129 89.9533 32.7916 90.4033 32.1385L88.9963 31.229C88.5268 31.895 87.8876 32.3362 86.9633 32.3362C86.0451 32.3362 85.3865 31.9279 84.9644 31.1231L90.4846 28.9075L90.2941 28.4521ZM84.666 29.7852C84.6187 28.2415 85.902 27.4508 86.8214 27.4508C87.5419 27.4508 88.1533 27.8002 88.357 28.3003L84.666 29.7852ZM80.1792 33.6693H81.9938V21.9029H80.1792V33.6693ZM77.2075 26.7977H77.1468C76.7393 26.3294 75.9618 25.9058 74.9768 25.9058C72.91 25.9058 71.0202 27.6661 71.0202 29.9229C71.0202 32.1668 72.91 33.9129 74.9768 33.9129C75.9618 33.9129 76.7393 33.4858 77.1468 33.0034H77.2075V33.5776C77.2075 35.1084 76.3645 35.9309 75.0047 35.9309C73.8961 35.9309 73.2083 35.1543 72.9245 34.5012L71.3464 35.1401C71.8013 36.2015 73.0058 37.5076 75.0047 37.5076C77.1323 37.5076 78.9275 36.2933 78.9275 33.3387V26.1494H77.2075V26.7977ZM75.1321 32.3362C73.8815 32.3362 72.8347 31.3208 72.8347 29.9229C72.8347 28.5121 73.8815 27.4825 75.1321 27.4825C76.3645 27.4825 77.3361 28.5121 77.3361 29.9229C77.3361 31.3208 76.3645 32.3362 75.1321 32.3362ZM98.7897 21.9029H94.4497V33.6693H96.2595V29.211H98.7897C100.8 29.211 102.771 27.8002 102.771 25.5564C102.771 23.3137 100.795 21.9029 98.7897 21.9029ZM98.837 27.5743H96.2595V23.5396H98.837C100.188 23.5396 100.96 24.628 100.96 25.5564C100.96 26.4671 100.188 27.5743 98.837 27.5743ZM110.024 25.8835C108.717 25.8835 107.357 26.4436 106.798 27.6849L108.404 28.338C108.749 27.6849 109.385 27.4731 110.057 27.4731C110.996 27.4731 111.948 28.0203 111.962 28.9863V29.1098C111.635 28.9263 110.934 28.6545 110.071 28.6545C108.342 28.6545 106.579 29.5781 106.579 31.3019C106.579 32.8786 107.996 33.8941 109.589 33.8941C110.807 33.8941 111.479 33.3611 111.901 32.741H111.962V33.6505H113.71V29.1369C113.71 27.0507 112.104 25.8835 110.024 25.8835ZM109.806 32.3315C109.214 32.3315 108.389 32.0467 108.389 31.3349C108.389 30.4241 109.418 30.0747 110.308 30.0747C111.105 30.0747 111.479 30.2453 111.962 30.47C111.821 31.5596 110.854 32.3315 109.806 32.3315ZM120.078 26.1412L117.998 31.2419H117.936L115.786 26.1412H113.834L117.065 33.2693L115.222 37.2358H117.113L122.092 26.1412H120.078ZM103.765 33.6693H105.58V21.9029H103.765V33.6693Z" fill="white"/>
<defs>
<linearGradient id="paint0_linear_23_2600" x1="21.1538" y1="34.884" x2="5.36348" y2="18.6064" gradientUnits="userSpaceOnUse">
<stop stop-color="#00A0FF"/>
<stop offset="0.0066" stop-color="#00A1FF"/>
<stop offset="0.2601" stop-color="#00BEFF"/>
<stop offset="0.5122" stop-color="#00D2FF"/>
<stop offset="0.7604" stop-color="#00DFFF"/>
<stop offset="1" stop-color="#00E3FF"/>
</linearGradient>
<linearGradient id="paint1_linear_23_2600" x1="32.8319" y1="24.2548" x2="9.3519" y2="24.2548" gradientUnits="userSpaceOnUse">
<stop stop-color="#FFE000"/>
<stop offset="0.4087" stop-color="#FFBD00"/>
<stop offset="0.7754" stop-color="#FFA500"/>
<stop offset="1" stop-color="#FF9C00"/>
</linearGradient>
<linearGradient id="paint2_linear_23_2600" x1="24.0913" y1="22.0949" x2="2.67842" y2="0.0211577" gradientUnits="userSpaceOnUse">
<stop stop-color="#FF3A44"/>
<stop offset="1" stop-color="#C31162"/>
</linearGradient>
<linearGradient id="paint3_linear_23_2600" x1="7.081" y1="42.9168" x2="16.6428" y2="33.06" gradientUnits="userSpaceOnUse">
<stop stop-color="#32A071"/>
<stop offset="0.0685" stop-color="#2DA771"/>
<stop offset="0.4762" stop-color="#15CF74"/>
<stop offset="0.8009" stop-color="#06E775"/>
<stop offset="1" stop-color="#00F076"/>
</linearGradient>
</defs>
</svg>
