<svg width="131" height="49" viewBox="0 0 131 49" fill="none" xmlns="http://www.w3.org/2000/svg">
<path d="M126.148 49H4.85185C2.18455 49 0 46.2423 0 42.875V6.125C0 2.75779 2.18455 0 4.85185 0H126.148C128.815 0 131 2.75779 131 6.125V42.875C131 46.2423 128.815 49 126.148 49Z" fill="white"/>
<path d="M10.1258 12.5262C9.84074 12.8157 9.67578 13.2664 9.67578 13.85V34.6672C9.67578 35.2508 9.84074 35.7015 10.1258 35.9909L10.1961 36.0545L22.2215 24.3939V24.1186L10.1961 12.458L10.1258 12.5262Z" fill="url(#paint0_linear_23_2598)"/>
<path d="M26.2254 28.2826L22.2214 24.3938V24.1185L26.2303 20.2297L26.32 20.2803L31.0676 22.9006C32.4225 23.6443 32.4225 24.868 31.0676 25.6163L26.32 28.232L26.2254 28.2826Z" fill="url(#paint1_linear_23_2598)"/>
<path d="M26.32 28.2321L22.2214 24.2563L10.1257 35.9909C10.5757 36.4498 11.3096 36.5051 12.1441 36.0462L26.32 28.2321Z" fill="url(#paint2_linear_23_2598)"/>
<path d="M26.32 20.2805L12.1441 12.4663C11.3096 12.0122 10.5757 12.0675 10.1257 12.5264L22.2214 24.2564L26.32 20.2805Z" fill="url(#paint3_linear_23_2598)"/>
<path fill-rule="evenodd" clip-rule="evenodd" d="M45.292 16.9575C45.7699 16.488 46.0125 15.8585 46.0125 15.0726C46.0125 14.9349 46.0028 14.7925 45.9688 14.6454H43.1499V15.3255H45.2629C45.2204 15.8126 45.0591 16.1939 44.7753 16.4704C44.3447 16.8881 43.7988 17.0999 43.1499 17.0999C42.5386 17.0999 42.0085 16.8881 41.5585 16.4751C41.1133 16.0562 40.8901 15.5091 40.8901 14.8431C40.8901 14.1771 41.1133 13.6347 41.5585 13.2158C42.0085 12.7981 42.5386 12.591 43.1499 12.591C43.8279 12.591 44.358 12.811 44.7474 13.257L45.2544 12.7604C45.0312 12.4992 44.7231 12.2874 44.3447 12.1309C43.965 11.9756 43.5672 11.8921 43.1499 11.8921C42.3117 11.8921 41.5961 12.1768 41.009 12.7428C40.4207 13.3076 40.1272 14.0065 40.1272 14.8431C40.1272 15.6797 40.4207 16.3786 41.009 16.9481C41.5961 17.5094 42.3117 17.7941 43.1499 17.7941C44.0269 17.7941 44.7425 17.5141 45.292 16.9575ZM47.8368 12.7145H50.4847V12.0215H47.0872V17.6647H50.4847V16.9716H47.8368V15.1831H50.2239V14.503H47.8368V12.7145ZM53.6409 17.6647H52.8912V12.7145H51.2671V12.0215H55.2662V12.7145H53.6409V17.6647ZM58.1604 12.0215V17.6647H58.9088V12.0215H58.1604ZM62.2261 17.6647H61.4825V12.7145H59.8523V12.0215H63.8563V12.7145H62.2261V17.6647ZM69.2953 17.7941C70.1432 17.7941 70.854 17.5094 71.4277 16.9387C72.0003 16.3692 72.2853 15.6703 72.2853 14.8431C72.2853 14.0206 72.0003 13.3264 71.4229 12.7522C70.8492 12.1768 70.1384 11.8921 69.2953 11.8921C68.4426 11.8921 67.7318 12.1768 67.1581 12.7475C66.5856 13.317 66.3005 14.0159 66.3005 14.8431C66.3005 15.6703 66.5856 16.3692 67.1581 16.9387C67.7318 17.5094 68.4426 17.7941 69.2953 17.7941ZM69.2953 17.0999C68.6695 17.0999 68.1442 16.8881 67.7124 16.4657C67.2818 16.0433 67.0635 15.5008 67.0635 14.8431C67.0635 14.1854 67.2818 13.6429 67.7124 13.2205C68.1442 12.7981 68.6695 12.5863 69.2953 12.5863C69.9164 12.5863 70.4464 12.7981 70.8734 13.2205C71.304 13.6429 71.5223 14.1854 71.5223 14.8431C71.5223 15.5008 71.304 16.0433 70.8734 16.4657C70.4464 16.8881 69.9164 17.0999 69.2953 17.0999ZM73.3369 17.6647V12.0215H74.2466L77.0753 16.4104H77.108L77.0753 15.3255V12.0215H77.8237V17.6647H77.0425L74.0805 13.0593H74.0477L74.0805 14.1489V17.6647H73.3369ZM61.9751 29.91C61.9751 27.5884 63.837 25.9058 66.1161 25.9058C68.4002 25.9058 70.2621 27.5884 70.2621 29.91C70.2621 32.2127 68.4002 33.9129 66.1161 33.9129C63.837 33.9129 61.9751 32.2127 61.9751 29.91ZM63.7897 29.91C63.7897 31.3349 64.8656 32.3362 66.1161 32.3362C67.3667 32.3362 68.4475 31.3349 68.4475 29.91C68.4475 28.4662 67.3667 27.4825 66.1161 27.4825C64.8656 27.4825 63.7897 28.4662 63.7897 29.91ZM52.9397 29.91C52.9397 27.5884 54.7968 25.9058 57.0808 25.9058C59.3636 25.9058 61.2218 27.5884 61.2218 29.91C61.2218 32.2127 59.3636 33.9129 57.0808 33.9129C54.7968 33.9129 52.9397 32.2127 52.9397 29.91ZM54.7495 29.91C54.7495 31.3349 55.829 32.3362 57.0808 32.3362C58.3314 32.3362 59.4073 31.3349 59.4073 29.91C59.4073 28.4662 58.3314 27.4825 57.0808 27.4825C55.829 27.4825 54.7495 28.4662 54.7495 29.91ZM46.3291 28.8345V27.1331H52.2241C52.2847 27.4366 52.3187 27.8002 52.3187 28.1956C52.3187 29.4687 51.9585 31.0454 50.8025 32.1668C49.6744 33.3058 48.2395 33.9129 46.3291 33.9129C42.7945 33.9129 39.824 31.1231 39.824 27.6943C39.824 24.2656 42.7945 21.4758 46.3291 21.4758C48.282 21.4758 49.6744 22.2206 50.7212 23.1901L49.4852 24.3891C48.7368 23.7043 47.7228 23.176 46.3291 23.176C43.7515 23.176 41.7332 25.194 41.7332 27.6943C41.7332 30.1947 43.7515 32.2126 46.3291 32.2126C48.0018 32.2126 48.9539 31.5596 49.5653 30.9713C50.0674 30.4842 50.3949 29.7852 50.5175 28.8345H46.3291ZM86.7596 25.9058C88.9017 25.9058 89.9533 27.5567 90.2941 28.4521L90.4846 28.9075L84.9644 31.1231C85.3865 31.9279 86.0451 32.3362 86.9633 32.3362C87.8876 32.3362 88.5268 31.895 88.9963 31.229L90.4033 32.1385C89.9533 32.7916 88.8592 33.9129 86.9633 33.9129C84.6187 33.9129 82.8696 32.1526 82.8696 29.91C82.8696 27.5284 84.6369 25.9058 86.7596 25.9058ZM86.8214 27.4508C85.902 27.4508 84.6187 28.2415 84.666 29.7852L88.357 28.3003C88.1533 27.8002 87.5419 27.4508 86.8214 27.4508ZM81.9938 33.6693H80.1792V21.9029H81.9938V33.6693ZM77.1468 26.7977H77.2075V26.1494H78.9275V33.3387C78.9275 36.2933 77.1323 37.5076 75.0047 37.5076C73.0058 37.5076 71.8013 36.2015 71.3464 35.1401L72.9245 34.5012C73.2083 35.1543 73.8961 35.9309 75.0047 35.9309C76.3645 35.9309 77.2075 35.1084 77.2075 33.5776V33.0034H77.1468C76.7393 33.4858 75.9618 33.9129 74.9768 33.9129C72.91 33.9129 71.0202 32.1668 71.0202 29.9229C71.0202 27.6661 72.91 25.9058 74.9768 25.9058C75.9618 25.9058 76.7393 26.3294 77.1468 26.7977ZM72.8347 29.9229C72.8347 31.3208 73.8815 32.3362 75.1321 32.3362C76.3645 32.3362 77.3361 31.3208 77.3361 29.9229C77.3361 28.5121 76.3645 27.4825 75.1321 27.4825C73.8815 27.4825 72.8347 28.5121 72.8347 29.9229ZM94.4497 21.9029H98.7897C100.795 21.9029 102.771 23.3137 102.771 25.5564C102.771 27.8002 100.8 29.211 98.7897 29.211H96.2595V33.6693H94.4497V21.9029ZM96.2595 27.5743H98.837C100.188 27.5743 100.96 26.4671 100.96 25.5564C100.96 24.628 100.188 23.5396 98.837 23.5396H96.2595V27.5743ZM106.798 27.6849C107.357 26.4436 108.717 25.8835 110.024 25.8835C112.104 25.8835 113.71 27.0507 113.71 29.1369V33.6505H111.962V32.741H111.901C111.479 33.3611 110.807 33.8941 109.589 33.8941C107.996 33.8941 106.579 32.8786 106.579 31.3019C106.579 29.5781 108.342 28.6545 110.071 28.6545C110.934 28.6545 111.635 28.9263 111.962 29.1098V28.9863C111.948 28.0203 110.996 27.4731 110.057 27.4731C109.385 27.4731 108.749 27.6849 108.404 28.338L106.798 27.6849ZM108.389 31.3349C108.389 32.0467 109.214 32.3315 109.806 32.3315C110.854 32.3315 111.821 31.5596 111.962 30.47C111.479 30.2453 111.105 30.0747 110.308 30.0747C109.418 30.0747 108.389 30.4241 108.389 31.3349ZM117.998 31.2419L120.078 26.1412H122.092L117.113 37.2358H115.222L117.065 33.2693L113.834 26.1412H115.786L117.936 31.2419H117.998ZM105.58 33.6693H103.765V21.9029H105.58V33.6693Z" fill="#3C3246"/>
<defs>
<linearGradient id="paint0_linear_23_2598" x1="21.1538" y1="34.884" x2="5.36348" y2="18.6064" gradientUnits="userSpaceOnUse">
<stop stop-color="#00A0FF"/>
<stop offset="0.0066" stop-color="#00A1FF"/>
<stop offset="0.2601" stop-color="#00BEFF"/>
<stop offset="0.5122" stop-color="#00D2FF"/>
<stop offset="0.7604" stop-color="#00DFFF"/>
<stop offset="1" stop-color="#00E3FF"/>
</linearGradient>
<linearGradient id="paint1_linear_23_2598" x1="32.8319" y1="24.2548" x2="9.3519" y2="24.2548" gradientUnits="userSpaceOnUse">
<stop stop-color="#FFE000"/>
<stop offset="0.4087" stop-color="#FFBD00"/>
<stop offset="0.7754" stop-color="#FFA500"/>
<stop offset="1" stop-color="#FF9C00"/>
</linearGradient>
<linearGradient id="paint2_linear_23_2598" x1="24.0913" y1="22.0949" x2="2.67842" y2="0.0211577" gradientUnits="userSpaceOnUse">
<stop stop-color="#FF3A44"/>
<stop offset="1" stop-color="#C31162"/>
</linearGradient>
<linearGradient id="paint3_linear_23_2598" x1="7.081" y1="42.9168" x2="16.6428" y2="33.06" gradientUnits="userSpaceOnUse">
<stop stop-color="#32A071"/>
<stop offset="0.0685" stop-color="#2DA771"/>
<stop offset="0.4762" stop-color="#15CF74"/>
<stop offset="0.8009" stop-color="#06E775"/>
<stop offset="1" stop-color="#00F076"/>
</linearGradient>
</defs>
</svg>
