<svg xmlns="http://www.w3.org/2000/svg" width="44" height="44" viewBox="0 0 44 44" fill="none">
<circle cx="22" cy="22" r="22" fill="#3C3246"/>
<mask id="mask0_23_2302" style="mask-type:alpha" maskUnits="userSpaceOnUse" x="10" y="11" width="24" height="24">
<rect x="10" y="11" width="24" height="24" fill="#D9D9D9"/>
</mask>
<g mask="url(#mask0_23_2302)">
<path d="M13 32C12.45 32 11.9792 31.8042 11.5875 31.4125C11.1958 31.0208 11 30.55 11 30V18C11 17.45 11.1958 16.9792 11.5875 16.5875C11.9792 16.1958 12.45 16 13 16H16.15L18 14H24V16H18.875L17.05 18H13V30H29V21H31V30C31 30.55 30.8042 31.0208 30.4125 31.4125C30.0208 31.8042 29.55 32 29 32H13ZM29 18V16H27V14H29V12H31V14H33V16H31V18H29ZM21 28.5C22.25 28.5 23.3125 28.0625 24.1875 27.1875C25.0625 26.3125 25.5 25.25 25.5 24C25.5 22.75 25.0625 21.6875 24.1875 20.8125C23.3125 19.9375 22.25 19.5 21 19.5C19.75 19.5 18.6875 19.9375 17.8125 20.8125C16.9375 21.6875 16.5 22.75 16.5 24C16.5 25.25 16.9375 26.3125 17.8125 27.1875C18.6875 28.0625 19.75 28.5 21 28.5ZM21 26.5C20.3 26.5 19.7083 26.2583 19.225 25.775C18.7417 25.2917 18.5 24.7 18.5 24C18.5 23.3 18.7417 22.7083 19.225 22.225C19.7083 21.7417 20.3 21.5 21 21.5C21.7 21.5 22.2917 21.7417 22.775 22.225C23.2583 22.7083 23.5 23.3 23.5 24C23.5 24.7 23.2583 25.2917 22.775 25.775C22.2917 26.2583 21.7 26.5 21 26.5Z" fill="#44FED6"/>
</g>
</svg>