<svg width="51" height="51" viewBox="0 0 51 51" fill="none" xmlns="http://www.w3.org/2000/svg">
<circle cx="25.5" cy="25.5" r="25.5" fill="#3C3246"/>
<mask id="mask0_5_14" style="mask-type:alpha" maskUnits="userSpaceOnUse" x="13" y="13" width="24" height="25">
<rect x="13" y="13.5" width="24" height="24" fill="#D9D9D9"/>
</mask>
<g mask="url(#mask0_5_14)">
<path d="M32.95 34.5C30.8667 34.5 28.8083 34.0458 26.775 33.1375C24.7417 32.2292 22.8917 30.9417 21.225 29.275C19.5583 27.6083 18.2708 25.7583 17.3625 23.725C16.4542 21.6917 16 19.6333 16 17.55C16 17.25 16.1 17 16.3 16.8C16.5 16.6 16.75 16.5 17.05 16.5H21.1C21.3333 16.5 21.5417 16.5792 21.725 16.7375C21.9083 16.8958 22.0167 17.0833 22.05 17.3L22.7 20.8C22.7333 21.0667 22.725 21.2917 22.675 21.475C22.625 21.6583 22.5333 21.8167 22.4 21.95L19.975 24.4C20.3083 25.0167 20.7042 25.6125 21.1625 26.1875C21.6208 26.7625 22.125 27.3167 22.675 27.85C23.1917 28.3667 23.7333 28.8458 24.3 29.2875C24.8667 29.7292 25.4667 30.1333 26.1 30.5L28.45 28.15C28.6 28 28.7958 27.8875 29.0375 27.8125C29.2792 27.7375 29.5167 27.7167 29.75 27.75L33.2 28.45C33.4333 28.5167 33.625 28.6375 33.775 28.8125C33.925 28.9875 34 29.1833 34 29.4V33.45C34 33.75 33.9 34 33.7 34.2C33.5 34.4 33.25 34.5 32.95 34.5ZM19.025 22.5L20.675 20.85L20.25 18.5H18.025C18.1083 19.1833 18.225 19.8583 18.375 20.525C18.525 21.1917 18.7417 21.85 19.025 22.5ZM27.975 31.45C28.625 31.7333 29.2875 31.9583 29.9625 32.125C30.6375 32.2917 31.3167 32.4 32 32.45V30.25L29.65 29.775L27.975 31.45Z" fill="#44FED6"/>
</g>
</svg>
