<svg width="31" height="12" viewBox="0 0 31 12" fill="none" xmlns="http://www.w3.org/2000/svg">
<g id="Modo_de_isolamento" clip-path="url(#clip0_23_1858)">
<path id="Vector" d="M19.6361 7.28734H11.3639C10.61 7.28734 9.99438 6.71374 9.99438 5.99673C9.99438 5.27973 10.603 4.70613 11.3639 4.70613H19.6361C20.39 4.70613 21.0055 5.27973 21.0055 5.99673C21.0055 6.71374 20.3969 7.28734 19.6361 7.28734Z" fill="white"/>
<path id="Vector_2" d="M6.36323 2.57469C4.35743 2.57469 2.73204 4.11298 2.73204 5.99674C2.73204 7.8805 4.36435 9.41879 6.36323 9.41879C8.36903 9.41879 9.99442 7.8805 9.99442 5.99674C9.99442 4.10646 8.36211 2.57469 6.36323 2.57469ZM6.36323 12C2.85654 12 0 9.30798 0 5.99674C0 2.6855 2.85654 0 6.36323 0C9.86992 0 12.7265 2.69201 12.7265 5.99674C12.7265 9.30147 9.86992 11.9935 6.36323 11.9935" fill="white"/>
<path id="Vector_3" d="M24.6368 2.57469C22.631 2.57469 21.0056 4.11298 21.0056 5.99674C21.0056 7.8805 22.6379 9.41879 24.6368 9.41879C26.6357 9.41879 28.268 7.8805 28.268 5.99674C28.268 4.11298 26.6357 2.57469 24.6368 2.57469ZM24.6368 12C21.1301 12 18.2736 9.30798 18.2736 6.00326C18.2736 2.69853 21.1301 0 24.6368 0C28.1435 0 31 2.69201 31 5.99674C31 9.30147 28.1435 11.9935 24.6368 11.9935" fill="white"/>
</g>
<defs>
<clipPath id="clip0_23_1858">
<rect width="31" height="12" fill="white"/>
</clipPath>
</defs>
</svg>
