<svg xmlns="http://www.w3.org/2000/svg" width="92" height="92" viewBox="0 0 92 92" fill="none">
<circle cx="46" cy="46" r="46" fill="#5A78FF"/>
<path d="M39.9011 48.0085H53.0684C54.1822 48.0085 55.0972 47.0939 55.0972 45.9806C55.0972 44.8672 54.1822 43.9526 53.0684 43.9526H39.9011C38.7872 43.9526 37.8723 44.8672 37.8723 45.9806C37.8723 47.0939 38.7872 48.0085 39.9011 48.0085Z" fill="#44FED6"/>
<path d="M61.0245 55.9611C66.5141 55.9611 71.0093 51.4678 71.0093 45.9805C71.0093 40.4932 66.5141 36 61.0245 36C55.5348 36 51.0396 40.4932 51.0396 45.9805C51.0396 51.4678 55.5348 55.9611 61.0245 55.9611ZM61.0245 40.0956C64.2864 40.0956 66.9517 42.7597 66.9517 46.0203C66.9517 49.2809 64.2864 51.945 61.0245 51.945C57.7625 51.945 55.0972 49.2809 55.0972 46.0203C55.0972 42.7597 57.7625 40.0956 61.0245 40.0956Z" fill="#44FED6"/>
<path d="M31.9848 55.9611C37.4745 55.9611 41.9697 51.4678 41.9697 45.9805C41.9697 40.4932 37.4745 36 31.9848 36C26.4952 36 22 40.4932 22 45.9805C22 51.4678 26.4952 55.9611 31.9848 55.9611ZM31.9848 40.0956C35.2468 40.0956 37.9121 42.7597 37.9121 46.0203C37.9121 49.2809 35.2468 51.945 31.9848 51.945C28.7229 51.945 26.0576 49.2809 26.0576 46.0203C26.0576 42.7597 28.7229 40.0956 31.9848 40.0956Z" fill="#44FED6"/>
</svg>